<svg id="Layer_1" data-name="Layer 1" xmlns="http://www.w3.org/2000/svg" viewBox="0 0 685 700"><defs><style>.cls-1{fill:#d4a08a;}.cls-2{fill:#e9bfaf;}.cls-3{fill:#242322;}.cls-4{fill:#393327;}.cls-5{fill:#fff;}.cls-6{fill:#997967;}.cls-7{fill:#786150;}.cls-8{fill:#d59c97;}.cls-9{fill:#c4c4c4;}.cls-10{fill:#b5b4b5;}.cls-11{fill:none;stroke:#8b8b8b;stroke-miterlimit:10;stroke-width:1.43px;}</style></defs><rect class="cls-1" x="172.8" y="528.71" width="99.23" height="75.9"/><path class="cls-2" d="M327.55,371.82V336.55h-8.82V318.91h-8.81V292.44H292.28v-8.8H274.65V266H204.11v0H160v17.63H133.57v35.27H115.93v52.91H98.3V460h16.62v35.72h16.53v16.53H148v16.54h28.94v8.29l88.9,0v-8.25h31V512.24h16.54V495.71H329.9V462.63h16.54V371.82Zm-35.27-70.54-.06,0h.06Z"/><polygon class="cls-1" points="362.82 371.82 346.44 371.82 346.44 389.45 346.44 407.09 346.44 424.72 346.44 442.36 362.98 442.36 362.98 424.72 362.98 407.09 371.64 407.09 371.64 389.45 371.64 371.82 362.82 371.82"/><polygon class="cls-1" points="73.57 371.82 73.57 389.45 73.57 407.09 81.84 407.09 81.84 424.72 81.84 442.36 98.3 442.36 98.3 424.72 98.3 407.09 98.3 389.45 98.3 371.82 80.67 371.82 73.57 371.82"/><path class="cls-3" d="M345.19,283.64V266h0V248.39h0l0,0V230.74h-8.85l0,0V213.09h-8.82V195.47H309.92V177.83H274.65V160.22H168.84v17.62H151.2v17.63H133.57v35.27H115.93v17.63H98.3v52.91H89.48v70.54h26.45V318.91h17.64V283.64H151.2V266h35.27V257.2h52.91v0h35.27v17.66h17.63v8.8h17.64v35.27h17.63v52.91H354V283.64ZM204.11,177.85Zm0,35.25h0Z"/><polygon class="cls-4" points="168.84 371.82 151.2 371.82 151.2 389.45 151.2 398.27 168.84 398.27 177.66 398.27 177.66 389.45 177.66 371.82 168.84 371.82"/><rect class="cls-5" x="163.96" y="374.12" width="8.82" height="8.82"/><rect class="cls-1" x="318.73" y="318.91" width="8.82" height="17.63"/><rect class="cls-1" x="115.93" y="318.91" width="8.82" height="35.27"/><polygon class="cls-1" points="292.28 292.48 301.1 292.48 301.1 318.91 309.92 318.91 309.92 292.48 309.92 292.44 309.92 283.64 292.28 283.64 292.28 292.48"/><rect class="cls-1" x="274.65" y="274.84" width="17.63" height="8.8"/><rect class="cls-1" x="151.2" y="266.01" width="8.82" height="17.63"/><polygon class="cls-1" points="257.01 257.19 239.38 257.19 239.38 257.18 221.74 257.18 221.74 257.18 204.12 257.18 204.11 257.18 186.47 257.18 186.47 266 204.11 266 204.11 266.01 221.75 266.01 221.75 266 239.38 266 239.38 266 257.01 266 274.65 266 274.65 257.19 257.01 257.19"/><polygon class="cls-1" points="133.57 301.28 133.57 318.91 142.39 318.91 142.39 301.28 142.39 283.64 133.57 283.64 133.57 301.28"/><rect class="cls-6" x="189.33" y="537.03" width="66.15" height="8.27"/><polygon class="cls-1" points="212.93 371.83 212.93 389.47 212.93 407.1 212.93 424.74 221.75 424.74 221.75 407.1 221.75 389.47 221.75 371.83 221.75 363.01 212.93 363.01 212.93 371.83"/><polygon class="cls-1" points="204.11 433.54 195.29 433.54 195.29 442.36 204.11 442.36 204.11 451.17 212.93 451.17 212.93 442.36 212.93 433.54 212.93 424.72 204.11 424.72 204.11 433.54"/><rect class="cls-1" x="212.93" y="451.17" width="8.82" height="8.82"/><polygon class="cls-1" points="248.19 446.64 248.19 451.17 239.38 451.17 239.38 459.99 248.19 459.99 248.19 455.46 257.01 455.46 257.01 446.64 248.19 446.64"/><polygon class="cls-7" points="292.28 340.08 274.65 340.08 257.01 340.08 257.01 354.18 274.65 354.18 292.28 354.18 309.92 354.18 292.28 340.08"/><polygon class="cls-7" points="168.84 340.08 151.2 340.08 133.57 354.18 151.2 354.18 168.84 354.18 186.47 354.18 186.47 340.08 168.84 340.08"/><polygon class="cls-8" points="257.01 479.16 239.38 479.16 221.74 479.16 221.74 479.18 208.51 479.18 208.52 479.16 186.47 479.16 177.66 479.16 177.66 487.44 186.47 487.44 186.47 495.71 204.11 495.71 204.11 495.69 204.11 495.73 204.11 504.09 221.75 504.09 221.75 504.08 239.38 504.08 239.38 495.71 257.01 495.71 257.01 487.44 265.83 487.44 265.83 479.16 257.01 479.16"/><polygon class="cls-4" points="283.6 371.82 265.97 371.82 265.97 389.45 265.97 398.27 283.6 398.27 292.42 398.27 292.42 389.45 292.42 371.82 283.6 371.82"/><rect class="cls-5" x="278.72" y="374.12" width="8.82" height="8.82"/><polygon class="cls-9" points="420.86 619.12 420.86 610.89 412.59 610.89 412.59 602.55 404.32 602.55 404.32 594.36 387.79 594.36 387.79 586.09 371.17 586.09 371.25 577.82 346.44 577.82 346.44 569.55 280.29 569.55 280.27 569.64 272.02 569.64 272.02 577.83 264.01 577.83 264.01 586.01 182.15 586.01 182.15 577.83 172.8 577.83 172.8 569.64 164.54 569.64 164.54 569.62 98.38 569.62 98.38 577.88 73.57 577.88 73.65 586.15 57.03 586.15 57.03 594.42 40.5 594.42 40.5 602.62 32.23 602.62 32.23 610.96 23.96 610.96 23.96 619.19 15.7 619.19 15.7 644.04 15.7 654.41 15.7 698.95 429.13 698.88 429.13 654.34 429.13 643.97 429.13 619.12 420.86 619.12"/><rect class="cls-10" x="272.02" y="660.47" width="82.03" height="38.83"/><line class="cls-11" x1="272.02" y1="666.37" x2="354.06" y2="666.37"/><path d="M542.8,350.59h0l.38,0a8.13,8.13,0,0,0-.95-3,8.66,8.66,0,0,0-1.88-2.35h0a8,8,0,0,0-2.48-1.61,7.11,7.11,0,0,0-2.81-.58,6.51,6.51,0,0,0-2.74.62h0a6.15,6.15,0,0,0-2.41,1.92h0a7.92,7.92,0,0,0-.76,1.19l.34.18h0l0,0-.31-.16h0a9.22,9.22,0,0,0-.61,1.75,19.3,19.3,0,0,0-.46,2.58l.38.05h0l-.39,0c-.09,1-.13,2.24-.13,3.7h0c0,.21,0,.43,0,.65l-4.89-.08v.38h0v-.38h-.4v4h5.53v12.09h3.44V360.48h10.27v-3.76h-.37v.39h0v-.39l-9.94-.17a43.21,43.21,0,0,1,.26-5h0a12,12,0,0,1,.79-3.07l-.29-.13.08,0,.21.1h0a2.48,2.48,0,0,1,1-1.31,3.17,3.17,0,0,1,1.41-.32,3.63,3.63,0,0,1,1.56.37h0l.15-.35h0l-.15.36a4.59,4.59,0,0,1,1.46,1l.25-.24,0,0-.22.22h0a5.68,5.68,0,0,1,1.23,1.7v0l.33-.19h0l-.34.19a6.68,6.68,0,0,1,.77,2.27l.1.59.5-.34,2.26-1.53-.21-.32Zm-2.72-5.12Zm-7.6-1.49h0l0-.06Z"/><polygon points="415.23 372.47 415.11 372.87 415.51 372.96 415.6 372.58 415.23 372.47"/><polygon points="453.96 372.89 454.01 373.35 454.45 373.23 454.35 372.86 453.96 372.89"/><path d="M561.73,359.37h0a12.87,12.87,0,0,0-.6-1.87h0a7.74,7.74,0,0,0-1.18-2,6.3,6.3,0,0,0-1.92-1.58h0a5,5,0,0,0-2.65-.69,8.12,8.12,0,0,0-4.41,1.19h0l.16.24,0,.08-.21-.32a10.49,10.49,0,0,0-3.05,3,13.38,13.38,0,0,0-1.82,4h0a15.22,15.22,0,0,0-.6,4.13,8.84,8.84,0,0,0,1.62,5.59l.3-.24h0l-.29.24a6,6,0,0,0,4.87,2,6.87,6.87,0,0,0,3.16-.72h0a8.38,8.38,0,0,0,2.41-1.9l-.29-.25h0l.29.25a10.88,10.88,0,0,0,1.69-2.57h0a12.09,12.09,0,0,0,.57-1.29l1.33,6.28.09.43.42-.15-.13-.36h0l.13.36,2.72-1,.32-.11-.08-.34Zm-4.41,4.37h0a10,10,0,0,1-1.14,2.66,7.49,7.49,0,0,1-1.75,2h0a3.47,3.47,0,0,1-2.13.74,2.7,2.7,0,0,1-2.4-1.06,5.13,5.13,0,0,1-.79-3,11.19,11.19,0,0,1,.36-2.67,11.41,11.41,0,0,1,1.08-2.66,7,7,0,0,1,1.76-2,3.72,3.72,0,0,1,2.3-.78,2.93,2.93,0,0,1,.53,0l.06-.38v.07l-.05.31h0l.57.12a2.91,2.91,0,0,1,1.5,1.43v0l.34-.19h0l-.34.19a4.77,4.77,0,0,1,.54,2.35,9.87,9.87,0,0,1-.43,2.74l.35.1-.07,0Zm-1.48-6.91v0Zm2-2.62h0l0,0Zm-11.37,7.19h0l-.21-.06Z"/><polygon points="460.87 355.99 460.48 355.99 460.48 356.38 460.48 372.95 460.48 373.31 460.84 373.33 464.01 373.51 464.42 373.54 464.42 373.13 464.42 356.38 464.42 355.99 464.04 355.99 460.87 355.99"/><path d="M456.27,357.25l-.38,0h0l.38,0v-.07l0-.07-1.35-2.71-.35.17h0l0-.39-10.1.62v-2.34l-.46.1-2.18.46-.3.06v20.21l.43-.05,0-.38h0l0,.38,2.27-.27-.05-.39h0l.05.39.34,0V358.49h8l1.42,14.4.38,0h0l.1.37,2.9-.82.31-.08,0-.32Zm-3.37.85Z"/><path d="M649.62,364.82l-.18.34h0l-.38,0a4.94,4.94,0,0,1-.59,2.06,6.21,6.21,0,0,1-1.27,1.57h0a6.19,6.19,0,0,1-1.75,1h0a6.23,6.23,0,0,1-1.9.38,7.09,7.09,0,0,1-2.18-.34h0a4.66,4.66,0,0,1-1.8-1.09,5.75,5.75,0,0,1-1.31-2h0a8.84,8.84,0,0,1-.47-3.12,8.23,8.23,0,0,1,.43-2.75,6.16,6.16,0,0,1,1.23-2,4.77,4.77,0,0,1,1.75-1.17l-.13-.36h0l.13.36h0a6,6,0,0,1,2.21-.42,7.47,7.47,0,0,1,2.8.56l.14-.36h0l-.14.36h0a8.15,8.15,0,0,1,2.68,1.64l.26-.28h0l-.26.28.46.42.17-.6.82-2.89-.37-.11h0l.2-.33a16.63,16.63,0,0,0-3.74-1.75h0a10.53,10.53,0,0,0-3.41-.6,8.48,8.48,0,0,0-3.6.76l.15.34h0l0-.07-.12-.27h0a8.15,8.15,0,0,0-2.79,2.13h0a9.39,9.39,0,0,0-1.85,3.21h0a13.12,13.12,0,0,0,.15,8.59l.35-.14h0l-.35.14h0a9.51,9.51,0,0,0,2.12,3.21,8.54,8.54,0,0,0,3,1.89h0a9.33,9.33,0,0,0,3.43.66,11,11,0,0,0,3.19-.47,8.06,8.06,0,0,0,2.76-1.43h0a7.27,7.27,0,0,0,2-2.37h0a7.45,7.45,0,0,0,.9-3.33l-.38,0h0l.38,0v-.25l-.22-.12Zm-11.77-4.09h0Zm9.6,8.32Zm-9.55-2.17h0l.06,0Zm2.31,6.16h0l0,.06Zm10.91-3.44h0l0,0Z"/><polygon points="581.98 354.4 581.87 354.17 581.61 354.18 581.63 354.57 581.98 354.4"/><path d="M427.28,342.94l-.09-.25h-2.55l-.08.27-9.33,29.51.37.11h0l-.09.38,3.08.73.09-.38h0l-.09.38.36.08.1-.35,3.45-11.76h7.94l4.17,12,.12.34.35-.1,2.9-.81-.11-.37h0l.11.37.4-.12-.15-.39Zm-3.83,15.14,2.6-8.65,3.3,8.65Z"/><polygon points="454.88 354.4 454.76 354.17 454.51 354.18 454.53 354.57 454.88 354.4"/><path d="M603.47,359.37h0a12.12,12.12,0,0,0-.61-1.86h0a7.42,7.42,0,0,0-1.19-2.05,6.15,6.15,0,0,0-1.91-1.58h0a4.93,4.93,0,0,0-2.64-.69,8.15,8.15,0,0,0-4.42,1.19h0l.16.25,0,.07h0l-.2-.32a10.66,10.66,0,0,0-3.06,3,13.11,13.11,0,0,0-1.81,4l.37.1h0l-.37-.11a15.25,15.25,0,0,0-.61,4.13,8.79,8.79,0,0,0,1.63,5.59l.3-.24h0l0,0-.27.22h0a6,6,0,0,0,4.87,2,6.88,6.88,0,0,0,3.17-.72h0a8.57,8.57,0,0,0,2.42-1.9h0a10.84,10.84,0,0,0,1.68-2.57h0c.21-.43.4-.86.56-1.29l1.33,6.28.1.43.41-.15,2.72-1-.13-.36h0l.13.36.32-.11-.08-.34Zm-4,4.48h0l-.33-.1h0a10.35,10.35,0,0,1-1.13,2.66,7.52,7.52,0,0,1-1.76,2h0a3.44,3.44,0,0,1-2.12.74,2.69,2.69,0,0,1-2.4-1.06,5.05,5.05,0,0,1-.79-3,11,11,0,0,1,.35-2.66h0a11.08,11.08,0,0,1,1.09-2.67,6.83,6.83,0,0,1,1.75-2,3.75,3.75,0,0,1,2.31-.78,2.82,2.82,0,0,1,.52,0h0a5.41,5.41,0,0,1,.55.12,2.89,2.89,0,0,1,1.51,1.43l.35-.17h0l-.34.19a4.77,4.77,0,0,1,.54,2.35,9.55,9.55,0,0,1-.44,2.74l.38.11ZM592,359.59l0,0,0,0h0Zm7.6-5.38Zm1.09,13.49Z"/><polygon points="660.67 368.15 656.96 364.52 656.65 364.23 656.39 364.55 653.85 367.63 654.15 367.88 654.15 367.88 653.85 367.63 653.63 367.9 653.87 368.15 657.68 372.04 658 372.37 658.26 372 660.71 368.65 660.91 368.38 660.67 368.15"/><polygon points="581.07 372.89 581.12 373.35 581.56 373.23 581.45 372.86 581.07 372.89"/><polygon points="629.16 345.73 629.03 345.42 628.7 345.5 628.8 345.88 629.16 345.73"/><polygon points="650.36 356.4 650.44 356.11 650.19 355.96 649.99 356.29 650.36 356.4"/><polygon points="509.16 371.54 509.28 371.37 509.21 371.18 508.85 371.32 509.16 371.54"/><polygon points="599.29 358.46 598.94 358.63 598.95 358.65 599.29 358.46"/><polygon points="627.53 355.99 627.15 355.99 627.15 356.38 627.15 372.95 627.15 373.31 627.51 373.33 627.53 372.95 627.53 372.95 627.51 373.33 630.68 373.51 631.09 373.54 631.09 373.13 631.09 356.38 631.09 355.99 630.7 355.99 627.53 355.99"/><polygon points="528.06 351.08 528.06 351.1 528.45 351.13 528.06 351.08"/><path d="M507.11,356.77h0a5.77,5.77,0,0,0-2.61-1.84h0a9.55,9.55,0,0,0-3.38-.57,8.52,8.52,0,0,0-2.75.48h0a6.71,6.71,0,0,0-2.63,1.53,8,8,0,0,0-1.9,2.85h0a10.83,10.83,0,0,0-.76,4.31,14.11,14.11,0,0,0,.8,5.08h0l.3-.12h0l-.3.12a8.8,8.8,0,0,0,2.13,3.26,7.92,7.92,0,0,0,3,1.77,10.89,10.89,0,0,0,5.52.28h0a9.57,9.57,0,0,0,2-.55h0a6.62,6.62,0,0,0,1.57-.81,4.16,4.16,0,0,0,1-1l-.31-.22h0l.36-.14-.82-2.17-.2-.54-.42.39.26.29h0l-.26-.29a5.63,5.63,0,0,1-2.21,1.14,10.51,10.51,0,0,1-3.18.48,8.39,8.39,0,0,1-1.95-.22,5.34,5.34,0,0,1-1.74-.72,4.62,4.62,0,0,1-1.33-1.28,4.55,4.55,0,0,1-.54-1.62L509,365.46l0-.39h0l0,.39.34,0v-.35a19.43,19.43,0,0,0-.55-5A8.18,8.18,0,0,0,507.11,356.77Zm-11,6.85Zm8.77-4.6-.28.24h0a4.61,4.61,0,0,1,1.05,2.93l-9.2,1s0-.07,0-.12a5.65,5.65,0,0,1,.3-1.82,4.47,4.47,0,0,1,.88-1.55h0l-.27-.22,0,0h0l.29.24a5,5,0,0,1,1.43-1.17,4.87,4.87,0,0,1,2-.5,4.41,4.41,0,0,1,3.5,1.23l.29-.25h0Zm-8.5,7.27Zm8-11Zm-5.89-.1Zm-4.3,4.17h0l-.06,0Z"/><polygon points="623.81 372.24 624.17 372.16 624.12 371.8 623.73 371.86 623.81 372.24"/><polygon points="614.38 374.01 614.54 374.19 614.76 374.14 614.68 373.76 614.38 374.01"/><polygon points="617.15 354.63 617.15 345.61 617.15 345.22 616.76 345.22 613.68 345.22 613.3 345.22 613.3 345.61 613.3 354.46 608.7 354.46 608.35 354.46 608.32 354.81 608.05 358.12 608.01 358.53 608.43 358.53 612.66 358.53 612.66 371.86 612.66 372 612.75 372.11 614.38 374.01 614.68 373.76 614.68 373.76 614.68 373.76 614.76 374.14 623.81 372.24 623.73 371.86 623.73 371.86 623.73 371.86 624.12 371.8 623.66 368.73 623.6 368.33 623.21 368.4 623.28 368.78 623.28 368.78 623.21 368.4 616.83 369.59 616.83 358.67 624.18 358.67 624.57 358.67 624.57 358.28 624.57 355.02 624.57 354.63 624.18 354.63 617.15 354.63"/><polygon points="542.8 350.59 543.01 350.91 543.21 350.78 543.18 350.54 542.8 350.59"/><polygon points="458.87 346.32 458.43 346.43 458.61 346.84 458.96 346.69 458.87 346.32"/><path d="M583.38,357.25l-.39,0h0l.38,0v-.07l0-.07L582,354.4l-.34.17h0l0-.39-10.09.62v-2.34l-.47.1.09.38h0l-.08-.38-2.17.46.08.37h0l-.08-.37-.31.06v20.21l.44-.05,0-.38h0l0,.38,2.26-.27,0-.39h0l0,.39.34,0V358.49h8l1.41,14.4.38,0h0l.11.37,2.9-.82.31-.08,0-.32Zm-3.38.85Z"/><polygon points="547.11 371.02 547.12 371.02 547.41 370.78 547.11 371.02"/><polygon points="649.62 364.82 649.1 364.56 649.06 365.13 649.44 365.16 649.62 364.82"/><polygon points="631.7 352.67 631.7 352.67 632.05 352.52 629.16 345.73 628.8 345.88 628.8 345.88 628.8 345.88 628.7 345.5 625.54 346.32 625.63 346.69 625.63 346.69 625.54 346.32 625.1 346.43 625.28 346.84 628.17 353.72 628.31 354.04 628.63 353.95 631.81 353.04 632.23 352.92 632.05 352.52 631.7 352.67"/><path d="M489.66,357.56h0l.29-.26L487.86,355l-.28.25h0l.29-.25-.11-.13H471.3l-.18-1.65-.05-.43-.42.09-2.81.64.09.38h0l-.09-.38-.33.08,0,.34,2,19.28,0,.39.4-.05-.05-.38h0l.05.38,2.9-.36.37,0,0-.37-1.5-14.43h6.62v14.4h3.39V358h4l1.62,2.18V372.4l.44-.07,1.9-.27.33,0V357.41l-.09-.11Zm-1.9,2.44h0Z"/><polygon points="462.49 345.73 462.13 345.88 462.13 345.88 462.13 345.88 462.49 345.73 462.36 345.42 462.04 345.5 458.87 346.32 458.96 346.69 458.96 346.69 458.96 346.69 458.61 346.84 461.5 353.72 461.64 354.04 461.97 353.95 461.86 353.57 461.86 353.57 461.97 353.95 465.14 353.04 465.03 352.67 465.03 352.67 465.14 353.04 465.56 352.92 465.39 352.52 462.49 345.73"/><path d="M408.47,444.7,429,425.61a3.29,3.29,0,0,0,1.08-2.3,3.22,3.22,0,0,0-.93-2.36,3.71,3.71,0,0,0-2.41-1.12,3.82,3.82,0,0,0-2.58.75l-.29.25-26.7,24.86a3.23,3.23,0,0,0-1.06,2.2,3.27,3.27,0,0,0,.79,2.3l.27.27,26.7,24.86a3.76,3.76,0,0,0,2.47,1,3.81,3.81,0,0,0,2.53-.86,3.28,3.28,0,0,0,1.2-2.25,3.22,3.22,0,0,0-.8-2.4l-.27-.27-20.49-19.09h26.08a58.75,58.75,0,0,0,25.86-5.67l1.19-.61A46.44,46.44,0,0,0,480.11,428a48.37,48.37,0,0,0,6.74-25.2,3.29,3.29,0,0,0-1.06-2.39,3.82,3.82,0,0,0-5.13,0,3.3,3.3,0,0,0-1.07,2.39,42,42,0,0,1-5.82,21.89,39.42,39.42,0,0,1-15.7,14.62,50.13,50.13,0,0,1-22.05,5.4H408.47L429,425.61Z"/></svg>