<svg xmlns="http://www.w3.org/2000/svg" viewBox="0 0 332.93 107.32"><defs><style>.cls-1{fill:#434343;}.cls-2{fill:#faaf3b;}</style></defs><g id="logos"><path class="cls-1" d="M122.63,75.36a6.85,6.85,0,0,1,6.81-6.89,6.37,6.37,0,0,1,5,2.27l-1.26,1.09a4.93,4.93,0,0,0-3.78-1.76,5.12,5.12,0,0,0-5,5.29,5.23,5.23,0,0,0,5,5.3,4.93,4.93,0,0,0,3.78-1.76L134.48,80a6.5,6.5,0,0,1-5,2.27A6.8,6.8,0,0,1,122.63,75.36Z"/><path class="cls-1" d="M142.89,77.05h-1.77v5h-1.76V68.64h5c2.94,0,4,2.1,4,4.2a3.94,3.94,0,0,1-3.53,4.21l3.62,5.12h-2.1Zm-1.69-1.69H144c1.93,0,2.77-1,2.77-2.52a2.24,2.24,0,0,0-2.27-2.52h-3.36v5Z"/><path class="cls-1" d="M163.4,68.64l-5.22,7.23v6.22h-1.76V75.87l-5.13-7.23h2.1l3.87,5.55,4-5.55Z"/><path class="cls-1" d="M176.68,72.84c0,2.1-1.18,4.21-4,4.21H169v5h-1.77V68.64h5.38C175.5,68.64,176.68,70.74,176.68,72.84Zm-1.77,0a2.27,2.27,0,0,0-2.27-2.52h-3.53v5.13h3.45A2.4,2.4,0,0,0,174.91,72.84Z"/><path class="cls-1" d="M189.71,70.24h-4.12V82.09h-1.77V70.24H179.7V68.56h10Z"/><path class="cls-1" d="M194.16,75.36a6.81,6.81,0,1,1,13.62,0,6.81,6.81,0,1,1-13.62,0Zm11.85,0a5.17,5.17,0,0,0-5-5.29,5.11,5.11,0,0,0-5,5.29,5,5,0,1,0,10.08,0Z"/><path class="cls-1" d="M237.59,68.69l-4.47,13.24H231.6l-2.38-8.36-2.36,8.36h-1.52l-4.48-13.24h1.87l3.38,10.47,2.46-8.66h1.32l2.48,8.62,3.36-10.43Z"/><path class="cls-1" d="M249.67,80.32v1.61h-8V68.69h7.8v1.62H243.4v4.3h5.3v1.63h-5.3v4.08Z"/><path class="cls-1" d="M253.55,78.14h1.73a2.74,2.74,0,0,0,2.94,2.37,2.38,2.38,0,0,0,2.67-2.25c0-1.29-1.17-1.86-2.29-2.15l-1.71-.42c-2.8-.68-3.24-2.33-3.24-3.4,0-2.29,2-3.75,4.36-3.75a3.87,3.87,0,0,1,4.18,3.84h-1.72a2.57,2.57,0,0,0-5.08-.11c0,.46.16,1.42,1.92,1.84l1.73.42c2.25.56,3.6,1.79,3.6,3.67,0,2.06-1.68,3.92-4.42,3.92S253.57,80.2,253.55,78.14Z"/><path class="cls-1" d="M275.28,80.32v1.61h-8V68.69h7.8v1.62H269v4.3h5.3v1.63H269v4.08Z"/><path class="cls-1" d="M287,78.53h-5.68l-1.29,3.4h-1.83l5-13.24h1.84l5,13.24h-1.82ZM286.47,77l-2.27-6-2.27,6Z"/><path class="cls-1" d="M297.44,76.93h-1.73v5H294V68.69h5c2.88,0,4,2.08,4,4.13s-1,3.85-3.45,4.1l3.51,5H300.9Zm-1.73-1.59h2.77c1.94,0,2.71-1,2.71-2.52A2.25,2.25,0,0,0,299,70.31h-3.27Z"/><path class="cls-1" d="M306.84,75.34a6.73,6.73,0,0,1,6.72-6.78,6.44,6.44,0,0,1,5,2.25l-1.27,1.07a4.87,4.87,0,0,0-3.71-1.71,5.17,5.17,0,0,0,0,10.34,4.87,4.87,0,0,0,3.71-1.71l1.27,1.07a6.44,6.44,0,0,1-5,2.25A6.73,6.73,0,0,1,306.84,75.34Z"/><path class="cls-1" d="M332.93,68.69V81.93h-1.75V76.15h-6.49v5.78h-1.75V68.69h1.75v5.86h6.49V68.69Z"/><path class="cls-1" d="M158.83,33.13H130.52a58.3,58.3,0,0,1-6,6.13l-1.93-1.68a36.73,36.73,0,0,0,9.32-12l2.69.92c-.51.93-2.61,4.2-2.61,4.2h26.88v2.44ZM129.35,35.4H155.8v8.23h4.54V46H155.8v2.27c0,1.42,0,2.6-.08,3.69h3.36v2.35h-3.45c-.16,4-2.18,6.05-6.13,6.05h-5.12L143.79,58h5.13c2.18,0,3.44-1.26,3.78-3.7H130.1l-.25,2.1h-2.94l1.18-10.5H123.8V43.54h4.54l.92-8V35.4ZM152.86,46H131.11l-.76,6h22.43V46Zm-21.5-2.35h21.5V37.75H132Zm12.52,8c-1.35-1-2.94-2.1-4.87-3.27l1.51-1.93a44.14,44.14,0,0,1,5,3.27Zm.16-8.39c-1.34-1-2.93-2.1-4.87-3.28L140.69,38a43.09,43.09,0,0,1,5,3.27Z"/><path class="cls-1" d="M210.65,58.16H187.8v1.93h-3V28.26h29.06V60.09h-3.11V58.16Zm0-16.63V30.61H187.8V41.53ZM187.8,55.8h22.85V43.88H187.8Z"/><path class="cls-1" d="M241.47,31.45l-2.1-3.7,2.27-.67,2.18,3.7Zm16.8.92V43.54a1.79,1.79,0,0,1-.84,1.51,3.32,3.32,0,0,1-2.1.68h-2.86l-.25-2h2.35c.76,0,1.09-.34,1.09-1V34.22h-5.79V45.73h-2.19V34.22H242V46.15h-2.52V32.37h8.07v-6h2.6v6Zm11.08,27.21h-4.78l-.42-2.52H268a1.55,1.55,0,0,0,1.09-.42,1.13,1.13,0,0,0,.5-.92v-5H258.1V60.84H255V50.68H244.16v9h-3V48.58h14v-2.1h3.1v2.1h14.53v8.06a2.38,2.38,0,0,1-1,2A3.42,3.42,0,0,1,269.35,59.58ZM245.08,41.86h-1.6l.84-5.71h1.52Zm7.48-.17-.68-5.45h1.52l.84,5.45ZM256,31.53l-2.27-.42,2-4,2.52.5ZM267.76,42a24.06,24.06,0,0,1-7.23,4l-1-1.85a21.55,21.55,0,0,0,6.55-4A19.12,19.12,0,0,1,262.3,34a14.59,14.59,0,0,1-1.68,1.93l-1.77-1.26a31.27,31.27,0,0,0,2.78-3.95,29,29,0,0,0,2.1-4.37l2.68.51a16.14,16.14,0,0,1-1.26,2.85h10.33v2.1h-1.84a15.61,15.61,0,0,1-4,8.57,39.6,39.6,0,0,0,5.88,3.86l-1.84,2A31.74,31.74,0,0,1,267.76,42Zm-.09-3.45a13.34,13.34,0,0,0,3.11-6.72h-6.72A16.05,16.05,0,0,0,267.67,38.5Z"/><path class="cls-1" d="M301.69,55.8v2.61h-2.77V43.71a35.66,35.66,0,0,1-3.11,4.54L294.13,47a36.75,36.75,0,0,0,6.72-16.55h-5.13V28.26H310v2.18h-6.3a39.93,39.93,0,0,1-2.18,7.89H309V55.72h-7.3Zm4.45-15.37H301.6V53.7h4.54Zm5.71,20.5-2.1-1.6a21.35,21.35,0,0,0,4.28-7,27.12,27.12,0,0,0,1.68-8.65h-4.53V41.53h4.53V30.61H312.1V28.26h20.83v2.35h-3.61v11h3.61v2.18h-3.61V60.42h-3V43.79h-7.56C318.48,51.1,316.13,56.81,311.85,60.93Zm7-30.32v11h7.56v-11Z"/><path class="cls-2" d="M74.69,98.48l-2.75-3.32-2.78-3.35A38.49,38.49,0,0,1,65,93.24a40.74,40.74,0,0,1-22.61,0c-1.42-.41-2.79-.87-4.14-1.41l-2.79,3.35-2.77,3.3-2.74,3.31c1.27.63,2.56,1.19,3.87,1.71a53.75,53.75,0,0,0,39.7,0c1.36-.54,2.67-1.12,4-1.77Zm-21,4.68a49.54,49.54,0,0,1-17.07-3l2.85-3.43a45.58,45.58,0,0,0,28.41,0l2.85,3.43A49.8,49.8,0,0,1,53.66,103.16Z"/><path class="cls-2" d="M105.33,39.12a53.67,53.67,0,1,0-97.16,43c.82,1.26,1.65,2.51,2.54,3.72s1.73,2.18,2.64,3.22,1.92,2.08,2.92,3.08,1.95,1.83,3,2.68,2.22,1.79,3.39,2.6S24.9,99,26.06,99.69l2.73-3.24,2.7-3.23L34.21,90,37,86.67a32.88,32.88,0,0,1-3.66-2.08,35.22,35.22,0,0,1-3.39-2.54A36.74,36.74,0,0,1,27,79.29l-2.69,3.22c-1-1-1.91-2.08-2.8-3.18S19.78,77.06,19,75.86a41.4,41.4,0,0,1-2.25-4,40.79,40.79,0,0,1-3.51-26.08,41.15,41.15,0,0,1,80-3.2,40.13,40.13,0,0,1,.25,21.25,40.2,40.2,0,0,1-3,8.11,43.19,43.19,0,0,1-2.18,3.89,42.15,42.15,0,0,1-5.29,6.68l-2.7-3.22L75,72.82a27.27,27.27,0,0,0,2.58-3.29,27.93,27.93,0,0,0,2.21-4,29.59,29.59,0,0,0,1.62-4.58s0-.1,0-.14l-.21-.07L74.4,59l-1.83-.44A20.31,20.31,0,0,1,71.34,62a19.47,19.47,0,0,1-2.27,3.68l-8.4-10.06-1.81-2.17-.71-.85L56.78,51l-1.52-1.83a2.08,2.08,0,0,0-3.2,0L50.54,51l-2.08,2.49L38.29,65.71A20.12,20.12,0,0,1,36,62a20.67,20.67,0,0,1-1.52-4.72,19.23,19.23,0,0,1-.35-3.58,18.12,18.12,0,0,1,.25-2.87A19.52,19.52,0,0,1,45.34,36a21.63,21.63,0,0,1,2.08-.85,19.24,19.24,0,0,1,12.48,0,14.59,14.59,0,0,1,1.87.75A19.52,19.52,0,0,1,72.51,48.48L81.3,46A28.7,28.7,0,0,0,53.77,25C42,24.92,31.5,32.58,27,43.49a26.7,26.7,0,0,0-1.09,17.39,28.15,28.15,0,0,0,3.8,8.59,29.51,29.51,0,0,0,2.62,3.37,32.4,32.4,0,0,0,2.91,2.83,31.6,31.6,0,0,0,3.44,2.45,25.86,25.86,0,0,0,3.8,2,27.27,27.27,0,0,0,4.29,1.41,28.65,28.65,0,0,0,4.72.75c.73.06,1.43.11,2.16.11s1.46-.05,2.17-.11a28.55,28.55,0,0,0,4.74-.75l-6.91-8.3a20,20,0,0,1-4.86-.62l4.06-4.87a1,1,0,0,1,1.6,0l4.07,4.87,6.3,7.53,5.49,6.59L73.07,90l2.72,3.24,2.71,3.25,2.7,3.24c1.17-.7,2.31-1.45,3.41-2.22S86.92,95.8,88,94.89s2.08-1.81,3.06-2.77,1.93-2,2.83-3S95.78,87,96.65,85.8s1.69-2.37,2.46-3.6a53.24,53.24,0,0,0,8.21-28.54A54.07,54.07,0,0,0,105.33,39.12Zm-3.66,26.71a49.39,49.39,0,0,1-5.37,13c-.75,1.25-1.54,2.47-2.39,3.66s-1.75,2.31-2.68,3.41-1.83,2.06-2.81,3-2,1.89-3.06,2.76-2.25,1.79-3.41,2.6l-2.66-3.2-2.67-3.22L74,84.63,68.6,78.14,62.69,71l-7.43-9a2.08,2.08,0,0,0-3.2,0L44.64,71a19.53,19.53,0,0,1-3.52-2.33l11.74-14a1,1,0,0,1,1.6,0L66.18,68.68l5.87,7,5.32,6.38L80,85.3l2.66,3.2c1.06-.89,2.08-1.81,3.06-2.79s1.89-2,2.76-3a38.6,38.6,0,0,0,2.62-3.48,43.49,43.49,0,0,0,2.31-3.76A44.7,44.7,0,0,0,99,53.66,45.32,45.32,0,0,0,49.85,8.48a45.35,45.35,0,0,0-36,66.88c.73,1.33,1.54,2.62,2.39,3.86s1.65,2.29,2.54,3.37,1.85,2.15,2.85,3.14,1.93,1.86,3,2.71l2.67-3.2a40.24,40.24,0,0,0,3.39,2.57L28,91l-2.67,3.2c-1.18-.81-2.31-1.68-3.41-2.6s-2-1.75-2.95-2.68-2-2-2.89-3.1-1.77-2.16-2.6-3.31S11.77,80.06,11,78.75a49.49,49.49,0,1,1,90.31-38.48,48.93,48.93,0,0,1,1.85,13.39A50.27,50.27,0,0,1,101.67,65.83Z"/></g></svg>