<svg id="Layer_1" data-name="Layer 1" xmlns="http://www.w3.org/2000/svg" viewBox="0 0 685 700"><defs><style>.cls-1{fill:#e7c3b5;}.cls-2{fill:#15161d;}.cls-3{fill:#d4a08a;}.cls-4{fill:#604239;}.cls-5{fill:#393327;}.cls-6{fill:#fff;}.cls-7{fill:#ddb7a8;}.cls-8{fill:#c46d79;}.cls-9{fill:#191919;}.cls-10{fill:#20264b;}.cls-11{fill:#5f809a;}</style></defs><polygon class="cls-1" points="334.7 332.02 326.52 332.02 326.52 246.46 113.68 246.46 113.68 332.02 105.49 332.02 105.49 434.8 113.68 434.8 113.68 459.3 121.86 459.3 121.86 475.73 138.24 475.73 138.24 492.1 146.42 492.1 146.42 500.29 162.51 500.29 162.51 508.43 179.17 508.43 179.17 516.34 261.03 516.34 261.03 508.43 277.69 508.43 277.69 500.29 293.77 500.29 293.77 492.1 301.96 492.1 301.96 475.73 318.33 475.73 318.33 459.3 326.52 459.3 326.52 434.8 334.7 434.8 334.7 332.02"/><polygon class="cls-2" points="350.56 254.21 350.56 230.75 341.87 230.75 341.87 223.49 333.17 223.49 333.17 204.34 315.77 204.34 315.77 189.21 298.38 189.21 298.38 181.02 280.98 181.02 280.98 164.65 263.59 164.65 263.59 157.7 176.61 157.7 176.61 164.65 150.52 164.65 150.52 181.02 133.12 181.02 133.12 187.97 124.42 187.97 124.42 197.4 115.73 197.4 115.73 204.81 109.97 204.81 109.97 213.77 98.33 213.77 98.33 230.14 89.95 230.14 89.95 262.92 80.85 262.92 80.85 346.19 90.03 346.19 90.03 356.01 99.89 356.01 99.89 383.85 107.85 383.85 107.85 320.19 124.42 320.19 124.42 303.92 141.82 303.92 141.82 295.63 159.22 295.63 159.22 279.26 176.61 279.26 176.61 271.07 220.1 271.07 220.1 262.89 261.88 262.89 261.88 262.88 280.98 262.88 280.98 270.77 289.68 270.77 289.68 287.44 307.08 287.44 307.08 295.63 315.77 295.63 315.77 348.16 330.22 348.16 330.22 355.69 341.87 355.69 341.87 344.97 359.26 344.97 359.26 254.21 350.56 254.21"/><rect class="cls-2" x="202.7" y="148.28" width="17.4" height="9.42"/><rect class="cls-3" x="220.1" y="262.89" width="60.88" height="8.18"/><rect class="cls-3" x="176.61" y="271.07" width="43.49" height="8.18"/><rect class="cls-3" x="159.22" y="279.25" width="17.4" height="8.18"/><rect class="cls-3" x="307.08" y="295.68" width="8.7" height="8.18"/><rect class="cls-3" x="315.77" y="348.16" width="14.45" height="7.54"/><rect class="cls-3" x="141.82" y="295.63" width="17.4" height="8.29"/><rect class="cls-3" x="119.99" y="303.92" width="21.83" height="8.18"/><rect class="cls-3" x="100.74" y="327.3" width="22.1" height="7.88" transform="translate(443.03 219.45) rotate(90)"/><polygon class="cls-4" points="295.48 327.31 287.31 327.31 286.06 327.31 257.79 327.31 248.37 327.31 238.94 336.73 248.37 336.73 257.79 336.73 286.06 336.73 287.31 336.73 304.9 336.73 295.48 327.31"/><polygon class="cls-4" points="183.66 327.31 182.41 327.31 154.14 327.31 144.72 327.31 135.29 336.73 144.72 336.73 154.14 336.73 182.41 336.73 183.66 336.73 201.25 336.73 191.83 327.31 183.66 327.31"/><polygon class="cls-5" points="269.92 346.15 249.62 346.15 249.62 366.45 249.62 376.6 269.92 376.6 280.07 376.6 280.07 366.45 280.07 346.15 269.92 346.15"/><rect class="cls-6" x="264.3" y="348.8" width="10.15" height="10.15"/><polygon class="cls-5" points="173 346.15 152.71 346.15 152.71 366.45 152.71 376.6 173 376.6 183.15 376.6 183.15 366.45 183.15 346.15 173 346.15"/><rect class="cls-6" x="167.39" y="348.8" width="10.15" height="10.15"/><rect class="cls-7" x="169.33" y="508.43" width="101.52" height="50.55"/><polygon class="cls-7" points="341.87 344.97 341.87 355.69 334.7 355.69 334.7 374.78 334.7 393.87 334.7 393.87 334.7 407.76 334.7 407.76 334.7 426.61 343.28 426.61 343.28 410.24 351.91 410.24 351.91 393.87 359.26 393.87 359.26 374.78 359.26 355.69 359.26 344.97 341.87 344.97"/><polygon class="cls-7" points="89.95 346.15 80.94 346.15 80.94 355.57 80.94 355.57 80.94 374.69 80.94 374.69 80.94 393.8 88.56 393.8 88.56 410.24 96.81 410.24 96.81 426.61 105.49 426.61 105.49 410.24 105.49 407.76 105.49 383.85 105.49 383.84 107.85 383.85 107.85 374.69 107.85 355.57 89.95 355.57 89.95 346.15"/><polygon class="cls-7" points="201.25 416.82 205.96 416.82 205.96 402.69 210.67 402.69 210.67 336.73 201.25 336.73 201.25 402.69 196.54 402.69 196.54 416.82 191.83 416.82 191.83 435.67 201.25 435.67 201.25 416.82"/><rect class="cls-7" x="201.25" y="435.67" width="9.42" height="9.42"/><rect class="cls-7" x="210.67" y="435.67" width="9.42" height="9.42"/><polygon class="cls-8" points="187.32 468.64 187.32 475.73 195.5 475.73 195.5 483.91 244.62 483.91 244.62 475.73 252.81 475.73 252.81 468.64 187.32 468.64"/><rect class="cls-9" x="163.83" y="548.59" width="108.29" height="150.65"/><polygon class="cls-10" points="418.51 606.43 418.51 598.2 410.24 598.2 410.24 589.86 401.97 589.86 401.97 581.66 385.43 581.66 385.43 573.39 368.82 573.39 368.9 565.13 344.09 565.13 344.09 556.86 277.94 556.86 277.94 548.59 269.67 548.59 269.67 556.86 269.67 565.13 269.75 565.13 269.67 573.39 269.67 581.66 269.67 589.86 261.4 589.86 261.4 598.2 261.4 606.43 254.66 606.43 254.66 631.28 244.87 631.28 244.87 641.65 244.87 699.23 426.78 699.23 426.78 641.65 426.78 631.28 426.78 606.43 418.51 606.43"/><polygon class="cls-10" points="185.47 606.5 178.72 606.5 178.72 598.27 178.72 589.93 170.46 589.93 170.46 581.73 170.46 573.46 170.38 565.19 170.46 565.19 170.46 556.92 170.46 556.92 170.46 548.55 162.19 548.55 162.19 556.92 96.03 556.92 96.03 565.19 71.22 565.19 71.3 573.46 54.68 573.46 54.68 581.73 38.15 581.73 38.15 589.93 29.88 589.93 29.88 598.27 21.61 598.27 21.61 606.5 13.35 606.5 13.35 631.34 13.35 641.72 13.35 699.3 195.26 699.3 195.26 641.72 195.26 631.34 185.47 631.34 185.47 606.5"/><polygon class="cls-11" points="311.01 631.28 311.01 606.47 302.75 606.47 302.75 598.2 294.48 598.2 294.48 589.93 294.48 581.66 286.21 581.66 286.21 565.13 277.94 565.13 277.94 548.59 269.67 548.59 269.67 565.13 269.67 581.66 269.67 589.93 261.4 589.93 261.4 598.2 261.4 606.47 254.66 606.47 254.66 631.28 244.87 631.28 244.87 647.81 236.6 647.81 236.6 656.07 236.6 664.35 236.6 672.6 236.6 672.64 236.6 680.27 236.6 682.89 236.6 699.3 285.89 699.3 285.89 682.89 294.48 682.89 294.48 672.64 302.74 672.64 302.74 664.35 302.74 656.07 311.01 656.07 311.01 647.81 319.28 647.81 319.28 631.28 311.01 631.28"/><polygon class="cls-11" points="195.26 631.28 185.47 631.28 185.47 606.47 178.72 606.47 178.72 598.2 178.72 589.93 170.46 589.93 170.46 581.66 170.46 565.13 170.46 548.59 162.19 548.59 162.19 565.13 153.92 565.13 153.92 581.66 145.65 581.66 145.65 589.93 145.65 598.2 137.38 598.2 137.38 606.47 129.11 606.47 129.11 631.28 120.84 631.28 120.84 647.81 129.11 647.81 129.11 656.07 137.38 656.07 137.38 664.35 137.38 672.64 145.65 672.64 145.65 682.89 154.24 682.89 154.24 699.3 203.53 699.3 203.53 682.89 203.53 680.27 203.53 672.64 203.53 672.6 203.53 664.35 203.53 656.07 203.53 647.81 195.26 647.81 195.26 631.28"/><polygon points="487.91 377.85 487.91 377.85 487.91 377.85 487.99 377.47 485.09 376.84 484.8 376.77 484.66 377.05 478.04 391.05 474.25 377.47 473.88 377.58 473.88 377.58 474.25 377.47 474.17 377.19 473.88 377.19 470.71 377.19 470.19 377.19 470.34 377.69 470.71 377.58 470.71 377.58 470.34 377.69 475.77 396.61 476.14 396.5 476.14 396.5 475.77 396.61 475.85 396.89 476.14 396.89 479.31 396.89 479.55 396.89 479.66 396.66 479.31 396.5 479.31 396.5 479.66 396.66 488.26 378.01 487.91 377.85 487.91 377.85"/><polygon points="627.33 396.14 627.33 396.14 627.71 396.1 625.9 379.62 625.88 379.4 625.68 379.31 623.6 378.31 623.52 378.28 623.43 378.28 614.5 378.28 614.5 367.89 614.5 367.51 614.11 367.51 611.39 367.51 611.01 367.51 611.01 367.89 611.01 396.41 611.01 396.84 611.43 396.79 614.24 396.52 614.59 396.49 614.59 396.14 614.59 381.95 622.45 381.95 624.04 396.36 624.43 396.32 624.43 396.32 624.04 396.36 624.09 396.73 624.45 396.7 627.35 396.52 627.33 396.14 627.33 396.14"/><polygon points="487.91 377.85 488.26 378.01 488.46 377.58 487.99 377.47 487.91 377.85"/><path d="M429.24,396.05h0l.37-.14-11-29.69-.36.13h0l.36-.13-.09-.25H416l-.09.27.37.11h0l-.37-.11-9.33,29.51-.12.39.41.1L410,397l.36.08.1-.35,3.45-11.76h7.95L426,397l.37-.13h0l.1.37,2.9-.81.4-.11-.14-.4Zm-15.66-11.5Zm1.25-3.2,2.6-8.64,3.28,8.64Zm2.55-9.84Z"/><polygon points="667.7 387.81 667.4 387.51 667.13 387.84 667.43 388.08 667.7 387.81"/><polygon points="601.37 377.92 601.37 368.89 601.37 368.5 600.98 368.5 597.9 368.5 597.52 368.5 597.52 368.89 597.52 377.74 592.92 377.74 592.57 377.74 592.54 378.09 592.27 381.39 592.24 381.81 592.65 381.81 596.88 381.81 596.88 395.14 596.88 395.28 596.98 395.39 597.27 395.14 597.27 395.14 596.98 395.39 598.61 397.29 598.76 397.47 598.98 397.42 598.9 397.04 598.9 397.04 598.9 397.04 598.98 397.42 608.03 395.52 608.39 395.45 608.34 395.09 607.88 392.01 607.5 392.06 607.5 392.06 607.5 392.06 607.43 391.68 601.05 392.87 601.05 381.95 608.4 381.95 608.79 381.95 608.79 381.56 608.79 378.3 608.79 377.92 608.4 377.92 601.37 377.92"/><polygon points="671.41 391.43 667.7 387.81 667.43 388.08 667.43 388.08 667.43 388.08 667.43 388.08 667.13 387.84 664.6 390.91 664.9 391.16 664.9 391.16 664.9 391.16 664.62 391.43 668.42 395.32 668.7 395.05 668.7 395.05 668.42 395.32 668.74 395.65 669.01 395.28 671.46 391.93 671.65 391.66 671.41 391.43"/><polygon points="491.71 379.27 491.32 379.27 491.32 379.66 491.32 396.23 491.32 396.59 491.69 396.61 491.71 396.23 491.71 396.23 491.69 396.61 494.86 396.79 494.88 396.41 494.88 396.41 494.86 396.79 495.27 396.82 495.27 396.41 495.27 379.66 495.27 379.27 494.88 379.27 491.71 379.27"/><polygon points="664.6 390.91 664.38 391.18 664.62 391.43 664.9 391.16 664.6 390.91"/><polygon points="587.11 396.13 587.21 396.56 587.63 396.41 587.49 396.05 587.11 396.13"/><path d="M568.19,370.83a8.69,8.69,0,0,0-1.89-2.35h0a8.3,8.3,0,0,0-2.48-1.62,7.51,7.51,0,0,0-2.82-.57,6.33,6.33,0,0,0-2.73.63h0a6.25,6.25,0,0,0-2.41,1.92h0a7.44,7.44,0,0,0-.77,1.19l.34.18h0l0,0-.31-.16h0a9.17,9.17,0,0,0-.62,1.75,20.71,20.71,0,0,0-.46,2.58h0l.38,0h0l-.38,0c-.09,1-.14,2.25-.14,3.71h0c0,.21,0,.43,0,.65l-4.89-.08V380h0v-.38h-.39v4h5.52v12.09h3.45V383.76h10.27V380h-.38l-9.93-.18a41.33,41.33,0,0,1,.26-5h0a12.08,12.08,0,0,1,.78-3.06h0l-.23-.1,0,0,.28.12a2.5,2.5,0,0,1,1-1.3,3.11,3.11,0,0,1,1.41-.32,3.59,3.59,0,0,1,1.55.37l.17-.35h0l-.17.35h0a4.59,4.59,0,0,1,1.46,1h0a6.2,6.2,0,0,1,1.23,1.7l.34-.17h0l-.34.17v0a6.68,6.68,0,0,1,.77,2.27l.38-.07h0l-.38.06.1.59.5-.33,2.26-1.54-.22-.32h0l.21.32.19-.14,0-.23A8.32,8.32,0,0,0,568.19,370.83ZM566,368.75Zm-7.61-1.49h0l0-.06Zm-2.29,1.79,0,0h0Z"/><polygon points="425.98 396.99 426.1 397.33 426.45 397.23 426.35 396.86 425.98 396.99"/><polygon points="514.55 380.53 514.54 380.46 514.51 380.39 514.16 380.57 514.16 380.57 514.16 380.57 514.51 380.39 513.15 377.68 513.03 377.45 512.78 377.46 502.69 378.07 502.69 376.22 502.69 375.75 502.22 375.84 500.05 376.3 499.74 376.36 499.74 376.67 499.74 396.14 499.74 396.57 500.18 396.52 502.44 396.25 502.78 396.21 502.78 395.87 502.78 381.77 510.83 381.77 512.24 396.18 512.28 396.64 512.73 396.51 512.62 396.14 512.62 396.14 512.73 396.51 515.62 395.69 515.94 395.61 515.9 395.29 514.55 380.53"/><path d="M643.5,380h0a5.67,5.67,0,0,0-2.6-1.83h0a9.65,9.65,0,0,0-3.39-.56,8.64,8.64,0,0,0-2.73.46h0a6.78,6.78,0,0,0-2.63,1.53h0a7.92,7.92,0,0,0-1.91,2.85h0a10.87,10.87,0,0,0-.75,4.31,14,14,0,0,0,.79,5.07h0l.36-.14h0l-.36.14a8.8,8.8,0,0,0,2.13,3.26,7.9,7.9,0,0,0,3,1.76,10.71,10.71,0,0,0,3.29.52,11,11,0,0,0,2.25-.23h0a8.7,8.7,0,0,0,2-.56h0a6.71,6.71,0,0,0,1.58-.82,4.4,4.4,0,0,0,1.05-1l.11-.17-.07-.19-.36.14h0l.36-.14-.81-2.17-.36.14h0l.36-.13-.21-.54-.42.39a5.79,5.79,0,0,1-2.2,1.14,10.58,10.58,0,0,1-3.19.48,8.39,8.39,0,0,1-1.95-.22,5.43,5.43,0,0,1-1.74-.72,4.63,4.63,0,0,1-1.33-1.28,5.06,5.06,0,0,1-.54-1.62l12.16-1.18,0-.39h0l0,.39.35,0v-.35a19.4,19.4,0,0,0-.56-5A8,8,0,0,0,643.5,380Zm-1,5.78Zm-9.62.54a5.65,5.65,0,0,1,.3-1.82A4.38,4.38,0,0,1,634,383h0a4.92,4.92,0,0,1,1.42-1.17,4.87,4.87,0,0,1,2-.5h0a4.36,4.36,0,0,1,3.5,1.22h0l.24-.21h0l-.24.21a4.56,4.56,0,0,1,1.06,2.93l-9.21,1Zm4.64-5.37v-.06h0Zm-2.22.48Zm8-1.18h0l0,0Zm-2.45-1.72h0l0-.06Zm-5.88-.08Zm6,18.33Zm1.95-.55Z"/><path d="M467,380h0a7.36,7.36,0,0,0-2.72-2.38,8.69,8.69,0,0,0-4-.86,7.63,7.63,0,0,0-3.52.81h0a7.63,7.63,0,0,0-2.62,2.19A10.91,10.91,0,0,0,452.5,383h0a14.09,14.09,0,0,0-.56,4,14.76,14.76,0,0,0,.51,3.91l.38-.1h-.06l-.32.09h0a11.35,11.35,0,0,0,1.59,3.28h0l.28-.22h0l-.31.23a8.44,8.44,0,0,0,2.66,2.28l.18-.34,0,0-.16.3h0a7.9,7.9,0,0,0,3.76.86,8,8,0,0,0,3.07-.61h0a7.4,7.4,0,0,0,2.73-1.82,9.06,9.06,0,0,0,1.89-3.07h0a13,13,0,0,0,.84-4.38h0a17.33,17.33,0,0,0-.46-4.12A9.69,9.69,0,0,0,467,380Zm-10.4,1.77h0Zm-1.05,7.55Zm2.67,4h0l0,0Zm6.69-3.65a6.81,6.81,0,0,1-1,2h0a5.14,5.14,0,0,1-1.55,1.38,3.84,3.84,0,0,1-2,.54,3.33,3.33,0,0,1-1.91-.57h0A6.17,6.17,0,0,1,457,391.4a8.3,8.3,0,0,1-1-2.2h0a9.57,9.57,0,0,1-.35-2.52c0-2.23.47-3.75,1.3-4.67a4.75,4.75,0,0,1,3.66-1.42,4.18,4.18,0,0,1,3.41,1.54l.29-.25-.09.09-.2.16h0c.87,1,1.35,2.78,1.35,5.41a6.44,6.44,0,0,1-.38,2.13h0l.33.1,0,0h0Zm2.86,2.11h0l.06,0Z"/><path d="M587.69,382.65h0a11.46,11.46,0,0,0-.61-1.86h0a7.56,7.56,0,0,0-1.19-2.05,6.15,6.15,0,0,0-1.91-1.58h0a4.93,4.93,0,0,0-2.64-.69,8.15,8.15,0,0,0-4.42,1.19l.21.33h0l-.21-.33h0a10.66,10.66,0,0,0-3.06,3,13.25,13.25,0,0,0-1.81,4h0a15.25,15.25,0,0,0-.61,4.13,8.74,8.74,0,0,0,1.63,5.58l.3-.24h0l-.3.23h0a6,6,0,0,0,4.87,2,6.76,6.76,0,0,0,3.17-.72l-.18-.34,0,.07.14.27h0a8.57,8.57,0,0,0,2.42-1.9h0a10.84,10.84,0,0,0,1.68-2.57h0c.22-.44.41-.87.58-1.3l1.32,6.28.38-.08h0l.14.36,2.71-1,.32-.11-.07-.34ZM580.61,392l0,0,0,0Zm2.66-5h0a10.35,10.35,0,0,1-1.13,2.66,7.38,7.38,0,0,1-1.77,2h0a3.46,3.46,0,0,1-2.11.73,2.72,2.72,0,0,1-2.4-1.06,5.05,5.05,0,0,1-.79-3,11.67,11.67,0,0,1,.35-2.67,11.43,11.43,0,0,1,1.09-2.66,7,7,0,0,1,1.75-2,3.77,3.77,0,0,1,2.31-.78,2.82,2.82,0,0,1,.52,0l.06-.37v.06l0,.31h0a5.59,5.59,0,0,1,.56.12,2.87,2.87,0,0,1,1.5,1.43v0l.31-.17,0,0-.34.19a4.8,4.8,0,0,1,.54,2.35A9.55,9.55,0,0,1,583.27,387Zm-1.49-6.89v0h0Zm-5.6,2.74h0Zm9.68,5.48Zm-2.08-10.86h0l0-.05ZM584.87,391Z"/><polygon points="493.33 369.01 493.2 368.7 492.88 368.79 489.71 369.6 489.81 369.97 489.81 369.97 489.71 369.6 489.28 369.71 489.45 370.12 492.35 377 492.48 377.32 492.81 377.23 492.71 376.86 492.71 376.86 492.71 376.85 492.81 377.23 495.98 376.32 496.4 376.2 496.23 375.8 493.33 369.01"/><polygon points="607.88 392.01 607.83 391.61 607.43 391.68 607.5 392.06 607.88 392.01"/><path d="M532.25,378.88h0a7.46,7.46,0,0,0-4.09-1.14,11.9,11.9,0,0,0-4.12.74h0l.08.22.06.15h0l-.14-.37a11.93,11.93,0,0,0-3.55,2.11h0a10.19,10.19,0,0,0-2.59,3.19l.35.18h0l-.09,0-.26-.14h0a8.76,8.76,0,0,0-.95,4,7.49,7.49,0,0,0,1.93,5.52l.27-.27h0l-.26.28a6.87,6.87,0,0,0,4.92,1.87,11.5,11.5,0,0,0,4.41-.89h0l-.1-.24-.05-.11h0l.15.35a8.3,8.3,0,0,0,2.74-1.86l.16,6.85-1.65,1.42H516.9V405h14.5l.11-.12,3.17-3.44.1-.11v-18.9A5.58,5.58,0,0,0,532.25,378.88Zm-2.65,22.24Zm-3.31-10,0-.12-.09-.24h0a6,6,0,0,1-2.43.56,3.18,3.18,0,0,1-1.82-.53,2.65,2.65,0,0,1-1.06-1.75h0v0a3.42,3.42,0,0,1-.16-1.11,4.55,4.55,0,0,1,.71-2.46h0l-.28-.16-.06,0h0l.34.2a8.74,8.74,0,0,1,1.81-2.12h0a9.69,9.69,0,0,1,2.43-1.43h0l-.12-.27,0-.08.15.35a7.14,7.14,0,0,1,2.43-.6h0a2.94,2.94,0,0,1,2.25.95l.28-.26h0l0,0-.25.22h0a3.35,3.35,0,0,1,.94,2.45,4.42,4.42,0,0,1-.76,2.42l.3.19h0l-.29-.18h0a8.85,8.85,0,0,1-1.86,2.16h0a10.25,10.25,0,0,1-2.48,1.48l.14.36Zm2.58-1.54Zm2.45,1.81Zm-10.59-10.55Z"/><polygon points="662.35 378.94 662 379.12 662 379.12 662.35 378.94 662.15 378.55 661.78 378.8 652.65 384.94 652.07 376.83 651.68 376.86 651.68 376.86 652.07 376.83 652.03 376.42 651.63 376.47 648.82 376.83 648.87 377.22 648.87 377.22 648.82 376.83 648.46 376.88 648.49 377.25 650.03 397.17 650.06 397.56 650.46 397.52 650.41 397.13 650.41 397.13 650.46 397.52 652.81 397.25 652.77 396.86 652.77 396.86 652.81 397.25 653.15 397.21 653.15 396.86 653.15 389.45 663.49 381.96 663.76 381.77 663.61 381.48 662.35 378.94"/><polygon points="627.33 396.14 627.35 396.52 627.76 396.5 627.71 396.1 627.33 396.14"/><polygon points="518.87 393.33 518.88 393.34 519.14 393.06 518.87 393.33"/><polygon points="449.72 396.88 450.14 396.96 450.18 396.53 449.8 396.5 449.72 396.88"/><polygon points="447.47 392.21 447.47 366.17 447.47 365.76 447.06 365.78 447.08 366.17 447.08 366.17 447.06 365.78 444.07 365.97 444.09 366.35 444.09 366.35 444.07 365.97 443.7 365.99 443.7 366.35 443.7 393.69 443.7 393.77 443.73 393.83 444.09 393.69 444.09 393.69 443.73 393.83 444.46 395.65 444.81 395.5 444.81 395.5 444.46 395.65 444.54 395.84 444.74 395.88 449.72 396.88 449.79 396.5 449.8 396.5 449.8 396.5 450.18 396.53 450.45 393.27 450.48 392.94 450.16 392.87 447.47 392.21"/><path d="M411.85,471.05l19.8-19.8a3.51,3.51,0,0,0,.15-4.83,3.56,3.56,0,0,0-2.34-1.16A3.49,3.49,0,0,0,427,446l-.29.25-25.78,25.78a3.53,3.53,0,0,0-1,2.29,3.47,3.47,0,0,0,.77,2.39l.25.28,25.78,25.78a3.52,3.52,0,0,0,2.39,1,3.48,3.48,0,0,0,2.44-.89,3.51,3.51,0,0,0,1.16-2.33,3.55,3.55,0,0,0-.77-2.49l-.26-.29-19.79-19.79h25.19a53.4,53.4,0,0,0,25-5.88l1.16-.63A46.34,46.34,0,0,0,481,453.71a53,53,0,0,0,6.51-26.13,3.5,3.5,0,0,0-1-2.48,3.51,3.51,0,0,0-6,2.48,46.15,46.15,0,0,1-5.61,22.7,39.3,39.3,0,0,1-15.16,15.16,45.64,45.64,0,0,1-21.3,5.59l-1.39,0h-25.2l19.8-19.8Z"/></svg>