<svg width="194" height="200" viewBox="0 0 194 200" fill="none" xmlns="http://www.w3.org/2000/svg">
<g clip-path="url(#clip0_1274_470)">
<path d="M180.005 46.6586V53.328V59.9974H173.336H166.666V53.328V46.6586H173.336H180.005V39.9893H173.336H166.666H160.011H153.341V46.6586H146.672V53.328V59.9974V66.6668V73.3226H153.341V79.992H160.011H166.666H173.336H180.005V73.3226H186.675V66.6668V59.9974V53.328V46.6586H180.005Z" fill="#8FB2DE"/>
<path d="M126.678 113.325H120.008V119.995H126.678V113.325Z" fill="#6B5C53"/>
<path d="M173.336 46.6584H166.667V53.3278V59.9972H173.336H180.005V53.3278V46.6584H173.336Z" fill="white"/>
<path d="M113.339 126.664H106.669V133.333H113.339V126.664Z" fill="white"/>
<path d="M46.6723 126.664H40.0029V133.333H46.6723V126.664Z" fill="white"/>
<path d="M113.339 113.325V119.994H40.0028V113.325H33.3335V140.003H53.3416V126.664H100V140.003H120.008V113.325H113.339ZM46.6722 133.333H40.0028V126.664H46.6722V133.333ZM113.339 133.333H106.67V126.664H113.339V133.333Z" fill="#3F5E91"/>
<path d="M80.0053 146.658H73.3359H66.6666H60.0107V153.328V159.997H66.6666V166.667H73.3359H80.0053H86.6747V159.997H93.3441V153.328V146.658H86.6747H80.0053Z" fill="#3F5E91"/>
<path d="M126.678 133.333V126.664H120.008V140.003H100V126.664H53.3417V140.003H26.6777V166.667H33.3336V173.309H40.0029V179.965H60.011V173.309H93.3445V179.965H113.339V173.309H120.008V166.64H126.678V159.97H133.334V133.306L126.678 133.333ZM80.0734 166.667H66.7347V159.997H60.0789V146.659H93.4122V159.997H86.7429V166.667H80.0734Z" fill="#5078BB"/>
<path d="M120.008 113.325V106.669H113.339H106.669V113.325H113.339H120.008Z" fill="#5078BB"/>
<path d="M46.6722 113.325V106.669H40.0029H33.3335V113.325H40.0029H46.6722Z" fill="#5078BB"/>
<path d="M33.3336 113.325H26.6777V119.995H33.3336V113.325Z" fill="#6B5C53"/>
<path d="M133.333 186.661V179.992H126.678H120.008V186.661H126.678V193.331H120.008H113.339H106.669H100H93.3443H86.6749V186.661V179.992H80.0055H73.3362H66.6668V186.661V193.331H60.011H53.3416H46.6722H40.0028H33.3334H26.6776V186.661H33.3334V179.992H26.6776H20.0082V186.661H13.3389V193.331H20.0082V200H26.6776H33.3334H40.0028H46.6722H53.3416H60.011H66.6668H73.3362H80.0055H86.6749H93.3443H100H106.669H113.339H120.008H126.678H133.333V193.331H140.003V186.661H133.333Z" fill="#BDB5B3"/>
<path d="M153.342 93.3306H146.672V99.9999H140.003V106.669V113.325H133.334H126.678V119.995H120.008V126.664H126.678V133.333H133.334V126.664H140.003V119.995H146.672V113.325H153.342V106.669H160.011V99.9999V93.3306H153.342Z" fill="#B6A28D"/>
<path d="M126.678 106.669H120.008V113.325H126.678V106.669Z" fill="#B6A28D"/>
<path d="M93.344 106.669H86.6746H80.0052H73.3358H66.6665H60.0106H53.3413H46.6719V113.325V119.995H53.3413H60.0106H66.6665H73.3358H80.0052H86.6746H93.344H99.9998H106.669V113.325V106.669H99.9998H93.344Z" fill="#B6A28D"/>
<path d="M33.3336 106.669H26.6777V113.325H33.3336V106.669Z" fill="#B6A28D"/>
<path d="M20.0082 119.995V126.664V133.333H13.3388V140.003H6.66943V146.659H13.3388H20.0082V140.003H26.6776V133.333V126.664H33.3334V119.995H26.6776H20.0082Z" fill="#B6A28D"/>
<path d="M186.675 46.6584V53.3278V59.9972V66.6666V73.3224H193.344V66.6666V59.9972V53.3278V46.6584H186.675Z" fill="#312A1D"/>
<path d="M186.675 73.3225H180.005V79.9919H186.675V73.3225Z" fill="#312A1D"/>
<path d="M186.675 39.9893H180.005V46.6586H186.675V39.9893Z" fill="#312A1D"/>
<path d="M166.667 79.9919H160.011H153.342V86.6613H146.672V93.3307H153.342H160.011V100V106.669H153.342V113.325H146.672V119.995H140.003V126.664H133.333V133.333V140.003V146.659V153.328V159.997H140.003V153.328V146.659V140.003V133.333H146.672V126.664H153.342V119.995H160.011V113.325H166.667V119.995V126.664H173.336V119.995V113.325V106.669V100V93.3307V86.6613H180.006V79.9919H173.336H166.667Z" fill="#312A1D"/>
<path d="M166.666 39.9891H173.336H180.005V33.3333H173.336H166.666H160.011H153.341V39.9891H160.011H166.666Z" fill="#312A1D"/>
<path d="M153.341 73.3225H146.672V79.9919H153.341V73.3225Z" fill="#312A1D"/>
<path d="M153.341 39.9893H146.672V46.6586H153.341V39.9893Z" fill="#312A1D"/>
<path d="M146.672 93.3306H140.003V100H146.672V93.3306Z" fill="#312A1D"/>
<path d="M146.672 59.9972V53.3278V46.6584H140.003V53.3278V59.9972V66.6666V73.3224H146.672V66.6666V59.9972Z" fill="#312A1D"/>
<path d="M133.334 106.669H126.678V113.325H133.334H140.003V106.669V100H133.334V106.669Z" fill="#312A1D"/>
<path d="M126.678 166.667H120.008V173.336H113.339V179.992H106.669H100H93.3442V173.336H86.6748H80.0054H73.336H66.6667H60.0109V179.992H53.3415H46.6721H40.0027V173.336H33.3333V166.667H26.6775V159.997V153.328V146.659V140.003H20.0081V146.659H13.3388H6.66938V140.003H0V146.659V153.328H6.66938H13.3388V159.997H20.0081V166.667V173.336H26.6775V179.992H33.3333V186.661H26.6775V193.331H33.3333H40.0027H46.6721H53.3415H60.0109H66.6667V186.661V179.992H73.336H80.0054H86.6748V186.661V193.331H93.3442H100H106.669H113.339H120.008H126.678V186.661H120.008V179.992H126.678V173.336H133.333V166.667V159.997H126.678V166.667Z" fill="#312A1D"/>
<path d="M113.339 113.325H106.669V119.995H113.339V113.325Z" fill="#312A1D"/>
<path d="M46.6723 113.325H40.0029V119.995H46.6723V113.325Z" fill="#312A1D"/>
<path d="M33.3336 133.333V126.664H26.6777V133.333V140.003H33.3336V133.333Z" fill="#312A1D"/>
<path d="M26.6777 113.325H20.0083V119.995H26.6777V113.325Z" fill="#312A1D"/>
<path d="M13.3388 133.333H20.0082V126.664V119.995H13.3388V126.664H6.66943V133.333V140.003H13.3388V133.333Z" fill="#312A1D"/>
<path d="M128.291 21.9602H25.0508V113.325H128.291V21.9602Z" fill="#B6A28D"/>
<path d="M43.2425 98.1023H25.0508V104.229H43.2425V98.1023Z" fill="#6B5C53"/>
<path d="M128.291 98.1023H110.099V104.229H128.291V98.1023Z" fill="#6B5C53"/>
<path d="M110.086 107.198H43.2427V113.325H110.086V107.198Z" fill="#6B5C53"/>
<path d="M101.003 21.9602H52.3521V30.8798H101.003V21.9602Z" fill="#312A1D"/>
<path d="M119.195 49.4511H128.291V21.9603V13.0542H119.195H100.99V21.9603H119.195V49.4511Z" fill="#312A1D"/>
<path d="M137.386 49.4509H128.291V104.229H137.386V49.4509Z" fill="#312A1D"/>
<path d="M34.1466 21.9603H52.3519V13.0542H34.1466H25.0508V21.9603V49.4511H34.1466V21.9603Z" fill="#312A1D"/>
<path d="M34.1466 104.229H25.0508V113.325H34.1466H43.2425V104.229H34.1466Z" fill="#312A1D"/>
<path d="M110.086 113.325H43.2427V122.421H110.086V113.325Z" fill="#312A1D"/>
<path d="M110.099 104.229V113.325H119.195H128.291V104.229H119.195H110.099Z" fill="#312A1D"/>
<path d="M25.0509 49.4509H15.9551V104.229H25.0509V49.4509Z" fill="#312A1D"/>
<path d="M110.099 25.1187H107.13V31.2458H110.099V34.228H116.226V31.2458V25.1187H110.099Z" fill="#6B5C53"/>
<path d="M46.401 25.1187H43.4323H37.3052V31.2458V34.228H43.4323V31.2458H46.401V25.1187Z" fill="#6B5C53"/>
<path d="M61.6377 64.6741H52.3521V73.9597H61.6377V64.6741Z" fill="#312A1D"/>
<path d="M70.5437 73.7698H64.4165V79.8969H70.5437V73.7698Z" fill="#312A1D"/>
<path d="M88.925 73.7698H82.7979V79.8969H88.925V73.7698Z" fill="#312A1D"/>
<path d="M88.9248 91.975H82.7977V89.0064H70.5434V91.975H64.4162V79.897H58.2891V101.071H64.4162V104.229H70.5434V107.198H73.5121V110.167H79.6392V107.198H82.7977V104.229H88.9248V101.071H95.052V79.897H88.9248V91.975Z" fill="#312A1D"/>
<path d="M101.003 64.6741H91.7173V73.9597H101.003V64.6741Z" fill="#312A1D"/>
<path d="M120.008 39.9893H113.339H106.67H100H93.3444H86.675H80.0057H73.3363H66.6669H60.0111H53.3417H46.6723H40.0029H33.3336H26.6777V46.6586H33.3336H40.0029H46.6723H53.3417H60.0111H66.6669H73.3363H80.0057H86.675H93.3444H100H106.67H113.339H120.008H126.678V39.9893H120.008Z" fill="#7B5A1B"/>
<path d="M140.003 46.6587V39.9891H133.333V33.3334H126.678V26.6641H120.008V19.9945H113.339V13.3524H106.669V6.68313H86.6749V0.0270996H66.6667V6.68313H46.6722V13.3524H40.0027V20.0217H33.3335V26.6913H26.6776V33.3606H20.0081V40.0163H13.3389V46.6859H6.66943V53.3551H20.0081V100.027H26.6776V53.3551H126.678V100.027H133.333V53.3551H146.672V46.6859L140.003 46.6587ZM120.008 46.6587H26.6776V39.9891H126.678V46.6587H120.008Z" fill="#9E803D"/>
<path d="M126.678 100H120.008V106.669H126.678V100Z" fill="#9E803D"/>
<path d="M120.008 106.669H113.339V113.325H120.008V106.669Z" fill="#9E803D"/>
<path d="M100 113.325H93.3444H86.675H80.0056H73.3363H66.6669H60.0111H53.3417H46.6723H40.0029V119.995H46.6723H53.3417H60.0111H66.6669H73.3363H80.0056H86.675H93.3444H100H106.67H113.339V113.325H106.67H100Z" fill="#9E803D"/>
<path d="M40.0029 106.669H33.3335V113.325H40.0029V106.669Z" fill="#9E803D"/>
<path d="M33.3336 100H26.6777V106.669H33.3336V100Z" fill="#9E803D"/>
</g>
<defs>
<clipPath id="clip0_1274_470">
<rect width="193.344" height="200" fill="white"/>
</clipPath>
</defs>
</svg>
