<svg width="54" height="53" viewBox="0 0 54 53" fill="none" xmlns="http://www.w3.org/2000/svg">
<rect x="0.920898" y="0.626465" width="52.1077" height="52.1077" fill="white"/>
<rect x="50.1338" y="0.626465" width="2.89487" height="2.89487" fill="#E5BB25"/>
<rect x="0.920898" y="0.626465" width="2.89487" height="2.89487" fill="#E5BB25"/>
<rect x="0.920898" y="49.8394" width="2.89487" height="2.89487" fill="#E5BB25"/>
<rect x="50.1333" y="49.8394" width="2.89487" height="2.89487" fill="#E5BB25"/>
<path d="M37.1456 17.0216C35.2079 16.1338 33.1308 15.4777 30.9589 15.1046C30.9395 15.1009 30.9195 15.1033 30.9016 15.1116C30.8836 15.1199 30.8687 15.1336 30.8588 15.1509C30.5928 15.6257 30.2965 16.2445 30.0888 16.7334C27.7852 16.3837 25.4432 16.3837 23.1397 16.7334C22.9083 16.1916 22.6474 15.6633 22.3582 15.1509C22.3484 15.1334 22.3336 15.1194 22.3157 15.1106C22.2979 15.1019 22.2778 15.0989 22.2582 15.1021C20.0875 15.4751 18.0105 16.1313 16.0715 17.0203C16.0548 17.0274 16.0407 17.0395 16.031 17.055C12.0897 22.9409 11.0094 28.6813 11.5401 34.3498C11.5415 34.3637 11.5458 34.3771 11.5525 34.3893C11.5593 34.4014 11.5684 34.4121 11.5793 34.4205C13.8797 36.1219 16.4455 37.4179 19.1693 38.2544C19.1883 38.2603 19.2086 38.2603 19.2275 38.2543C19.2465 38.2484 19.2633 38.2367 19.2757 38.2209C19.8608 37.4233 20.3826 36.5806 20.8284 35.6955C20.8549 35.644 20.8296 35.5823 20.7764 35.5617C19.9583 35.2487 19.1656 34.871 18.4056 34.4321C18.3919 34.4242 18.3804 34.413 18.3721 34.3994C18.3638 34.3859 18.3589 34.3704 18.3579 34.3545C18.3569 34.3385 18.3598 34.3226 18.3663 34.3081C18.3729 34.2936 18.3829 34.2809 18.3955 34.2713C18.555 34.1516 18.7146 34.0269 18.8666 33.9021C18.8803 33.8908 18.8967 33.8837 18.9142 33.8814C18.9316 33.8792 18.9493 33.8818 18.9654 33.8892C23.9388 36.1586 29.3251 36.1586 34.2403 33.8892C34.2563 33.8814 34.2742 33.8784 34.2919 33.8804C34.3096 33.8825 34.3264 33.8895 34.3403 33.9008C34.4923 34.0269 34.6506 34.1516 34.8115 34.2713C34.8241 34.2807 34.8343 34.2932 34.8411 34.3076C34.8478 34.322 34.851 34.3378 34.8502 34.3538C34.8495 34.3697 34.8448 34.3852 34.8368 34.3989C34.8287 34.4125 34.8174 34.424 34.8039 34.4321C34.0465 34.8747 33.2588 35.2491 32.4318 35.5604C32.4191 35.5651 32.4075 35.5725 32.3978 35.582C32.3881 35.5916 32.3806 35.6032 32.3757 35.616C32.3708 35.6288 32.3686 35.6425 32.3693 35.6562C32.37 35.6699 32.3736 35.6833 32.3798 35.6955C32.8358 36.5793 33.3575 37.4207 33.9313 38.2196C33.9432 38.236 33.9598 38.2483 33.9788 38.2547C33.9979 38.2612 34.0184 38.2615 34.0376 38.2557C36.7661 37.4215 39.3361 36.1249 41.639 34.4205C41.6502 34.4126 41.6597 34.4022 41.6667 34.3902C41.6736 34.3783 41.678 34.3649 41.6795 34.3511C42.3128 27.7975 40.6182 22.1033 37.1848 17.0576C37.1764 17.0412 37.1625 17.0284 37.1456 17.0216ZM21.5718 30.898C20.0748 30.898 18.84 29.5227 18.84 27.8361C18.84 26.1482 20.0507 24.7742 21.5718 24.7742C23.1042 24.7742 24.3276 26.1597 24.3035 27.8361C24.3035 29.524 23.0928 30.898 21.5718 30.898ZM31.6719 30.898C30.1736 30.898 28.9401 29.5227 28.9401 27.8361C28.9401 26.1482 30.1496 24.7742 31.6719 24.7742C33.2043 24.7742 34.4277 26.1597 34.4037 27.8361C34.4037 29.524 33.2056 30.898 31.6719 30.898Z" fill="#E9C03C"/>
</svg>
