<svg id="Layer_1" data-name="Layer 1" xmlns="http://www.w3.org/2000/svg" viewBox="0 0 685 700">
  <defs>
    <style>.cls-1{stroke:#000;stroke-width:0.95px;}.cls-1,.cls-10{stroke-miterlimit:10;}.cls-2{fill:#17e521;}.cls-3{fill:#32ff44;}.cls-4{fill:#37adb8;}.cls-5{fill:#3bccff;}.cls-6{fill:#efeeee;}.cls-7{fill:#124a67;}.cls-8{fill:#b3fff9;}.cls-9{fill:#0a1115;}.cls-10{fill:#d7d8d8;stroke:#d7d8d8;stroke-width:0.2px;}</style>
  </defs>
  <path d="M411.85,471.05l19.8-19.8a3.51,3.51,0,0,0,.15-4.83,3.56,3.56,0,0,0-2.34-1.16A3.49,3.49,0,0,0,427,446l-.29.25-25.78,25.78a3.53,3.53,0,0,0-1,2.29,3.47,3.47,0,0,0,.77,2.39l.25.28,25.78,25.78a3.52,3.52,0,0,0,2.39,1,3.48,3.48,0,0,0,2.44-.89,3.51,3.51,0,0,0,1.16-2.33,3.55,3.55,0,0,0-.77-2.49l-.26-.29-19.79-19.79h25.19a53.4,53.4,0,0,0,25-5.88l1.16-.63A46.34,46.34,0,0,0,481,453.71a53,53,0,0,0,6.51-26.13,3.5,3.5,0,0,0-1-2.48,3.51,3.51,0,0,0-6,2.48,46.15,46.15,0,0,1-5.61,22.7,39.3,39.3,0,0,1-15.16,15.16,45.64,45.64,0,0,1-21.3,5.59l-1.39,0h-25.2l19.8-19.8Z" />
  <path class="cls-1" d="M377.55,409.05l-6.17-29.92H375l4.37,24.41L384.1,381l4.18.29L393,402.4l6.17-24.22,3.23.29L394.55,410h-3.32L386,386.73l-4.84,22.32Z" />
  <path class="cls-1" d="M410.79,388.34l-3.33,1-3-7.22,3.33-.86Zm-4.37,21.28V392.24h3.32V409.8Z" />
  <path class="cls-1" d="M414.3,407V378.28l3.13-.19v27.63l3.14.76-.29,3.42-5.22-1Z" />
  <path class="cls-1" d="M440.22,377.14v30.58L439,409.24a20.68,20.68,0,0,1-2.95.66,18.44,18.44,0,0,1-2.61.19,11.65,11.65,0,0,1-4.86-.9,8.82,8.82,0,0,1-3.21-2.38,9.33,9.33,0,0,1-1.78-3.27,12.67,12.67,0,0,1-.54-3.66,10.94,10.94,0,0,1,.8-4.44,8.69,8.69,0,0,1,2.12-3,8.13,8.13,0,0,1,2.94-1.73,10.73,10.73,0,0,1,8.38.68l-.1-14.33Zm-3.13,18.42a7.67,7.67,0,0,0-2.37-1.49,7,7,0,0,0-2.62-.5,6.12,6.12,0,0,0-2.2.4,5.42,5.42,0,0,0-1.88,1.19,5.85,5.85,0,0,0-1.3,1.94,6.8,6.8,0,0,0-.5,2.74,7.05,7.05,0,0,0,.61,3.08,5.81,5.81,0,0,0,1.64,2.09,7,7,0,0,0,2.38,1.21,9.76,9.76,0,0,0,2.82.4,7.87,7.87,0,0,0,3.42-.71Z" />
  <path class="cls-1" d="M473.27,395.47l3,12.91-2.85,1-1.71-8.07a14.15,14.15,0,0,1-1,2.76A11.63,11.63,0,0,1,469,406.7a8.46,8.46,0,0,1-2.42,1.89,6.61,6.61,0,0,1-3.16.74,5.77,5.77,0,0,1-4.77-2,8.55,8.55,0,0,1-1.64-5.58,15.89,15.89,0,0,1,.62-4.25,13.35,13.35,0,0,1,1.85-4,10.56,10.56,0,0,1,3.11-3A8,8,0,0,1,467,389.3a5.1,5.1,0,0,1,2.59.64,6.28,6.28,0,0,1,1.87,1.59,7.66,7.66,0,0,1,1.19,2A14.08,14.08,0,0,1,473.27,395.47Zm-5.8-2.76a5.27,5.27,0,0,0-.64-.14,4.37,4.37,0,0,0-.64-.05,4.27,4.27,0,0,0-2.63.88,7.43,7.43,0,0,0-1.95,2.21,11.27,11.27,0,0,0-1.19,2.9,12.06,12.06,0,0,0-.4,2.89,5.72,5.72,0,0,0,.9,3.37,3.23,3.23,0,0,0,2.85,1.28,4,4,0,0,0,2.47-.87,8.18,8.18,0,0,0,1.95-2.21,12.56,12.56,0,0,0,1.26-2.92,11.34,11.34,0,0,0,.45-3,5.75,5.75,0,0,0-.6-2.68A3.48,3.48,0,0,0,467.47,392.71Z" />
  <path class="cls-1" d="M492.83,394h-9.21v15.2l-2.38.28V389.1l2.28-.47V391l11-.66,1.42,2.85,1.43,15.48-3,.85Z" />
  <path class="cls-1" d="M505.55,388.34l-3.32,1-3-7.22,3.32-.86Zm-4.37,21.28V392.24h3.33V409.8Z" />
  <path class="cls-1" d="M508.59,389.58l2.94-.66.24,2.08H529.2l2.18,2.47v14.82l-2,.28V396l-1.9-2.57h-4.85V409h-2.75v-15.1H512.1l1.62,15.57-3,.38Z" />
  <path class="cls-1" d="M552.46,395.47l3,12.91-2.85,1-1.71-8.07a14.15,14.15,0,0,1-1,2.76,11.63,11.63,0,0,1-1.71,2.59,8.46,8.46,0,0,1-2.42,1.89,6.61,6.61,0,0,1-3.16.74,5.77,5.77,0,0,1-4.77-2,8.61,8.61,0,0,1-1.64-5.58,15.89,15.89,0,0,1,.62-4.25,13.6,13.6,0,0,1,1.85-4,10.56,10.56,0,0,1,3.11-3,8,8,0,0,1,4.39-1.18,5.08,5.08,0,0,1,2.59.64,6.44,6.44,0,0,1,1.88,1.59,7.91,7.91,0,0,1,1.18,2A12.82,12.82,0,0,1,552.46,395.47Zm-5.79-2.76a5.71,5.71,0,0,0-.64-.14,4.51,4.51,0,0,0-.65-.05,4.29,4.29,0,0,0-2.63.88,7.57,7.57,0,0,0-2,2.21,10.91,10.91,0,0,0-1.18,2.9,11.62,11.62,0,0,0-.41,2.89,5.65,5.65,0,0,0,.91,3.37,3.22,3.22,0,0,0,2.84,1.28,4,4,0,0,0,2.47-.87,8.18,8.18,0,0,0,2-2.21,11.77,11.77,0,0,0,1.26-2.92,10.94,10.94,0,0,0,.45-3,5.75,5.75,0,0,0-.6-2.68A3.5,3.5,0,0,0,546.67,392.71Z" />
  <path class="cls-1" d="M559.49,407V378.28l3.13-.19v27.63l3.13.76-.28,3.42-5.23-1Z" />
  <path class="cls-1" d="M581.61,407V378.28l3.13-.19v27.63l3.14.76-.29,3.42-5.22-1Z" />
  <path class="cls-1" d="M598.61,389.58a8.73,8.73,0,0,1,4,.85,7.43,7.43,0,0,1,2.71,2.35,10.41,10.41,0,0,1,1.52,3.47,18.45,18.45,0,0,1,.47,4.25,13.45,13.45,0,0,1-.83,4.44,9.33,9.33,0,0,1-1.92,3.11,7.72,7.72,0,0,1-2.68,1.83,8.5,8.5,0,0,1-3.11.59,7.56,7.56,0,0,1-6.39-3.16A10.36,10.36,0,0,1,590.8,404a13.9,13.9,0,0,1-.55-4,14.21,14.21,0,0,1,.59-4.15,10.46,10.46,0,0,1,1.67-3.32,7.43,7.43,0,0,1,2.61-2.19A7.63,7.63,0,0,1,598.61,389.58Zm.28,3.23a5.35,5.35,0,0,0-4.11,1.61c-1,1.08-1.49,2.8-1.49,5.18a9.83,9.83,0,0,0,.38,2.73,8.73,8.73,0,0,0,1.09,2.44,6.47,6.47,0,0,0,1.71,1.78,3.82,3.82,0,0,0,2.23.69,4.42,4.42,0,0,0,2.33-.62,5.78,5.78,0,0,0,1.75-1.59,7.75,7.75,0,0,0,1.12-2.18,7.39,7.39,0,0,0,.4-2.35c0-2.79-.49-4.76-1.49-5.94A4.9,4.9,0,0,0,598.89,392.81Z" />
  <path class="cls-1" d="M615.22,409.9l-5.69-19.85h3.32l4.27,15.29,7.41-15.67,3,.67-9,19.56Z" />
  <path class="cls-1" d="M630.32,399.74a11.14,11.14,0,0,1,.76-4.39A8.2,8.2,0,0,1,633,392.5a6.92,6.92,0,0,1,2.59-1.52,9.15,9.15,0,0,1,2.76-.45,9.88,9.88,0,0,1,3.41.55,5.91,5.91,0,0,1,2.59,1.8,8.6,8.6,0,0,1,1.64,3.35,19.72,19.72,0,0,1,.57,5.12l-13.2,1.29a5,5,0,0,0,.74,2.25,4.74,4.74,0,0,0,1.49,1.5,6,6,0,0,0,1.95.8,9.46,9.46,0,0,0,2.13.24,11.44,11.44,0,0,0,3.47-.52,6.51,6.51,0,0,0,2.47-1.28l.85,2.28a4.32,4.32,0,0,1-1,.95,8,8,0,0,1-1.57.83,12,12,0,0,1-4.32.78,10.9,10.9,0,0,1-3.32-.52,7.9,7.9,0,0,1-3-1.76,8.81,8.81,0,0,1-2.13-3.3A14.2,14.2,0,0,1,630.32,399.74Zm2.75.1,10.45-1.14a5.43,5.43,0,0,0-1.23-3.73,5.1,5.1,0,0,0-4-1.4,5.18,5.18,0,0,0-2.31.57,5.67,5.67,0,0,0-1.63,1.3,5.21,5.21,0,0,0-1,1.78,6.5,6.5,0,0,0-.33,2A2.83,2.83,0,0,0,633.07,399.84Z" />
  <path class="cls-1" d="M651.88,410.56l-1.62-20.89,2.94-.37.67,9.21L664,391.67l1.33,2.66-11,8v8Z" />
  <path class="cls-1" d="M673.62,404.87l-2.56,3.51-4-4.08,2.66-3.23Z" />
  <polygon class="cls-2" points="62.59 659.28 46.17 659.28 46.17 640.27 46.17 639.63 46.17 630.44 46.17 619.98 46.17 610.79 46.17 610.15 46.17 600.94 46.23 600.94 46.23 592.07 37.34 592.07 37.34 600.32 29.09 600.32 29.09 610.15 20.85 610.15 20.85 619.98 12.67 619.98 12.67 639.63 12.67 640.27 12.67 659.28 7.75 659.28 7.75 678.94 7.75 679.58 7.75 699.23 29.09 699.23 29.75 699.23 45.52 699.23 46.17 699.23 61.94 699.23 62.59 699.23 79.02 699.23 79.02 678.94 62.59 678.94 62.59 659.28" />
  <rect class="cls-2" x="61.94" y="575.61" width="41.75" height="8.9" />
  <polygon class="cls-3" points="423.92 640.27 423.92 639.63 423.92 619.98 415.74 619.98 415.74 610.15 407.5 610.15 407.5 600.32 399.32 600.32 399.32 592.07 391.07 592.07 391.07 583.86 374.65 583.86 374.65 575.62 333.65 575.62 333.65 567.43 325.38 567.43 324.72 567.43 308.95 567.43 308.3 567.43 292.53 567.43 291.88 567.43 275.45 567.43 275.45 578.36 259.03 578.36 259.03 583.86 243.25 583.86 242.6 583.86 226.84 583.86 226.18 583.86 210.41 583.86 209.75 583.86 193.99 583.86 193.34 583.86 177.56 583.86 177.56 578.36 161.14 578.36 161.14 567.43 144.72 567.43 144.06 567.43 128.29 567.43 127.64 567.43 111.87 567.43 111.21 567.43 102.97 567.43 102.97 583.86 95.44 583.86 94.79 583.86 79.02 583.86 78.36 583.86 62.59 583.86 61.94 583.86 45.52 583.86 45.52 600.32 45.52 600.94 45.52 619.98 45.52 620.62 45.52 639.63 45.52 640.27 45.52 659.92 61.94 659.92 61.94 679.58 78.36 679.58 78.36 699.23 94.79 699.23 95.44 699.23 111.21 699.23 111.87 699.23 127.64 699.23 128.29 699.23 144.06 699.23 144.72 699.23 160.49 699.23 161.14 699.23 176.91 699.23 177.56 699.23 193.34 699.23 193.99 699.23 209.75 699.23 210.41 699.23 226.18 699.23 226.84 699.23 242.6 699.23 243.25 699.23 259.03 699.23 259.68 699.23 275.45 699.23 276.1 699.23 291.88 699.23 292.53 699.23 308.3 699.23 308.95 699.23 324.72 699.23 325.38 699.23 341.15 699.23 341.8 699.23 357.57 699.23 358.23 699.23 374 699.23 374.65 699.23 390.42 699.23 391.07 699.23 406.85 699.23 407.5 699.23 428.21 699.23 428.21 679.58 428.21 678.94 428.21 659.28 423.92 659.28 423.92 640.27" />
  <polygon class="cls-3" points="79.02 371 79.02 370.35 79.02 354.58 95.44 354.58 95.44 338.15 111.87 338.15 111.87 321.73 128.29 321.73 128.29 305.31 144.06 305.31 144.72 305.31 160.49 305.31 161.14 305.31 176.91 305.31 177.56 305.31 193.34 305.31 193.99 305.31 209.75 305.31 210.41 305.31 226.84 305.31 226.84 297.13 242.6 297.13 243.25 297.13 259.68 297.13 259.68 288.95 275.45 288.95 276.1 288.95 291.88 288.95 291.88 297.09 308.3 297.09 308.3 304.65 308.3 305.31 308.3 321.73 324.72 321.73 324.72 338.15 341.15 338.15 341.15 354.58 357.57 354.58 357.57 370.35 357.57 371 357.57 387.43 366.47 387.43 366.47 371 366.47 370.35 366.47 354.58 366.47 353.93 366.47 338.15 366.47 337.5 366.47 321.73 366.47 321.08 366.47 305.31 366.47 304.65 366.47 288.88 366.47 288.23 366.47 272.46 366.47 271.8 366.47 255.38 358.29 255.38 358.29 239.61 358.29 238.96 358.29 222.53 350.05 222.53 350.05 206.11 341.87 206.11 341.87 189.68 325.44 189.68 325.44 173.26 303.94 173.26 300.05 173.26 292.63 173.26 292.63 156.77 253.42 156.77 252.76 156.77 236.99 156.77 236.34 156.77 220.57 156.77 219.91 156.77 203.49 156.77 203.49 165.04 176.94 165.04 176.94 173.37 176.91 173.37 159.69 173.37 159.69 173.19 141.03 173.19 141.03 189.68 127.64 189.68 127.64 197.86 111.21 197.86 111.21 214.29 94.79 214.29 94.79 230.71 78.36 230.71 78.36 255.38 70.12 255.38 70.12 271.8 70.12 272.46 70.12 288.23 70.12 288.88 70.12 304.65 70.12 305.31 70.12 321.08 70.12 321.73 70.12 337.5 70.12 338.15 70.12 353.93 70.12 354.58 70.12 370.35 70.12 371 70.12 387.43 79.02 387.43 79.02 371" />
  <polygon class="cls-4" points="209.75 551.01 193.99 551.01 193.99 534.59 177.56 534.59 177.56 526.34 160.49 526.34 160.49 551.01 160.49 551.66 160.49 567.43 160.49 568.09 160.49 579.07 176.91 579.07 176.91 584.58 193.34 584.58 193.99 584.58 209.75 584.58 210.41 584.58 226.84 584.58 226.84 568.09 226.84 567.43 226.84 551.01 210.41 551.01 209.75 551.01" />
  <polygon class="cls-5" points="341.15 419.62 341.15 420.28 341.15 436.04 324.72 436.04 324.72 452.46 316.48 452.46 316.48 468.89 308.3 468.89 308.3 485.31 300.05 485.31 300.05 501.74 291.94 501.74 291.94 501.74 291.88 501.74 291.88 518.82 300.77 518.82 300.77 510.63 309.02 510.63 309.02 502.39 325.38 502.39 325.38 485.97 325.38 485.31 325.38 469.54 341.8 469.54 341.8 453.12 341.8 452.46 341.8 436.69 358.23 436.69 358.23 420.28 358.23 419.62 358.23 403.19 341.15 403.19 341.15 419.62" />
  <polygon class="cls-5" points="259.03 534.59 243.25 534.59 242.6 534.59 226.84 534.59 226.18 534.59 210.41 534.59 209.75 534.59 193.34 534.59 193.34 551.66 209.75 551.66 210.41 551.66 226.18 551.66 226.18 567.43 226.18 568.09 226.18 584.58 242.6 584.58 243.25 584.58 259.75 584.58 259.75 579.07 276.1 579.07 276.1 568.09 276.1 567.43 276.1 551.66 276.1 551.01 276.1 526.34 259.03 526.34 259.03 534.59" />
  <polygon class="cls-5" points="292.53 305.31 308.95 305.31 308.95 296.41 292.53 296.41 292.53 288.16 276.1 288.16 275.45 288.16 259.03 288.16 259.03 296.41 243.29 296.41 242.6 296.41 226.21 296.41 226.21 305.31 242.6 305.31 243.29 305.31 259.03 305.31 259.68 305.31 275.45 305.31 276.1 305.31 291.88 305.31 292.53 305.31" />
  <polygon class="cls-5" points="136.54 485.31 128.29 485.31 128.29 468.89 120.11 468.89 120.11 452.46 111.87 452.46 111.87 436.04 95.44 436.04 95.44 420.28 95.44 419.62 95.44 403.19 78.36 403.19 78.36 419.62 78.36 420.28 78.36 436.69 94.79 436.69 94.79 452.46 94.79 453.12 94.79 469.54 111.21 469.54 111.21 485.31 111.21 485.97 111.21 502.39 127.64 502.39 128.29 502.39 135.82 502.39 135.82 518.82 144.72 518.82 144.72 501.74 136.54 501.74 136.54 485.31" />
  <polygon class="cls-6" points="317.2 452.46 292.53 452.46 291.88 452.46 276.1 452.46 275.45 452.46 259.68 452.46 259.03 452.46 243.25 452.46 243.25 436.04 226.84 436.04 226.18 436.04 210.41 436.04 209.75 436.04 193.34 436.04 193.34 452.46 177.56 452.46 176.91 452.46 161.14 452.46 160.49 452.46 144.72 452.46 144.06 452.46 119.39 452.46 119.39 469.54 127.64 469.54 127.64 485.97 135.82 485.97 135.82 502.39 144.06 502.39 144.06 518.82 152.24 518.82 152.24 527.06 168.67 527.06 168.67 535.24 193.34 535.24 193.99 535.24 209.75 535.24 210.41 535.24 226.18 535.24 226.84 535.24 242.6 535.24 243.25 535.24 267.93 535.24 267.93 527.06 284.35 527.06 284.35 518.82 292.53 518.82 292.53 502.39 300.77 502.39 300.77 485.97 308.95 485.97 308.95 469.54 317.2 469.54 317.2 452.46" />
  <rect class="cls-7" x="204.91" y="510.28" width="9.16" height="4.58" />
  <rect class="cls-7" x="228.79" y="510.28" width="9.16" height="4.58" />
  <polygon class="cls-8" points="349.33 353.93 349.33 370.35 349.33 371 349.33 386.77 349.33 387.43 349.33 403.85 358.23 403.85 358.23 387.43 358.23 386.77 358.23 371 358.23 370.35 358.23 353.93 349.33 353.93" />
  <rect class="cls-8" x="332.9" y="337.5" width="8.9" height="17.08" />
  <rect class="cls-8" x="316.48" y="321.08" width="8.9" height="17.08" />
  <polygon class="cls-8" points="291.88 304.65 276.1 304.65 275.45 304.65 259.68 304.65 259.03 304.65 243.26 304.65 242.6 304.65 226.83 304.65 226.18 304.65 210.41 304.65 209.76 304.65 193.99 304.65 193.33 304.65 177.56 304.65 176.91 304.65 161.14 304.65 160.49 304.65 144.72 304.65 144.06 304.65 127.64 304.65 127.64 313.55 144.06 313.55 144.72 313.55 160.49 313.55 161.14 313.55 176.91 313.55 177.56 313.55 193.33 313.55 193.99 313.55 209.76 313.55 210.41 313.55 226.18 313.55 226.83 313.55 242.6 313.55 243.26 313.55 259.03 313.55 259.68 313.55 275.45 313.55 276.1 313.55 291.88 313.55 292.53 313.55 308.95 313.55 308.95 304.65 292.53 304.65 291.88 304.65" />
  <polygon class="cls-9" points="333.62 353.93 333.62 337.5 317.2 337.5 317.2 321.08 308.95 321.08 308.95 313.55 242.6 312.83 226.84 312.83 226.18 312.83 210.41 312.83 209.75 312.83 193.34 312.83 193.34 312.83 177.56 312.83 176.91 312.83 161.14 312.83 160.49 312.83 144.72 312.83 144.06 312.83 127.64 312.83 127.64 321.08 111.21 321.08 111.21 337.5 94.79 337.5 94.79 353.93 78.36 353.93 78.36 370.35 78.36 371 78.36 386.77 78.36 387.43 78.36 403.85 94.79 403.85 94.79 419.62 94.79 420.28 94.79 436.69 111.21 436.69 111.21 453.12 127.64 453.12 128.29 453.12 144.06 453.12 144.72 453.12 160.49 453.12 161.14 453.12 176.91 453.12 177.56 453.12 193.99 453.12 193.99 436.69 209.75 436.69 210.41 436.69 226.18 436.69 226.84 436.69 242.6 436.69 242.6 453.12 259.03 453.12 259.68 453.12 275.45 453.12 276.1 453.12 291.88 453.12 292.53 453.12 308.3 453.12 308.95 453.12 325.38 453.12 325.38 436.69 341.8 436.69 341.8 420.28 341.8 419.62 341.8 403.85 350.05 403.85 350.05 387.43 350.05 386.77 350.05 371 350.05 370.35 350.05 353.93 333.62 353.93" />
  <rect class="cls-10" x="299.5" y="345.06" width="9.16" height="9.16" />
  <rect class="cls-10" x="308.66" y="354.28" width="9.16" height="9.16" />
</svg>