<svg width="167" height="40" viewBox="0 0 167 40" fill="none" xmlns="http://www.w3.org/2000/svg">
<rect y="8" width="160" height="32" fill="url(#paint0_linear_1156_936)"/>
<path d="M16.5078 19.368V22.688H20.5078V24.096H16.5078V27.592H21.3798V29H14.6518V17.96H21.2917L21.0838 19.368H16.5078ZM23.8615 29V20.552H25.4055L25.5415 21.648C25.8935 21.216 26.3095 20.888 26.7895 20.664C27.2695 20.44 27.7628 20.328 28.2695 20.328C29.0588 20.328 29.6482 20.5493 30.0375 20.992C30.4322 21.4293 30.6295 22.0453 30.6295 22.84V29H28.8375V23.728C28.8375 23.2373 28.8082 22.8427 28.7495 22.544C28.6908 22.2453 28.5735 22.0293 28.3975 21.896C28.2268 21.7627 27.9708 21.696 27.6295 21.696C27.3575 21.696 27.0988 21.7547 26.8535 21.872C26.6082 21.9893 26.3842 22.144 26.1815 22.336C25.9788 22.5227 25.8028 22.7227 25.6535 22.936V29H23.8615ZM40.5113 28.552C40.2019 28.7493 39.8313 28.9093 39.3993 29.032C38.9673 29.1547 38.5166 29.216 38.0473 29.216C37.0659 29.216 36.3193 28.9627 35.8073 28.456C35.3006 27.944 35.0473 27.272 35.0473 26.44V21.856H33.1673V20.552H35.0473V18.664L36.8393 18.448V20.552H39.6873L39.4873 21.856H36.8393V26.424C36.8393 26.8773 36.9513 27.216 37.1753 27.44C37.4046 27.6587 37.7779 27.768 38.2953 27.768C38.6046 27.768 38.8899 27.7307 39.1513 27.656C39.4126 27.5813 39.6499 27.4853 39.8633 27.368L40.5113 28.552ZM44.537 25.352C44.5743 25.928 44.697 26.4 44.905 26.768C45.113 27.1307 45.385 27.3973 45.721 27.568C46.0623 27.7387 46.4357 27.824 46.841 27.824C47.257 27.824 47.641 27.76 47.993 27.632C48.345 27.504 48.6997 27.3227 49.057 27.088L49.833 28.16C49.4383 28.48 48.977 28.736 48.449 28.928C47.921 29.12 47.3557 29.216 46.753 29.216C45.8783 29.216 45.137 29.0293 44.529 28.656C43.9263 28.2827 43.4677 27.7627 43.153 27.096C42.8383 26.4293 42.681 25.6587 42.681 24.784C42.681 23.936 42.8357 23.1787 43.145 22.512C43.4543 21.84 43.897 21.3093 44.473 20.92C45.049 20.5253 45.737 20.328 46.537 20.328C47.289 20.328 47.9343 20.4987 48.473 20.84C49.017 21.1813 49.4357 21.6667 49.729 22.296C50.0277 22.92 50.177 23.672 50.177 24.552C50.177 24.696 50.1717 24.84 50.161 24.984C50.1557 25.1227 50.1477 25.2453 50.137 25.352H44.537ZM46.553 21.656C45.993 21.656 45.529 21.856 45.161 22.256C44.7983 22.656 44.5877 23.28 44.529 24.128H48.441C48.425 23.3333 48.2543 22.7227 47.929 22.296C47.609 21.8693 47.1503 21.656 46.553 21.656ZM52.7228 29V27.72H53.9628V21.824H52.7228V20.552H55.3307L55.6588 22.512C55.9734 21.8027 56.3628 21.264 56.8268 20.896C57.2961 20.5227 57.8988 20.336 58.6348 20.336C58.8854 20.336 59.1094 20.3573 59.3068 20.4C59.5094 20.4373 59.7094 20.488 59.9068 20.552L59.3708 22.088C59.2001 22.04 59.0401 22.0053 58.8908 21.984C58.7414 21.9573 58.5761 21.944 58.3948 21.944C57.7814 21.944 57.2508 22.1733 56.8028 22.632C56.3601 23.0907 56.0108 23.7413 55.7548 24.584V27.72H57.4588V29H52.7228ZM58.3228 23.664V21.584L58.5468 20.552H59.9068L59.6028 23.664H58.3228ZM77.1423 26.344H73.1983L72.4303 29H70.5423L74.0543 17.96H76.3583L79.8783 29H77.9103L77.1423 26.344ZM73.5823 24.912H76.7503L75.1743 19.4L73.5823 24.912ZM85.544 20.328C86.2907 20.328 86.888 20.512 87.336 20.88C87.784 21.2427 88.1093 21.7573 88.312 22.424C88.5147 23.0853 88.616 23.864 88.616 24.76C88.616 25.6187 88.4933 26.384 88.248 27.056C88.0027 27.728 87.6373 28.256 87.152 28.64C86.672 29.024 86.0747 29.216 85.36 29.216C84.4747 29.216 83.76 28.904 83.216 28.28V32.248L81.424 32.448V20.552H82.984L83.096 21.64C83.416 21.2027 83.7867 20.8747 84.208 20.656C84.6347 20.4373 85.08 20.328 85.544 20.328ZM85.048 21.712C84.648 21.712 84.296 21.832 83.992 22.072C83.688 22.312 83.4293 22.5947 83.216 22.92V26.872C83.4187 27.176 83.6587 27.4107 83.936 27.576C84.2187 27.736 84.536 27.816 84.888 27.816C85.4907 27.816 85.9493 27.5733 86.264 27.088C86.5787 26.6027 86.736 25.8293 86.736 24.768C86.736 24.048 86.672 23.464 86.544 23.016C86.4213 22.5627 86.2347 22.232 85.984 22.024C85.7387 21.816 85.4267 21.712 85.048 21.712ZM95.1378 20.328C95.8844 20.328 96.4818 20.512 96.9298 20.88C97.3778 21.2427 97.7031 21.7573 97.9058 22.424C98.1084 23.0853 98.2098 23.864 98.2098 24.76C98.2098 25.6187 98.0871 26.384 97.8418 27.056C97.5964 27.728 97.2311 28.256 96.7458 28.64C96.2658 29.024 95.6684 29.216 94.9538 29.216C94.0684 29.216 93.3538 28.904 92.8098 28.28V32.248L91.0178 32.448V20.552H92.5778L92.6898 21.64C93.0098 21.2027 93.3804 20.8747 93.8018 20.656C94.2284 20.4373 94.6738 20.328 95.1378 20.328ZM94.6418 21.712C94.2418 21.712 93.8898 21.832 93.5858 22.072C93.2818 22.312 93.0231 22.5947 92.8098 22.92V26.872C93.0124 27.176 93.2524 27.4107 93.5298 27.576C93.8124 27.736 94.1298 27.816 94.4818 27.816C95.0844 27.816 95.5431 27.5733 95.8578 27.088C96.1724 26.6027 96.3298 25.8293 96.3298 24.768C96.3298 24.048 96.2658 23.464 96.1378 23.016C96.0151 22.5627 95.8284 22.232 95.5778 22.024C95.3324 21.816 95.0204 21.712 94.6418 21.712ZM104.804 14.6V33.8H103.172V14.6H104.804ZM115.669 25.808C115.669 25.312 115.573 24.928 115.381 24.656C115.189 24.384 114.931 24.1947 114.605 24.088C114.28 23.976 113.915 23.92 113.509 23.92H111.933V27.56H113.429C113.696 27.56 113.96 27.5387 114.221 27.496C114.488 27.448 114.731 27.3627 114.949 27.24C115.168 27.112 115.341 26.9333 115.469 26.704C115.603 26.4747 115.669 26.176 115.669 25.808ZM115.245 20.904C115.245 20.3493 115.072 19.952 114.725 19.712C114.379 19.472 113.891 19.352 113.261 19.352H111.933V22.544H113.373C113.992 22.544 114.459 22.416 114.773 22.16C115.088 21.8987 115.245 21.48 115.245 20.904ZM117.605 25.816C117.605 26.4293 117.485 26.944 117.245 27.36C117.005 27.7707 116.68 28.096 116.269 28.336C115.864 28.576 115.405 28.7467 114.893 28.848C114.381 28.9493 113.853 29 113.309 29H110.077V17.96H113.093C113.611 17.96 114.109 18.0053 114.589 18.096C115.069 18.1813 115.499 18.3307 115.877 18.544C116.261 18.7573 116.565 19.0453 116.789 19.408C117.013 19.7653 117.125 20.2133 117.125 20.752C117.125 21.216 117.029 21.6107 116.837 21.936C116.645 22.2613 116.392 22.5253 116.077 22.728C115.768 22.9253 115.437 23.0667 115.085 23.152C115.485 23.216 115.877 23.3413 116.261 23.528C116.651 23.7093 116.971 23.984 117.221 24.352C117.477 24.72 117.605 25.208 117.605 25.816ZM121.287 25.352C121.324 25.928 121.447 26.4 121.655 26.768C121.863 27.1307 122.135 27.3973 122.471 27.568C122.812 27.7387 123.186 27.824 123.591 27.824C124.007 27.824 124.391 27.76 124.743 27.632C125.095 27.504 125.45 27.3227 125.807 27.088L126.583 28.16C126.188 28.48 125.727 28.736 125.199 28.928C124.671 29.12 124.106 29.216 123.503 29.216C122.628 29.216 121.887 29.0293 121.279 28.656C120.676 28.2827 120.218 27.7627 119.903 27.096C119.588 26.4293 119.431 25.6587 119.431 24.784C119.431 23.936 119.586 23.1787 119.895 22.512C120.204 21.84 120.647 21.3093 121.223 20.92C121.799 20.5253 122.487 20.328 123.287 20.328C124.039 20.328 124.684 20.4987 125.223 20.84C125.767 21.1813 126.186 21.6667 126.479 22.296C126.778 22.92 126.927 23.672 126.927 24.552C126.927 24.696 126.922 24.84 126.911 24.984C126.906 25.1227 126.898 25.2453 126.887 25.352H121.287ZM123.303 21.656C122.743 21.656 122.279 21.856 121.911 22.256C121.548 22.656 121.338 23.28 121.279 24.128H125.191C125.175 23.3333 125.004 22.7227 124.679 22.296C124.359 21.8693 123.9 21.656 123.303 21.656ZM136.449 28.552C136.139 28.7493 135.769 28.9093 135.337 29.032C134.905 29.1547 134.454 29.216 133.985 29.216C133.003 29.216 132.257 28.9627 131.745 28.456C131.238 27.944 130.985 27.272 130.985 26.44V21.856H129.105V20.552H130.985V18.664L132.777 18.448V20.552H135.625L135.425 21.856H132.777V26.424C132.777 26.8773 132.889 27.216 133.113 27.44C133.342 27.6587 133.715 27.768 134.233 27.768C134.542 27.768 134.827 27.7307 135.089 27.656C135.35 27.5813 135.587 27.4853 135.801 27.368L136.449 28.552ZM145.443 26.928C145.443 27.2587 145.493 27.5013 145.595 27.656C145.696 27.8053 145.859 27.9173 146.083 27.992L145.683 29.208C145.267 29.16 144.909 29.0453 144.611 28.864C144.312 28.6827 144.085 28.408 143.931 28.04C143.621 28.4293 143.229 28.7227 142.755 28.92C142.28 29.1173 141.773 29.216 141.235 29.216C140.381 29.216 139.704 28.976 139.203 28.496C138.707 28.0107 138.459 27.376 138.459 26.592C138.459 25.7013 138.805 25.016 139.499 24.536C140.192 24.056 141.184 23.816 142.475 23.816H143.683V23.264C143.683 22.72 143.517 22.328 143.187 22.088C142.861 21.848 142.4 21.728 141.803 21.728C141.525 21.728 141.189 21.7653 140.795 21.84C140.4 21.9093 139.987 22.0187 139.555 22.168L139.115 20.904C139.643 20.7067 140.16 20.5627 140.667 20.472C141.173 20.376 141.643 20.328 142.075 20.328C143.205 20.328 144.048 20.5787 144.603 21.08C145.163 21.5813 145.443 22.2747 145.443 23.16V26.928ZM141.779 27.896C142.141 27.896 142.496 27.8 142.843 27.608C143.189 27.416 143.469 27.1467 143.683 26.8V24.936H142.691C141.848 24.936 141.245 25.0773 140.883 25.36C140.52 25.6373 140.339 26.0213 140.339 26.512C140.339 26.96 140.459 27.304 140.699 27.544C140.944 27.7787 141.304 27.896 141.779 27.896Z" fill="white"/>
<rect x="154" width="5.94378" height="5.94378" fill="#E5BB25" fill-opacity="0.3"/>
<rect x="154" width="5.94378" height="5.94378" fill="#E5BB25" fill-opacity="0.3"/>
<rect x="154" width="5.94378" height="5.94378" fill="#E5BB25" fill-opacity="0.3"/>
<rect x="161" y="4" width="5.94378" height="5.94378" fill="#E5BB25" fill-opacity="0.3"/>
<defs>
<linearGradient id="paint0_linear_1156_936" x1="106.061" y1="-157.5" x2="-1.69983" y2="-20.2714" gradientUnits="userSpaceOnUse">
<stop stop-color="#FFDD52"/>
<stop offset="1" stop-color="#B672D6"/>
</linearGradient>
</defs>
</svg>
