<svg width="249" height="76" viewBox="0 0 249 76" fill="none" xmlns="http://www.w3.org/2000/svg">
<rect y="15.8558" width="249" height="59.459" fill="black"/>
<path d="M3 0H246V2.97295H249V68.3778H246V71.3508H3V68.3778H0V2.97295H3V0Z" fill="url(#paint0_linear_1043_384)"/>
<path d="M36.3933 38.8V43.12H43.0893V46H33.0333V29.2H43.0893V32.08H36.3933V35.92H41.6493V38.8H36.3933ZM56.6452 35.488V46H53.3572V36.688H49.2532V46H45.9652V33.88H48.6772L49.2532 34.864L50.9572 33.88H53.8612L56.6452 35.488ZM59.2787 36.808V34H61.4867V31.984L64.7747 30.088V34H67.4147V36.808H64.7747V43.192H67.4147V46H64.2707L61.4867 44.392V36.808H59.2787ZM80.4877 43.192V46H73.3117L70.5277 44.392V35.488L73.3117 33.88H77.7037L80.4877 35.488V41.224H73.8157V43.192H80.4877ZM73.8157 36.688V38.752H77.1997V36.688H73.8157ZM91.514 36.808H87.386V46H84.098V34H86.81L87.386 34.984L89.09 34H91.514V36.808ZM108.169 29.2L114.169 46H110.857L109.585 42.376H103.297L102.025 46H98.7127L104.713 29.2H108.169ZM106.417 33.424L104.305 39.496H108.553L106.465 33.424H106.417ZM124.461 46.12H121.317L119.613 45.136V50.8H116.325V33.88H119.037L119.613 34.864L121.317 33.88H124.461L127.245 35.488V44.512L124.461 46.12ZM119.613 36.688V43.312H123.957V36.688H119.613ZM138.992 46.12H135.848L134.144 45.136V50.8H130.856V33.88H133.568L134.144 34.864L135.848 33.88H138.992L141.776 35.488V44.512L138.992 46.12ZM134.144 36.688V43.312H138.488V36.688H134.144ZM152.581 50.8V28.48H155.701V50.8H152.581ZM178.624 36.088L176.536 37.288V37.336L178.624 38.536V44.392L175.84 46H166.744V29.2H175.84L178.624 30.808V36.088ZM170.104 38.752V43.12H175.264V38.752H170.104ZM170.104 32.08V35.872H175.264V32.08H170.104ZM192.425 43.192V46H185.249L182.465 44.392V35.488L185.249 33.88H189.641L192.425 35.488V41.224H185.753V43.192H192.425ZM185.753 36.688V38.752H189.137V36.688H185.753ZM195.076 36.808V34H197.284V31.984L200.572 30.088V34H203.212V36.808H200.572V43.192H203.212V46H200.068L197.284 44.392V36.808H195.076ZM209.133 41.272V43.36H212.517V41.272H209.133ZM208.629 46.12L205.845 44.512V40.36L208.629 38.752H212.517V36.808H207.045V34H213.021L215.805 35.608V46.12H214.221L212.517 45.136L210.813 46.12H208.629Z" fill="#F9F6EF"/>
<defs>
<linearGradient id="paint0_linear_1043_384" x1="165.057" y1="-369.017" x2="-80.5648" y2="-150.703" gradientUnits="userSpaceOnUse">
<stop stop-color="#FFDD52"/>
<stop offset="1" stop-color="#B672D6"/>
</linearGradient>
</defs>
</svg>
