<?xml version="1.0" encoding="utf-8"?>
<!-- Generator: Adobe Illustrator 25.3.1, SVG Export Plug-In . SVG Version: 6.00 Build 0)  -->
<svg version="1.1" id="Layer_1" xmlns="http://www.w3.org/2000/svg" xmlns:xlink="http://www.w3.org/1999/xlink" x="0px" y="0px"
	 viewBox="0 0 52 5.6" style="enable-background:new 0 0 52 5.6;" xml:space="preserve">
<style type="text/css">
	.st0{fill-rule:evenodd;clip-rule:evenodd;fill:#4ADDA5;}
</style>
<path id="Combined-Shape" class="st0" d="M6,0v5.6H4.2v-2H1.8v2H0V0h1.8v1.9h2.5V0H6z M24.8,0v1.6h-4.7V4h4.6v1.6h-6.4V0H24.8
	L24.8,0z M47.8,0L47.8,0l2.4,2.4V0H52v5.6h-1.8l-2.5-2.5v2.5H46V0H47.8z M33.7,0v1.9L32,3.6h1.7v2h-1.9v-2h-2.7v2h-1.8V0h1.8v1.9
	h2.7V0H33.7z M15,0h0.3v5.6h-1.7V4.4h-2.5v1.2H9.4V0H15L15,0z M42.6,0v1.6h-4.2V2h4.2v1.6h-4.2V4h4.2v1.6h-6V0H42.6L42.6,0z
	 M13.6,1.6h-2.5v1.1h2.5V1.6z"/>
</svg>
