<svg width="200" height="26" viewBox="0 0 200 26" fill="none" xmlns="http://www.w3.org/2000/svg">
<path d="M10.2147 6.2V15.27C10.2147 15.93 10.1214 16.56 9.93469 17.16C9.74802 17.76 9.45135 18.2933 9.04469 18.76C8.64469 19.22 8.12469 19.5867 7.48469 19.86C6.85135 20.1267 6.08469 20.26 5.18469 20.26C4.42469 20.26 3.72135 20.15 3.07469 19.93C2.42802 19.71 1.82135 19.3967 1.25469 18.99L2.20469 17.51C2.75135 17.87 3.25469 18.1133 3.71469 18.24C4.18135 18.3667 4.64135 18.43 5.09469 18.43C5.96135 18.43 6.64469 18.1533 7.14469 17.6C7.65135 17.0467 7.90469 16.2533 7.90469 15.22V7.98H3.75469V6.2H10.2147ZM18.0569 9.16C19.0902 9.16 19.9602 9.39 20.6669 9.85C21.3735 10.31 21.9069 10.9533 22.2669 11.78C22.6335 12.6067 22.8169 13.58 22.8169 14.7C22.8169 15.8133 22.6302 16.79 22.2569 17.63C21.8902 18.4633 21.3502 19.1133 20.6369 19.58C19.9302 20.04 19.0669 20.27 18.0469 20.27C17.0269 20.27 16.1602 20.0467 15.4469 19.6C14.7402 19.1467 14.2002 18.5033 13.8269 17.67C13.4602 16.8367 13.2769 15.8533 13.2769 14.72C13.2769 13.62 13.4602 12.6533 13.8269 11.82C14.2002 10.9867 14.7435 10.3367 15.4569 9.87C16.1702 9.39667 17.0369 9.16 18.0569 9.16ZM18.0569 10.9C17.2502 10.9 16.6435 11.21 16.2369 11.83C15.8302 12.4433 15.6269 13.4067 15.6269 14.72C15.6269 16.0267 15.8269 16.99 16.2269 17.61C16.6335 18.23 17.2402 18.54 18.0469 18.54C18.8535 18.54 19.4569 18.23 19.8569 17.61C20.2635 16.99 20.4669 16.02 20.4669 14.7C20.4669 13.4 20.2669 12.4433 19.8669 11.83C19.4669 11.21 18.8635 10.9 18.0569 10.9ZM31.5891 9.44V18.36H34.4591V20H26.1891V18.36H29.3491V11.08H26.2891V9.44H31.5891ZM30.0291 4.27C30.4691 4.27 30.8224 4.40333 31.0891 4.67C31.3624 4.93667 31.4991 5.27 31.4991 5.67C31.4991 6.07 31.3624 6.40667 31.0891 6.68C30.8224 6.95333 30.4691 7.09 30.0291 7.09C29.6024 7.09 29.2524 6.95333 28.9791 6.68C28.7057 6.40667 28.5691 6.07 28.5691 5.67C28.5691 5.27 28.7057 4.93667 28.9791 4.67C29.2524 4.40333 29.6024 4.27 30.0291 4.27ZM37.8113 20V9.44H39.7413L39.9113 10.81C40.3513 10.27 40.8713 9.86 41.4713 9.58C42.0713 9.3 42.6879 9.16 43.3213 9.16C44.3079 9.16 45.0446 9.43667 45.5313 9.99C46.0246 10.5367 46.2713 11.3067 46.2713 12.3V20H44.0313V13.41C44.0313 12.7967 43.9946 12.3033 43.9213 11.93C43.8479 11.5567 43.7013 11.2867 43.4813 11.12C43.2679 10.9533 42.9479 10.87 42.5213 10.87C42.1813 10.87 41.8579 10.9433 41.5513 11.09C41.2446 11.2367 40.9646 11.43 40.7113 11.67C40.4579 11.9033 40.2379 12.1533 40.0513 12.42V20H37.8113ZM67.1756 5.92C68.109 5.92 68.8956 6.04333 69.5356 6.29C70.1823 6.53 70.7823 6.87667 71.3356 7.33L70.1256 8.77C69.7123 8.42333 69.269 8.16667 68.7956 8C68.3223 7.83333 67.819 7.75 67.2856 7.75C66.599 7.75 65.9656 7.92333 65.3856 8.27C64.8056 8.61667 64.339 9.18 63.9856 9.96C63.639 10.74 63.4656 11.78 63.4656 13.08C63.4656 14.3533 63.6323 15.38 63.9656 16.16C64.299 16.94 64.7556 17.5067 65.3356 17.86C65.9156 18.2133 66.5656 18.39 67.2856 18.39C68.0256 18.39 68.639 18.27 69.1256 18.03C69.6123 17.7833 70.0423 17.5067 70.4156 17.2L71.5356 18.63C71.0756 19.0767 70.4923 19.4633 69.7856 19.79C69.079 20.11 68.219 20.27 67.2056 20.27C66.039 20.27 64.989 19.9967 64.0556 19.45C63.129 18.8967 62.3956 18.0867 61.8556 17.02C61.3223 15.9533 61.0556 14.64 61.0556 13.08C61.0556 11.5333 61.3323 10.23 61.8856 9.17C62.439 8.10333 63.179 7.29667 64.1056 6.75C65.0323 6.19667 66.0556 5.92 67.1756 5.92ZM78.0178 9.16C79.0511 9.16 79.9211 9.39 80.6278 9.85C81.3345 10.31 81.8678 10.9533 82.2278 11.78C82.5945 12.6067 82.7778 13.58 82.7778 14.7C82.7778 15.8133 82.5911 16.79 82.2178 17.63C81.8511 18.4633 81.3111 19.1133 80.5978 19.58C79.8911 20.04 79.0278 20.27 78.0078 20.27C76.9878 20.27 76.1211 20.0467 75.4078 19.6C74.7011 19.1467 74.1611 18.5033 73.7878 17.67C73.4211 16.8367 73.2378 15.8533 73.2378 14.72C73.2378 13.62 73.4211 12.6533 73.7878 11.82C74.1611 10.9867 74.7045 10.3367 75.4178 9.87C76.1311 9.39667 76.9978 9.16 78.0178 9.16ZM78.0178 10.9C77.2111 10.9 76.6045 11.21 76.1978 11.83C75.7911 12.4433 75.5878 13.4067 75.5878 14.72C75.5878 16.0267 75.7878 16.99 76.1878 17.61C76.5945 18.23 77.2011 18.54 78.0078 18.54C78.8145 18.54 79.4178 18.23 79.8178 17.61C80.2245 16.99 80.4278 16.02 80.4278 14.7C80.4278 13.4 80.2278 12.4433 79.8278 11.83C79.4278 11.21 78.8245 10.9 78.0178 10.9ZM93.06 9.16C93.46 9.16 93.82 9.24667 94.14 9.42C94.46 9.59333 94.71 9.89667 94.89 10.33C95.0767 10.7633 95.17 11.37 95.17 12.15V20H93.18V12.46C93.18 11.9067 93.14 11.51 93.06 11.27C92.9867 11.03 92.79 10.91 92.47 10.91C92.2167 10.91 91.96 10.99 91.7 11.15C91.44 11.3033 91.1767 11.57 90.91 11.95V20H89.1V12.46C89.1 11.9067 89.06 11.51 88.98 11.27C88.9067 11.03 88.71 10.91 88.39 10.91C88.13 10.91 87.87 10.99 87.61 11.15C87.3567 11.3033 87.0967 11.57 86.83 11.95V20H84.83V9.44H86.52L86.67 10.58C86.97 10.16 87.2967 9.82 87.65 9.56C88.0033 9.29333 88.43 9.16 88.93 9.16C89.33 9.16 89.6933 9.26 90.02 9.46C90.3467 9.66 90.5867 10.01 90.74 10.51C91.0333 10.11 91.3667 9.78667 91.74 9.54C92.1133 9.28667 92.5533 9.16 93.06 9.16ZM105.052 9.16C105.452 9.16 105.812 9.24667 106.132 9.42C106.452 9.59333 106.702 9.89667 106.882 10.33C107.069 10.7633 107.162 11.37 107.162 12.15V20H105.172V12.46C105.172 11.9067 105.132 11.51 105.052 11.27C104.979 11.03 104.782 10.91 104.462 10.91C104.209 10.91 103.952 10.99 103.692 11.15C103.432 11.3033 103.169 11.57 102.902 11.95V20H101.092V12.46C101.092 11.9067 101.052 11.51 100.972 11.27C100.899 11.03 100.702 10.91 100.382 10.91C100.122 10.91 99.8622 10.99 99.6022 11.15C99.3489 11.3033 99.0889 11.57 98.8222 11.95V20H96.8222V9.44H98.5122L98.6622 10.58C98.9622 10.16 99.2889 9.82 99.6422 9.56C99.9955 9.29333 100.422 9.16 100.922 9.16C101.322 9.16 101.686 9.26 102.012 9.46C102.339 9.66 102.579 10.01 102.732 10.51C103.026 10.11 103.359 9.78667 103.732 9.54C104.106 9.28667 104.546 9.16 105.052 9.16ZM112.004 9.44V16.82C112.004 17.4467 112.128 17.8933 112.374 18.16C112.628 18.4267 113.008 18.56 113.514 18.56C113.994 18.56 114.458 18.4167 114.904 18.13C115.351 17.8433 115.704 17.4933 115.964 17.08V9.44H118.204V20H116.274L116.134 18.65C115.741 19.1767 115.244 19.58 114.644 19.86C114.044 20.1333 113.431 20.27 112.804 20.27C111.784 20.27 111.021 19.99 110.514 19.43C110.014 18.8633 109.764 18.0867 109.764 17.1V9.44H112.004ZM121.757 20V9.44H123.687L123.857 10.81C124.297 10.27 124.817 9.86 125.417 9.58C126.017 9.3 126.633 9.16 127.267 9.16C128.253 9.16 128.99 9.43667 129.477 9.99C129.97 10.5367 130.217 11.3067 130.217 12.3V20H127.977V13.41C127.977 12.7967 127.94 12.3033 127.867 11.93C127.793 11.5567 127.647 11.2867 127.427 11.12C127.213 10.9533 126.893 10.87 126.467 10.87C126.127 10.87 125.803 10.9433 125.497 11.09C125.19 11.2367 124.91 11.43 124.657 11.67C124.403 11.9033 124.183 12.1533 123.997 12.42V20H121.757ZM139.519 9.44V18.36H142.389V20H134.119V18.36H137.279V11.08H134.219V9.44H139.519ZM137.959 4.27C138.399 4.27 138.752 4.40333 139.019 4.67C139.292 4.93667 139.429 5.27 139.429 5.67C139.429 6.07 139.292 6.40667 139.019 6.68C138.752 6.95333 138.399 7.09 137.959 7.09C137.532 7.09 137.182 6.95333 136.909 6.68C136.635 6.40667 136.499 6.07 136.499 5.67C136.499 5.27 136.635 4.93667 136.909 4.67C137.182 4.40333 137.532 4.27 137.959 4.27ZM154.561 19.44C154.174 19.6867 153.711 19.8867 153.171 20.04C152.631 20.1933 152.068 20.27 151.481 20.27C150.254 20.27 149.321 19.9533 148.681 19.32C148.048 18.68 147.731 17.84 147.731 16.8V11.07H145.381V9.44H147.731V7.08L149.971 6.81V9.44H153.531L153.281 11.07H149.971V16.78C149.971 17.3467 150.111 17.77 150.391 18.05C150.678 18.3233 151.144 18.46 151.791 18.46C152.178 18.46 152.534 18.4133 152.861 18.32C153.188 18.2267 153.484 18.1067 153.751 17.96L154.561 19.44ZM166.973 9.44L163.333 20.04C163.06 20.84 162.71 21.5433 162.283 22.15C161.856 22.7633 161.31 23.2567 160.643 23.63C159.976 24.0033 159.15 24.2333 158.163 24.32L157.873 22.64C158.586 22.5267 159.153 22.36 159.573 22.14C160 21.9267 160.336 21.6433 160.583 21.29C160.836 20.9367 161.06 20.5067 161.253 20H160.493L156.933 9.44H159.313L161.973 18.44L164.673 9.44H166.973Z" fill="#89569D"/>
<path d="M189 4V6.57143H192.5L183 16L185 18L194.428 8.5V11.7143H197V4H189Z" fill="#5C5C5C"/>
<path d="M197 14.2857H194.429V19.4286H181.571V6.57143H186.714V4H179V22H197V14.2857Z" fill="#5C5C5C"/>
</svg>
