<svg width="53" height="53" viewBox="0 0 53 53" fill="none" xmlns="http://www.w3.org/2000/svg">
<rect x="0.142578" y="0.626465" width="52.1077" height="52.1077" fill="white"/>
<rect x="49.355" y="0.626465" width="2.89487" height="2.89487" fill="#E5BB25"/>
<rect x="0.142578" y="0.626465" width="2.89487" height="2.89487" fill="#E5BB25"/>
<rect x="0.142578" y="49.8394" width="2.89487" height="2.89487" fill="#E5BB25"/>
<rect x="49.355" y="49.8394" width="2.89487" height="2.89487" fill="#E5BB25"/>
<g clip-path="url(#clip0_1190_513)">
<path d="M17.9938 15.8247C23.8557 15.8247 28.6074 20.665 28.6074 26.6353C28.6074 32.6057 23.8554 37.4456 17.9938 37.4456C12.1322 37.4456 7.37988 32.6057 7.37988 26.6353C7.37988 20.665 12.1319 15.8247 17.9938 15.8247ZM34.9435 16.458C37.8744 16.458 40.2504 21.0141 40.2504 26.6353H40.2508C40.2508 32.2552 37.8748 36.8127 34.9438 36.8127C32.0129 36.8127 29.6369 32.2552 29.6369 26.6353C29.6369 21.0155 32.0125 16.458 34.9435 16.458ZM43.1468 17.518C44.1774 17.518 45.0133 21.5999 45.0133 26.6353C45.0133 31.6693 44.1777 35.7527 43.1468 35.7527C42.1158 35.7527 41.2807 31.6704 41.2807 26.6353C41.2807 21.6003 42.1162 17.518 43.1468 17.518Z" fill="#E9C03C"/>
</g>
<defs>
<clipPath id="clip0_1190_513">
<rect width="37.6334" height="21.7116" fill="white" transform="translate(7.37988 15.8247)"/>
</clipPath>
</defs>
</svg>
