<svg id="Layer_1" data-name="Layer 1" xmlns="http://www.w3.org/2000/svg" viewBox="0 0 685 700"><defs><style>.cls-1{fill:#dcdcdc;}.cls-2{fill:#eeccc2;}.cls-3{fill:#f6d9ce;}.cls-4{fill:#6d3d34;}.cls-5{fill:#bc8674;}.cls-6{fill:#604239;}.cls-7{fill:#55332a;}.cls-8{fill:#fff;}.cls-9{fill:#b1605b;}.cls-10{fill:#e1baaa;}.cls-11{fill:#1d1d1b;}.cls-12{fill:#191919;}.cls-13{fill:#3a3a3b;}</style></defs><rect class="cls-1" x="152.58" y="575.07" width="120.26" height="124.23"/><rect class="cls-2" x="165.65" y="516.58" width="25.1" height="33.47"/><rect class="cls-2" x="240.96" y="516.58" width="25.1" height="33.47"/><rect class="cls-2" x="174.02" y="533.31" width="83.67" height="41.83"/><polygon class="cls-3" points="324.63 336.71 324.63 318.93 313.65 318.93 313.64 318.93 304.77 318.93 304.77 301.15 295.87 301.15 278.09 301.15 278.09 292.26 260.32 292.26 260.31 292.26 242.55 292.26 242.55 283.37 153.64 283.37 153.64 292.25 135.89 292.25 135.89 301.15 135.88 301.15 118.1 301.15 118.1 318.93 109.2 318.93 109.21 372.26 100.32 372.26 100.32 390.04 100.32 466.38 109.21 466.38 109.21 483.11 118.1 483.11 118.1 499.85 135.88 499.85 135.88 516.58 153.65 516.58 153.65 524.95 171.42 524.95 171.43 524.95 171.43 533.31 199.12 533.31 199.12 541.68 232.59 541.68 232.59 533.31 260.32 533.31 260.32 524.95 278.1 524.95 278.1 516.58 278.1 516.58 295.88 516.58 295.88 499.85 313.66 499.85 313.66 483.11 322.55 483.11 322.55 466.38 332.99 466.38 333.01 372.26 332.99 354.49 332.99 336.71 324.63 336.71"/><polygon class="cls-4" points="206.99 452.27 206.98 452.27 189.21 452.27 189.21 461.16 206.98 461.16 206.99 461.16 224.76 461.16 224.76 452.27 206.99 452.27"/><polygon class="cls-5" points="180.32 434.49 180.32 443.38 180.32 452.27 189.21 452.27 189.21 443.38 189.21 434.49 180.32 434.49"/><polygon class="cls-5" points="189.21 407.82 189.21 425.6 189.21 434.49 198.1 434.49 198.1 425.6 198.1 407.82 189.21 407.82"/><polygon class="cls-5" points="206.99 390.04 206.99 372.26 206.99 354.49 198.1 354.49 198.1 372.26 198.1 390.04 198.13 390.04 198.13 398.93 198.09 398.93 198.09 407.82 206.97 407.82 206.97 398.93 207.02 398.93 207.02 390.04 206.99 390.04"/><polygon class="cls-6" points="278.1 345.6 260.33 345.6 242.55 345.6 242.55 354.49 260.33 354.49 278.1 354.49 295.88 354.49 295.88 345.6 278.1 345.6"/><polygon class="cls-6" points="171.44 345.6 153.66 345.6 135.88 345.6 135.88 354.49 153.66 354.49 171.44 354.49 189.21 354.49 189.21 345.6 171.44 345.6"/><polygon class="cls-7" points="171.44 372.26 153.66 372.26 153.66 390.04 171.44 390.04 189.21 390.04 189.21 372.26 171.44 372.26"/><rect class="cls-8" x="178.6" y="374.07" width="8.89" height="8.89"/><rect class="cls-7" x="242.54" y="372.26" width="35.56" height="17.78"/><rect class="cls-8" x="266.86" y="374.13" width="8.89" height="8.89"/><rect class="cls-9" x="242.55" y="478.93" width="8.89" height="8.89"/><polygon class="cls-9" points="224.75 487.82 207 487.82 206.98 487.82 189.22 487.82 189.22 496.71 206.98 496.71 207 496.71 224.75 496.71 224.76 496.71 242.52 496.71 242.52 487.82 224.76 487.82 224.75 487.82"/><rect class="cls-9" x="180.32" y="478.93" width="8.89" height="8.89"/><polygon class="cls-2" points="73.65 372.26 73.65 382.71 64.77 382.71 64.77 390.04 64.77 407.82 73.65 407.82 73.65 425.6 73.65 443.38 87 443.38 87 455.66 100.32 455.66 100.32 443.38 100.32 390.04 100.32 372.26 82.54 372.26 73.65 372.26"/><polygon class="cls-2" points="366.98 390.04 366.98 381.15 358.11 381.15 358.11 372.26 349.22 372.26 349.22 372.26 349.22 372.26 340.31 372.26 332.99 372.26 332.99 455.66 344.76 455.66 344.76 443.38 358.11 443.38 358.11 407.82 367 407.82 367 390.04 366.98 390.04"/><rect class="cls-7" x="332.99" y="336.71" width="17.52" height="35.56"/><rect class="cls-7" x="324.63" y="318.93" width="8.37" height="17.78"/><polygon class="cls-10" points="100.32 318.93 100.32 372.26 109.21 372.26 109.23 318.93 100.32 318.93"/><rect class="cls-7" x="304.76" y="301.15" width="8.89" height="17.79"/><rect class="cls-7" x="278.09" y="292.25" width="17.78" height="8.89"/><rect class="cls-10" x="118.12" y="292.26" width="17.78" height="8.89"/><rect class="cls-10" x="135.89" y="283.38" width="17.78" height="8.89"/><rect class="cls-10" x="153.66" y="274.48" width="62.24" height="8.89"/><rect class="cls-7" x="242.55" y="283.37" width="35.56" height="8.89"/><polygon class="cls-11" points="157.29 156.8 157.29 173.54 140.62 173.54 140.62 190.27 140.6 190.27 115.52 190.27 115.52 212.26 115.53 212.26 115.5 212.27 115.5 232.1 98.73 232.1 98.73 247.82 98.71 247.82 98.71 265.59 90.35 265.59 90.35 282.3 81.98 282.31 81.97 374.34 91.45 374.34 91.45 390.04 100.32 390.04 100.32 372.26 100.32 318.93 118.1 318.93 118.1 301.15 118.12 301.15 118.12 292.26 135.89 292.26 135.89 283.38 135.85 283.38 135.88 283.37 135.88 283.37 153.64 283.37 153.66 274.49 215.88 274.49 215.88 283.38 242.54 283.38 242.55 283.38 260.32 283.38 260.32 283.37 278.09 283.37 278.09 292.26 295.86 292.26 295.86 301.15 313.64 301.15 313.64 301.15 313.65 301.15 313.65 318.93 332.99 318.93 332.99 336.71 350.51 336.71 350.51 248.84 332.99 248.84 332.99 232.1 316.26 232.1 316.26 232.1 316.26 232.1 316.26 212.26 316.26 190.27 291.16 190.27 291.16 173.54 278.1 173.54 257.69 173.54 257.69 173.53 257.69 156.8 157.29 156.8"/><polygon class="cls-12" points="416.66 633.64 416.66 616.98 408.29 616.98 408.29 608.55 399.93 608.55 399.93 600.25 383.19 600.25 383.19 591.88 366.46 591.88 366.46 583.58 341.1 583.58 341.1 575.22 282.79 575.22 282.79 566.92 274.42 566.92 274.42 550.05 207.49 550.05 207.49 566.92 207.49 569.95 207.49 575.22 207.49 583.58 207.49 587.73 207.49 591.88 221.33 591.88 221.33 600.25 221.33 608.55 221.33 615.41 221.33 616.98 221.33 625.31 221.33 631.94 221.33 633.64 221.33 654.67 221.33 699.3 425.03 699.3 425.03 633.64 416.66 633.64"/><polygon class="cls-12" points="190.75 591.88 190.75 583.58 190.75 575.22 190.75 566.92 190.75 550.05 157.29 550.05 157.29 566.92 148.92 566.92 148.92 575.22 90.3 575.22 90.3 583.58 65.25 583.58 65.25 591.88 48.52 591.88 48.52 600.25 31.78 600.25 31.78 608.55 23.42 608.55 23.42 616.98 15.05 616.98 15.05 633.64 6.68 633.64 6.68 699.3 198.08 699.3 198.08 673.24 198.08 657.33 198.08 645.59 198.08 637.18 198.08 633.64 198.08 616.98 198.08 608.55 198.08 600.25 198.08 591.88 190.75 591.88"/><rect class="cls-13" x="207.49" y="575.22" width="133.62" height="2.07"/><rect class="cls-13" x="266.06" y="679.01" width="80.81" height="2.07"/><rect class="cls-13" x="168.65" y="644.55" width="107.42" height="2.07" transform="translate(867.96 423.23) rotate(90)"/><rect class="cls-13" x="143.34" y="644.55" width="107.42" height="2.07" transform="translate(842.64 448.55) rotate(90)"/><rect class="cls-13" x="90.3" y="575.22" width="100.46" height="2.07"/><rect class="cls-8" x="215.63" y="558.22" width="10.54" height="10.54"/><rect class="cls-8" x="343.45" y="679.01" width="3.41" height="2.07"/><rect class="cls-13" x="84.85" y="679.01" width="80.81" height="2.07" transform="translate(250.5 1360.09) rotate(-180)"/><rect class="cls-8" x="84.85" y="679.01" width="3.41" height="2.07" transform="translate(173.11 1360.09) rotate(-180)"/><polygon points="680.5 514.36 680.5 514.36 680.77 514.09 677.05 510.46 676.76 510.17 676.49 510.5 676.79 510.74 676.79 510.74 676.49 510.5 673.95 513.58 673.73 513.84 673.98 514.09 674.25 513.82 674.25 513.82 673.98 514.09 677.78 517.98 678.05 517.71 678.05 517.71 678.05 517.71 678.05 517.71 678.37 517.94 680.81 514.59 680.5 514.36 680.5 514.36"/><polygon points="519.53 518.8 519.53 518.8 519.92 518.75 518.11 502.28 518.08 502.06 517.89 501.97 517.72 502.32 517.72 502.32 517.89 501.97 515.81 500.98 515.73 500.94 515.64 500.94 506.7 500.94 506.7 490.55 506.7 490.17 506.32 490.17 503.6 490.17 503.21 490.17 503.21 490.55 503.21 519.07 503.21 519.5 503.64 519.45 506.44 519.18 506.79 519.15 506.79 518.8 506.79 504.61 514.66 504.61 516.25 519.02 516.64 518.98 516.64 518.98 516.25 519.02 516.29 519.39 516.66 519.37 519.56 519.18 519.53 518.8 519.53 518.8"/><polygon points="449.19 498.61 449.19 498.61 449.55 498.46 446.65 491.67 446.52 491.37 446.2 491.45 443.03 492.26 443.13 492.63 443.12 492.63 443.12 492.64 442.77 492.79 445.67 499.67 445.8 499.98 446.13 499.89 446.02 499.52 446.02 499.51 446.13 499.89 449.3 498.98 449.19 498.61 449.19 498.61"/><path d="M380.75,518.71h0l.36-.14-10.95-29.69-.36.13h0l.37-.13-.09-.25h-2.55l-.09.27-9.32,29.51.37.12h0l-.37-.12-.12.39.4.1,3.08.73.36.08.1-.35,3.45-11.76h7.94l4.17,12,.36-.13h0l.11.37,2.89-.81.41-.11-.15-.4ZM372.22,504h-5.89l2.6-8.65Zm-3.33-9.85Zm4.71,13Z"/><path d="M610.6,510.76l-.52-.26,0,.58a4.8,4.8,0,0,1-.59,2.05h0a6.13,6.13,0,0,1-1.26,1.56,6.44,6.44,0,0,1-1.75,1,6.23,6.23,0,0,1-1.9.38h0a7.15,7.15,0,0,1-2.19-.34h0a5,5,0,0,1-1.8-1.09,5.75,5.75,0,0,1-1.31-2,8.85,8.85,0,0,1-.47-3.11,8.31,8.31,0,0,1,.43-2.77,6.12,6.12,0,0,1,1.23-2,4.6,4.6,0,0,1,1.76-1.18h0l-.14-.33v0l.15.36a6,6,0,0,1,2.21-.43,7.57,7.57,0,0,1,2.8.57l.14-.36h0l-.13.36a8.29,8.29,0,0,1,2.68,1.65l.26-.29h0l-.26.29.46.41.17-.6.81-2.9-.37-.1h0l.2-.33a16.3,16.3,0,0,0-3.74-1.76h0a10.65,10.65,0,0,0-3.42-.61,8.52,8.52,0,0,0-3.6.77l.13.28,0-.08-.09-.2h0a8.22,8.22,0,0,0-2.8,2.13h0a9.59,9.59,0,0,0-1.84,3.2h0a11.85,11.85,0,0,0-.66,4,12.33,12.33,0,0,0,.8,4.59h0l.26-.11.1,0-.36.15a9.39,9.39,0,0,0,2.13,3.21,8.42,8.42,0,0,0,3,1.89h0a9.38,9.38,0,0,0,3.44.66,11.1,11.1,0,0,0,3.19-.47,8.12,8.12,0,0,0,2.74-1.42h0a7.36,7.36,0,0,0,2-2.38h0a7.5,7.5,0,0,0,.91-3.34v-.25l-.23-.11ZM608.43,515h0l0,0,0,0Zm1.36-1.68h0l-.08,0Zm-5.25,3.17h0v0Zm2.76-16Zm-9.41,2.17h0l-.06-.05Zm3.3,16.3h0l0,.06Z"/><polygon points="443.03 492.26 442.59 492.37 442.77 492.79 443.12 492.63 443.03 492.26"/><polygon points="393.06 503.83 393.06 503.83 393.15 503.45 393.06 503.83"/><polygon points="428.62 519.83 428.65 520.22 429.05 520.18 429 519.79 428.62 519.83"/><path d="M672.35,496.53h0l.38,0a7.94,7.94,0,0,0-1-3,8.86,8.86,0,0,0-1.88-2.36h0a8,8,0,0,0-2.46-1.61,7.51,7.51,0,0,0-2.82-.57,6.49,6.49,0,0,0-2.74.63h0a6.15,6.15,0,0,0-2.4,1.92h0a7.44,7.44,0,0,0-.76,1.19h0l.34.17h0l-.34-.17a9.17,9.17,0,0,0-.62,1.75,19,19,0,0,0-.46,2.58l.38.05h0l-.37-.05h0c-.1,1-.14,2.25-.14,3.71h0c0,.21,0,.43,0,.65l-4.89-.08h-.39v4h5.52v12.09h3.44V506.42h10.28v-3.75h-.38v.39h0v-.39l-9.94-.18a40.89,40.89,0,0,1,.27-5h0a12.08,12.08,0,0,1,.78-3.06h0l-.32-.14h0l.35.15a2.46,2.46,0,0,1,1-1.3,3.11,3.11,0,0,1,1.41-.32,3.62,3.62,0,0,1,1.55.37l.16-.35h0l-.16.35h0a4.52,4.52,0,0,1,1.47,1h0l.23-.25,0,0h0l-.26.28a6.2,6.2,0,0,1,1.23,1.7v0a7.14,7.14,0,0,1,.77,2.27l.09.59.5-.33-.21-.32h0l.21.32,2.27-1.54.19-.14,0-.23Zm-14.44,6.24Zm1.85-11h0l-.08-.07Zm1.27,5.66Z"/><polygon points="607.21 503.77 607.22 503.77 607.35 503.41 607.21 503.77"/><polygon points="680.77 514.09 680.5 514.36 680.81 514.59 681.01 514.32 680.77 514.09"/><polygon points="440.94 501.6 440.59 501.78 440.59 501.78 440.59 501.78 440.59 501.78 440.37 501.46 431.24 507.6 430.65 499.49 430.27 499.51 430.27 499.51 430.65 499.49 430.62 499.08 430.22 499.13 427.41 499.5 427.46 499.88 427.46 499.88 427.41 499.5 427.05 499.54 427.08 499.9 428.62 519.83 429 519.79 429 519.79 429 519.79 429 519.79 429.05 520.18 431.4 519.91 431.36 519.52 431.36 519.52 431.4 519.91 431.74 519.87 431.74 519.52 431.74 512.11 442.08 504.63 442.35 504.43 442.2 504.14 440.94 501.6"/><path d="M487.71,505.22h0l.37-.1a5.57,5.57,0,0,0-2.52-3.59h0a7.44,7.44,0,0,0-4.09-1.14,11.89,11.89,0,0,0-4.11.74l.13.37h0l0-.06-.11-.31h0a12.27,12.27,0,0,0-3.55,2.11h0a10.28,10.28,0,0,0-2.58,3.19l.27.14,0,0-.23-.12h0a8.76,8.76,0,0,0-.95,4,7.48,7.48,0,0,0,1.92,5.52h0l.24-.25,0,0h0l-.27.28a6.9,6.9,0,0,0,4.93,1.87,11.45,11.45,0,0,0,4.4-.89h0l-.14-.33v0h0l.15.35a8.4,8.4,0,0,0,2.74-1.86l.15,6.85-1.65,1.42H470.22v4.3h14.49l.12-.12,3.17-3.44.1-.11V505.17l0-.05Zm-4.8,18.56Zm1.73-9.69h0Zm-8.38-8.37Zm7.55,4.1a9.12,9.12,0,0,1-1.87,2.16h0a10.06,10.06,0,0,1-2.48,1.48h0l.1.24.05.12-.15-.36A6.08,6.08,0,0,1,477,514a3.22,3.22,0,0,1-1.83-.53,2.64,2.64,0,0,1-1.05-1.75l-.36.08h0l.36-.08v0a3.41,3.41,0,0,1-.17-1.11,4.47,4.47,0,0,1,.72-2.46h0l-.22-.14,0,0,.25.16a8.64,8.64,0,0,1,1.82-2.13h0a9.35,9.35,0,0,1,2.43-1.43l-.14-.36h0l.15.35a6.72,6.72,0,0,1,2.43-.59,2.9,2.9,0,0,1,2.24.95l.29-.26h0l-.29.25h0a3.39,3.39,0,0,1,.94,2.45,4.42,4.42,0,0,1-.76,2.42h0l.29.18,0,0h0Zm-2.43-6.17v-.06h0Z"/><polygon points="677.78 517.98 678.1 518.31 678.37 517.94 678.05 517.71 677.78 517.98"/><polygon points="465.55 518.84 465.6 519.3 466.05 519.17 465.94 518.8 465.55 518.84"/><polygon points="377.49 519.65 377.61 519.99 377.96 519.89 377.85 519.52 377.49 519.65"/><polygon points="519.53 518.8 519.56 519.18 519.96 519.16 519.92 518.75 519.53 518.8"/><polygon points="445.03 501.94 444.64 501.94 444.64 502.32 444.64 518.89 444.64 519.25 445 519.27 448.17 519.45 448.58 519.48 448.58 519.07 448.58 502.32 448.58 501.94 448.19 501.94 445.03 501.94"/><polygon points="419.68 501.94 419.29 501.94 419.29 502.32 419.29 518.89 419.29 519.25 419.65 519.27 422.82 519.45 423.23 519.48 423.23 519.07 423.23 502.32 423.23 501.94 422.85 501.94 419.68 501.94"/><polygon points="449.19 498.61 449.3 498.98 449.72 498.86 449.55 498.46 449.19 498.61"/><path d="M648.42,502.7h0a5.64,5.64,0,0,0-2.6-1.82h0a9.55,9.55,0,0,0-3.38-.56,8.7,8.7,0,0,0-2.74.46h0a6.78,6.78,0,0,0-2.63,1.53l.27.28h0l-.26-.28a8.08,8.08,0,0,0-1.9,2.84h0a11,11,0,0,0-.75,4.32,14,14,0,0,0,.79,5.07h0l.36-.14h0l-.36.14a8.8,8.8,0,0,0,2.13,3.26,7.9,7.9,0,0,0,3,1.76,10.77,10.77,0,0,0,5.52.29h0a8.87,8.87,0,0,0,2-.57h0a6.71,6.71,0,0,0,1.58-.82,4.4,4.4,0,0,0,1-1l.11-.17-.07-.19-.81-2.17-.21-.54-.42.39a5.79,5.79,0,0,1-2.2,1.14,10.63,10.63,0,0,1-3.19.48,8.39,8.39,0,0,1-2-.22,5.43,5.43,0,0,1-1.74-.72,4.63,4.63,0,0,1-1.33-1.28,4.55,4.55,0,0,1-.54-1.62l12.16-1.18.35,0V511a19.4,19.4,0,0,0-.56-5A8,8,0,0,0,648.42,502.7Zm-11,6.86h0Zm2.81-5.35,0-.08h0Zm-1.58,1.19,0,0,.25.22h0a4.79,4.79,0,0,1,1.42-1.17h0a4.58,4.58,0,0,1,2-.49,4.37,4.37,0,0,1,3.5,1.22h0a4.61,4.61,0,0,1,1.05,2.93l-9.2,1V509a5.64,5.64,0,0,1,.29-1.82,4.56,4.56,0,0,1,.88-1.55l-.29-.25Zm9.5-2.44h0l0,0Zm-2.35,16.52h0v0Zm2-.55h0v0Z"/><path d="M397.24,510.41h0v0h0a5.1,5.1,0,0,0-1.39-1.48h0a6.46,6.46,0,0,0-2.29-1.14l-.07.23.07-.24h0l-.08.37h0l.08-.37-1.76-.36h0a21.41,21.41,0,0,1-2.18-.58,8.73,8.73,0,0,1-1.81-.91,1.17,1.17,0,0,1-.64-1,1.27,1.27,0,0,1,.17-.67,1.26,1.26,0,0,1,.54-.42h0a5.8,5.8,0,0,1,2.21-.38,8.61,8.61,0,0,1,1.47.13l.07-.38v0l-.06.35h0a9.36,9.36,0,0,1,1.53.26l.09-.38h0l-.09.38a11,11,0,0,1,1.31.39h0l.1-.35v0h0l-.11.37a5.1,5.1,0,0,1,.93.34l.44.22.11-.48-.37-.09h0l.37.09.64-2.72.06-.28-.26-.14-.18.34h0l.18-.34a10,10,0,0,0-2.72-.94h0a14.56,14.56,0,0,0-3.39-.38,9.17,9.17,0,0,0-5.15,1.2,4.48,4.48,0,0,0-1.85,4,4.54,4.54,0,0,0,.7,2.51v0l.27-.2h0l-.29.21a6.38,6.38,0,0,0,1.93,1.74,12.06,12.06,0,0,0,2.76,1.17h0l.07-.25,0-.12-.11.37a25.83,25.83,0,0,0,3.49.73,3,3,0,0,1,1.28.43l.22-.31h0l-.21.32a2.06,2.06,0,0,1,.65.63l.33-.18h0l-.33.18v0a1.58,1.58,0,0,1,.26.69h0l0,0,.37-.08h0l-.37.08a2.8,2.8,0,0,1,.07.56,2.44,2.44,0,0,1-1.32,1.91,6,6,0,0,1-2.73.59,13.76,13.76,0,0,1-1.89-.13h0a16.51,16.51,0,0,1-1.84-.44h0a16.12,16.12,0,0,1-1.6-.65h0a8.47,8.47,0,0,1-1.21-.81l-.24.29h0l.24-.29-.42-.36-.19.52-1.08,3.08.36.13h0l-.36-.13-.09.25.19.17a8.57,8.57,0,0,0,3.22,1.66l.12-.37h0l-.11.36h0a15.09,15.09,0,0,0,4.27.6,12.88,12.88,0,0,0,2.89-.33h0a8.73,8.73,0,0,0,2.7-1l-.2-.33h0l0,.08.15.25h0a6.51,6.51,0,0,0,2-1.92h0a5.21,5.21,0,0,0,.83-3,8,8,0,0,0-.18-1.67A4.69,4.69,0,0,0,397.24,510.41Zm-5.58-2.66Zm3.12,5.89Zm-8.28,2.26h0v0Zm10.5.59Z"/><path d="M561.72,503.5h0l.29-.26-2.08-2.35-.29.26h0l.29-.25-.12-.13H543.37l-.19-1.65,0-.43-.43.1.09.37h0l-.09-.37-2.8.63-.34.07,0,.35.38,0h0l-.39,0,2,19.28,0,.39.39,0,0-.38h0l0,.38,2.9-.36.38-.05,0-.37-.39,0h0l.39,0-1.5-14.42h6.61v14.39h3.4V503.88h4l1.62,2.19v12.27l.44-.06,0-.39h0l0,.39,1.91-.28-.06-.38h0l.06.38.33,0V503.35l-.1-.11Zm-3.71,0Zm-15-2.36Z"/><path d="M413.88,501.41c-1.57-1.51-3.83-2.24-6.69-2.24a27.3,27.3,0,0,0-5.89.78L401,500l0,.27-.28,2.08.39.05h0l-.39-.05v25.1l.43,0,0-.38h0l0,.38,2.8-.27.36,0v-.36l-.38,0h.38l-.34-9.42a7.65,7.65,0,0,0,1.34.52l.11-.37h0l0,.13-.07.24h0a10,10,0,0,0,2.83.38,9.92,9.92,0,0,0,2.77-.42,7,7,0,0,0,2.69-1.48,8.39,8.39,0,0,0,2-2.9,11,11,0,0,0,.8-4.46v-1h0c-.12-2.9-1-5.12-2.56-6.6Zm-10.59,11.05Zm-.18-9Zm.63,9.5Zm2.72,1.14Zm3.49-.09,0-.07,0,.07Zm1.3-1.31a3.68,3.68,0,0,1-1.42.94h0a5.3,5.3,0,0,1-1.61.25,8.37,8.37,0,0,1-1.67-.17q-.82-.22-1.53-.48a7,7,0,0,1-1-.59,2,2,0,0,1-.25-.23l0-.06-.18-8.68a5.78,5.78,0,0,1,1.52-.66,7,7,0,0,1,1.94-.26,6.7,6.7,0,0,1,2.14.34l.12-.36h0l-.12.35h0a4.7,4.7,0,0,1,1.84,1l.25-.3h0l-.25.3h0a4.11,4.11,0,0,1,1.28,1.62v0l.32-.17h0l-.35.18a4.8,4.8,0,0,1,.5,2.26,8.72,8.72,0,0,1-.42,2.9,5,5,0,0,1-1.09,1.81h0l.26.24,0,0h0Z"/><path d="M630.82,502.28l0-.22-.19-.09-.16.35h0l.17-.35-2.08-1-.08,0h-9V490.17h-3.49V519.5l.43,0,0-.38h0l0,.38,2.81-.27,0-.38h0l0,.38.34,0V504.61h7.87L629,519l0,.37.37,0,0-.38h0l0,.38,2.9-.18.4,0,0-.41Zm-3.1,1.94Z"/><polygon points="440.94 501.6 440.74 501.21 440.37 501.46 440.59 501.78 440.94 501.6"/><path d="M536.15,502.64h0a7.36,7.36,0,0,0-2.72-2.38,8.71,8.71,0,0,0-4-.86,7.63,7.63,0,0,0-3.52.81h0a7.55,7.55,0,0,0-2.63,2.19,10.9,10.9,0,0,0-1.64,3.29l.37.12h0l-.05,0-.32-.1h0a13.75,13.75,0,0,0-.56,4,14.7,14.7,0,0,0,.51,3.91l.37-.1h-.06l-.31.09h0a11.63,11.63,0,0,0,1.6,3.28h0l.28-.22h0l-.3.23a8.29,8.29,0,0,0,2.65,2.28h0l.15-.29,0-.05h0l-.18.34a7.86,7.86,0,0,0,3.75.86,8.09,8.09,0,0,0,3.08-.61h0a7.45,7.45,0,0,0,2.72-1.82,8.76,8.76,0,0,0,1.89-3.07h0a13,13,0,0,0,.84-4.38h0a17.32,17.32,0,0,0-.47-4.12A9.86,9.86,0,0,0,536.15,502.64Zm-10.41,1.76ZM527.36,516Zm6-1.46h0Zm1.06-2.07-.07,0-.3-.11h0a7.07,7.07,0,0,1-1,2h0a5.17,5.17,0,0,1-1.56,1.38,3.84,3.84,0,0,1-2,.54,3.38,3.38,0,0,1-1.91-.57,6,6,0,0,1-1.52-1.61,8,8,0,0,1-1-2.2h0a9.17,9.17,0,0,1-.35-2.52c0-2.23.46-3.75,1.3-4.67a4.74,4.74,0,0,1,3.65-1.42,4.22,4.22,0,0,1,3.42,1.54l.23-.2,0,0-.2.17h0c.88,1,1.36,2.78,1.36,5.41a6.46,6.46,0,0,1-.39,2.13l.37.13Zm1.4-9.6Zm1.09,11.59h0l.05,0Z"/><polygon points="611.34 502.33 611.42 502.06 611.17 501.9 610.97 502.23 611.34 502.33"/><polygon points="423.84 498.61 423.84 498.61 424.2 498.46 421.3 491.67 421.17 491.37 420.85 491.45 420.94 491.82 420.94 491.82 420.85 491.45 417.68 492.26 417.78 492.63 417.78 492.63 417.68 492.26 417.25 492.37 417.42 492.79 420.32 499.67 420.67 499.52 420.67 499.52 420.32 499.67 420.45 499.98 420.78 499.89 423.95 498.98 424.37 498.86 424.2 498.46 423.84 498.61"/><path d="M579.17,502.7h0a5.67,5.67,0,0,0-2.6-1.83h0a9.57,9.57,0,0,0-3.39-.56,8.64,8.64,0,0,0-2.73.46h0a6.75,6.75,0,0,0-2.64,1.53h0a7.92,7.92,0,0,0-1.91,2.85h0a10.87,10.87,0,0,0-.75,4.31,14.21,14.21,0,0,0,.79,5.07h0l.36-.14h0l-.36.14a8.7,8.7,0,0,0,2.14,3.26,7.75,7.75,0,0,0,3,1.76,10.65,10.65,0,0,0,3.28.52,11,11,0,0,0,2.24-.23h0a9.3,9.3,0,0,0,2-.57h0a7,7,0,0,0,1.59-.82,4.34,4.34,0,0,0,1-1l.12-.17-.07-.19-.82-2.17-.36.14h0l.36-.13-.2-.54-.43.39a5.71,5.71,0,0,1-2.2,1.14,10.58,10.58,0,0,1-3.19.48,8.45,8.45,0,0,1-2-.22,5.53,5.53,0,0,1-1.74-.72,4.76,4.76,0,0,1-1.33-1.28,5,5,0,0,1-.54-1.62L581,511.4l0-.39h0l0,.39.35,0V511a19.43,19.43,0,0,0-.55-5A8.3,8.3,0,0,0,579.17,502.7Zm-1.06,5.78Zm-9.62.54a5.65,5.65,0,0,1,.3-1.82,4.38,4.38,0,0,1,.87-1.55l-.29-.25,0,0,.25.22h0a4.92,4.92,0,0,1,1.42-1.17,4.59,4.59,0,0,1,2-.49,4.39,4.39,0,0,1,3.5,1.22h0a4.56,4.56,0,0,1,1.06,2.93l-9.21,1Zm4.64-5.37v-.06h0Zm-2.22.48Zm8-1.17h0l0,0Zm-2.45-1.73h0l0-.05Zm-5.88-.08Zm7.92,17.78Z"/><polygon points="468.84 517.98 468.84 517.98 468.84 517.98 469.22 517.95 467.86 503.19 467.48 503.23 467.48 503.23 467.86 503.19 467.86 503.12 467.82 503.05 466.47 500.34 466.35 500.11 466.1 500.13 456.01 500.73 456.01 498.88 456.01 498.41 455.54 498.5 455.62 498.88 455.62 498.88 455.54 498.5 453.37 498.95 453.45 499.33 453.44 499.33 453.37 498.95 453.06 499.02 453.06 499.33 453.06 518.8 453.06 519.23 453.49 519.18 455.75 518.91 455.71 518.53 455.71 518.53 455.75 518.91 456.09 518.87 456.09 518.53 456.09 504.43 464.14 504.43 465.55 518.84 465.94 518.8 465.94 518.8 465.94 518.8 466.05 519.17 468.94 518.35 469.25 518.27 469.22 517.95 468.84 517.98"/><polygon points="478.8 504.22 478.94 504.58 478.95 504.57 478.8 504.22"/><polygon points="393.38 511.64 393.39 511.65 393.6 511.33 393.38 511.64"/><path d="M396.1,416.27l19.09,19.8a3.6,3.6,0,0,1,1,2.39,3.69,3.69,0,0,1-.86,2.45,3.34,3.34,0,0,1-2.26,1.15,3.23,3.23,0,0,1-2.39-.77l-.28-.26-24.86-25.78a3.6,3.6,0,0,1-.24-4.67l.24-.28,24.86-25.78a3.3,3.3,0,0,1,4.66-.15,3.5,3.5,0,0,1,1.11,2.33,3.58,3.58,0,0,1-.74,2.49l-.25.28-19.08,19.79H420.4a49.92,49.92,0,0,1,24.07,5.89l1.11.63a45.51,45.51,0,0,1,17.21,17.84,54.64,54.64,0,0,1,6.28,26.13,3.55,3.55,0,0,1-1,2.47,3.3,3.3,0,0,1-2.39,1,3.33,3.33,0,0,1-2.39-1,3.59,3.59,0,0,1-1-2.47,47.36,47.36,0,0,0-5.42-22.7,38.61,38.61,0,0,0-14.61-15.16,42.81,42.81,0,0,0-20.54-5.6l-1.34,0H396.1l19.09,19.8Z"/></svg>