<svg width="266" height="200" viewBox="0 0 266 200" fill="none" xmlns="http://www.w3.org/2000/svg">
<path d="M136.625 100.152H129.49V107.273H136.625V100.152Z" fill="#B6A28D"/>
<path d="M143.761 100.152H136.625V107.273H143.761V100.152Z" fill="#5078BB"/>
<path d="M150.895 100.152H143.76V107.273H150.895V100.152Z" fill="#5078BB"/>
<path d="M158.031 107.273H150.896V114.408H158.031V107.273Z" fill="#B6A28D"/>
<path d="M158.031 100.152H150.896V107.273H158.031V100.152Z" fill="#B6A28D"/>
<path d="M165.151 107.273H158.031V114.408H165.151V107.273Z" fill="#B6A28D"/>
<path d="M165.151 100.152H158.031V107.273H165.151V100.152Z" fill="#B6A28D"/>
<path d="M172.286 107.273H165.151V114.408H172.286V107.273Z" fill="#B6A28D"/>
<path d="M172.286 100.152H165.151V107.273H172.286V100.152Z" fill="#B6A28D"/>
<path d="M179.421 107.273H172.286V114.408H179.421V107.273Z" fill="#B6A28D"/>
<path d="M179.421 100.152H172.286V107.273H179.421V100.152Z" fill="#B6A28D"/>
<path d="M186.556 107.273H179.421V114.408H186.556V107.273Z" fill="#B6A28D"/>
<path d="M186.556 100.152H179.421V107.273H186.556V100.152Z" fill="#B6A28D"/>
<path d="M193.692 107.273H186.557V114.408H193.692V107.273Z" fill="#B6A28D"/>
<path d="M193.692 100.152H186.557V107.273H193.692V100.152Z" fill="#B6A28D"/>
<path d="M200.812 107.273H193.691V114.408H200.812V107.273Z" fill="#B6A28D"/>
<path d="M200.812 100.152H193.691V107.273H200.812V100.152Z" fill="#B6A28D"/>
<path d="M207.947 107.273H200.812V114.408H207.947V107.273Z" fill="#B6A28D"/>
<path d="M207.947 100.152H200.812V107.273H207.947V100.152Z" fill="#B6A28D"/>
<path d="M215.082 107.273H207.947V114.408H215.082V107.273Z" fill="#B6A28D"/>
<path d="M215.082 100.152H207.947V107.273H215.082V100.152Z" fill="#B6A28D"/>
<path d="M222.217 100.152H215.082V107.273H222.217V100.152Z" fill="#5078BB"/>
<path d="M229.352 100.152H222.217V107.273H229.352V100.152Z" fill="#5078BB"/>
<path d="M236.473 100.152H229.353V107.273H236.473V100.152Z" fill="#B6A28D"/>
<path d="M129.49 107.273V114.408V121.543H122.369V114.408H115.234V107.273H122.369H129.49Z" fill="#5A5F6E"/>
<path d="M143.76 150.069H150.896H158.031H165.151H172.286H179.421V142.934V135.813V128.678V121.543V114.408H186.556V121.543V128.678V135.813V142.934V150.069H193.692H200.812H207.947H215.082H222.217H229.352H236.473V157.204H229.352H222.217H215.082H207.947H200.812H193.692H186.556H179.421H172.286H165.151H158.031H150.896H143.76H136.625H129.49V150.069H136.625H143.76Z" fill="#5A5F6E"/>
<path d="M150.895 128.678H143.76V121.543H150.895H158.03H165.151V128.678H158.03H150.895Z" fill="#5A5F6E"/>
<path d="M236.473 121.543H229.353V114.408H236.473H243.608V121.543V128.678H236.473V121.543Z" fill="#5A5F6E"/>
<path d="M122.369 185.73V178.595H129.49H136.625V185.73H129.49V192.865H136.625H143.76H150.895H158.03H165.151H172.286V185.73V178.595H179.421H186.556H193.691V185.73V192.865H200.812H207.947H215.082H222.217H229.352H236.473V185.73H229.352V178.595H236.473H243.608V185.73H250.743V192.865H243.608V200H236.473H229.352H222.217H215.082H207.947H200.812H193.691H186.556H179.421H172.286H165.151H158.03H150.895H143.76H136.625H129.49H122.369V192.865H115.234V185.73H122.369Z" fill="#BDB5B3"/>
<path d="M100.964 85.8821H115.234V93.0174H122.369V100.152H129.49V107.273H115.234V114.408H122.369V121.543H129.49V107.273H150.895V114.408H179.407V150.141H129.475V157.276H236.458V150.141H186.542V114.48H215.068V107.345H243.593V114.48H229.338V121.616H236.458V128.751H243.593V114.48H250.729V121.616H257.864V135.886H264.999V150.141H250.729V157.276H243.593V171.547H236.458V178.667H229.338V185.803H236.458V192.938H193.677V178.667H172.271V192.938H129.475V185.803H136.611V178.667H129.475V171.547H122.355V157.276H115.22V128.678H108.085V114.408H100.95L100.964 85.8821ZM158.03 121.543H143.76V128.678H165.151V121.543H158.03Z" fill="#312A1D"/>
<path d="M127.764 107.273L238.213 107.273V9.52794L127.764 9.52794L127.764 107.273Z" fill="#BF9F8C"/>
<path d="M218.737 97.542H238.199V90.987H218.737V97.542Z" fill="#6B5C53"/>
<path d="M127.765 97.542H147.227V90.987H127.765V97.542Z" fill="#6B5C53"/>
<path d="M147.241 107.273L218.751 107.273V100.718L147.241 100.718V107.273Z" fill="#6B5C53"/>
<path d="M209.006 9.54248H156.958V19.0849H209.006V9.54248Z" fill="#312A1D"/>
<path d="M137.495 38.9384H127.75V9.54246V0H137.495H156.957V9.54246H137.495V38.9384Z" fill="#312A1D"/>
<path d="M127.75 38.9385H118.019V97.5419H127.75V38.9385Z" fill="#312A1D"/>
<path d="M228.468 9.54246H209.006V0H228.468H238.213V9.54246V38.9384H228.468V9.54246Z" fill="#312A1D"/>
<path d="M228.468 97.542H238.213V107.273H228.468H218.737V97.542H228.468Z" fill="#312A1D"/>
<path d="M218.737 107.273H147.227V117.004H218.737V107.273Z" fill="#312A1D"/>
<path d="M147.226 97.542V107.273H137.495H127.75V97.542H137.495H147.226Z" fill="#312A1D"/>
<path d="M247.944 38.9385H238.213V97.5419H247.944V38.9385Z" fill="#312A1D"/>
<path d="M147.226 12.907H150.402V19.462H147.226V22.6525H140.671V19.462V12.907H147.226Z" fill="#6B5C53"/>
<path d="M215.358 12.907H218.548H225.103V19.462V22.6525H218.548V19.462H215.358V12.907Z" fill="#6B5C53"/>
<path d="M209.006 55.2244H199.072V65.1584H209.006V55.2244Z" fill="#312A1D"/>
<path d="M196.099 64.9553H189.544V71.5103H196.099V64.9553Z" fill="#312A1D"/>
<path d="M176.434 64.9553H169.879V71.5103H176.434V64.9553Z" fill="#312A1D"/>
<path d="M169.879 84.432H176.434V81.256H189.544V84.432H196.099V71.5105H202.654V94.1629H196.099V97.542H189.544V100.718H186.354V103.894H179.799V100.718H176.434V97.542H169.879V94.1629H163.31V71.5105H169.879V84.432Z" fill="#312A1D"/>
<path d="M166.892 55.2244H156.958V65.1584H166.892V55.2244Z" fill="#312A1D"/>
<path d="M129.49 50.2214H243.608V57.3274H222.217V64.4478H215.082V71.5831H186.556V57.3274H179.407V71.5831H150.881V64.4478H143.746V57.3274H122.355V50.1924L129.49 50.2214Z" fill="#312A1D"/>
<path d="M92.7269 85.8821H85.5918V93.0172H92.7269V85.8821Z" fill="white"/>
<path d="M78.4572 100.152V93.0173H21.4056V85.882H7.13525V64.4912H78.4572V71.6265H99.8625V107.287H78.4572V100.152ZM71.322 78.747H28.5841V85.882H78.5153V78.747H71.322ZM92.7273 85.882H85.5923V93.0173H92.7273V85.882Z" fill="#5A5F6E"/>
<path d="M85.5923 57.3271H0.0292969V92.9882H14.2994V100.123H71.351V114.379H107.012V65.4485H85.6212L85.5923 57.3271ZM99.8624 78.7179V107.258H78.4571V92.9882H21.4055V85.8529H7.13523V64.4621H78.4571V71.5974H99.8624V78.7179Z" fill="#312A1D"/>
<path d="M35.661 78.7471H42.7961H49.9311H57.0662H64.1868H71.3219H78.457V85.8822H71.3219H64.1868H57.0662H49.9311H42.7961H35.661H28.5259V78.7471H35.661Z" fill="#312A1D"/>
</svg>
