<?xml version="1.0" encoding="utf-8"?>
<!-- Generator: Adobe Illustrator 25.4.1, SVG Export Plug-In . SVG Version: 6.00 Build 0)  -->
<svg version="1.1" id="Layer_1" xmlns="http://www.w3.org/2000/svg" xmlns:xlink="http://www.w3.org/1999/xlink" x="0px" y="0px"
	 viewBox="0 0 415.65 32.92" style="enable-background:new 0 0 415.65 32.92;" xml:space="preserve">
<style type="text/css">
	.st0{fill:#010202;}
	.st1{fill:#FFFFFF;}
	.st2{fill:#323B60;}
</style>
<g>
	<path class="st0" d="M29.15-71.5H9.11c-1.25,0-2.43-0.24-3.54-0.71s-2.07-1.13-2.9-1.95c-0.83-0.83-1.49-1.79-1.96-2.89
		C0.24-78.16,0-79.33,0-80.57h3.4c0,1.56,0.56,2.9,1.68,4.01c1.12,1.11,2.46,1.66,4.04,1.66h20.04c1.56,0,2.9-0.56,4.03-1.66
		c1.12-1.11,1.69-2.44,1.69-4.01c0-1.56-0.56-2.9-1.69-4.02c-1.12-1.12-2.47-1.68-4.03-1.68H9.11c-1.25,0-2.43-0.24-3.54-0.71
		s-2.07-1.12-2.9-1.95c-0.83-0.83-1.49-1.79-1.96-2.89C0.24-92.92,0-94.09,0-95.33c0-1.25,0.24-2.43,0.71-3.52
		c0.47-1.09,1.13-2.06,1.96-2.89c0.83-0.83,1.8-1.49,2.9-1.96s2.28-0.71,3.54-0.71h20.04c1.25,0,2.43,0.24,3.53,0.71
		c1.1,0.47,2.07,1.13,2.9,1.96c0.83,0.83,1.49,1.8,1.96,2.89c0.47,1.09,0.71,2.27,0.71,3.52h-3.4c0-1.56-0.56-2.9-1.69-4.02
		c-1.12-1.12-2.47-1.68-4.03-1.68H9.11c-1.58,0-2.92,0.56-4.04,1.68c-1.12,1.12-1.68,2.46-1.68,4.02c0,1.56,0.56,2.9,1.68,4.01
		s2.46,1.66,4.04,1.66h20.04c1.25,0,2.43,0.24,3.53,0.71c1.1,0.47,2.07,1.13,2.9,1.96c0.83,0.83,1.49,1.8,1.96,2.89
		c0.47,1.09,0.71,2.27,0.71,3.52c0,1.24-0.24,2.41-0.71,3.51c-0.47,1.1-1.13,2.06-1.96,2.89c-0.83,0.83-1.8,1.48-2.9,1.95
		C31.59-71.74,30.41-71.5,29.15-71.5z"/>
	<path class="st0" d="M48.14-71.5h-3.42v-32.92h3.42V-71.5z"/>
	<path class="st0" d="M93.17-71.5H58.56v-32.92h3.4v29.52h33.17L93.17-71.5z"/>
	<path class="st0" d="M105-71.5h-1.93l-19.7-32.92h3.97l16.67,27.91l16.41-27.91h3.93L105-71.5z"/>
	<path class="st0" d="M203.25-71.5l-11.59-14.76h-19.03v14.76h-3.42v-32.92h29.15c1.25,0,2.43,0.24,3.53,0.71
		c1.1,0.47,2.07,1.13,2.89,1.97c0.84,0.83,1.5,1.79,1.97,2.88c0.47,1.09,0.71,2.27,0.71,3.52c0,1.24-0.24,2.41-0.71,3.51
		c-0.47,1.1-1.13,2.07-1.97,2.89c-0.83,0.83-1.79,1.48-2.89,1.95c-1.1,0.47-2.28,0.71-3.53,0.71h-2.39l11.59,14.76H203.25z
		 M172.63-101.02v11.36h25.73c1.58,0,2.92-0.55,4.04-1.65c1.12-1.12,1.68-2.46,1.68-4.02c0-1.56-0.56-2.9-1.68-4.02
		c-1.12-1.12-2.46-1.68-4.04-1.68H172.63z"/>
	<path class="st0" d="M242.57-71.5h-20.04c-1.25,0-2.43-0.24-3.53-0.71c-1.1-0.47-2.07-1.13-2.9-1.95
		c-0.83-0.83-1.49-1.79-1.96-2.89c-0.47-1.1-0.71-2.27-0.71-3.51h3.4c0,1.56,0.56,2.9,1.68,4.01c1.12,1.11,2.46,1.66,4.04,1.66
		h20.04c1.56,0,2.9-0.56,4.03-1.66c1.13-1.11,1.69-2.44,1.69-4.01c0-1.56-0.56-2.9-1.69-4.02c-1.12-1.12-2.47-1.68-4.03-1.68h-20.04
		c-1.25,0-2.43-0.24-3.53-0.71c-1.1-0.47-2.07-1.12-2.9-1.95c-0.83-0.83-1.49-1.79-1.96-2.89c-0.47-1.1-0.71-2.27-0.71-3.51
		c0-1.25,0.24-2.43,0.71-3.52c0.47-1.09,1.13-2.06,1.96-2.89c0.83-0.83,1.8-1.49,2.9-1.96c1.1-0.47,2.28-0.71,3.53-0.71h20.04
		c1.25,0,2.43,0.24,3.53,0.71c1.1,0.47,2.07,1.13,2.9,1.96c0.83,0.83,1.49,1.8,1.96,2.89c0.47,1.09,0.71,2.27,0.71,3.52h-3.4
		c0-1.56-0.56-2.9-1.69-4.02c-1.12-1.12-2.47-1.68-4.03-1.68h-20.04c-1.58,0-2.92,0.56-4.04,1.68c-1.12,1.12-1.68,2.46-1.68,4.02
		c0,1.56,0.56,2.9,1.68,4.01s2.46,1.66,4.04,1.66h20.04c1.25,0,2.43,0.24,3.53,0.71c1.1,0.47,2.07,1.13,2.9,1.96
		c0.83,0.83,1.49,1.8,1.96,2.89c0.47,1.09,0.71,2.27,0.71,3.52c0,1.24-0.24,2.41-0.71,3.51c-0.47,1.1-1.13,2.06-1.96,2.89
		c-0.83,0.83-1.8,1.48-2.9,1.95C245-71.74,243.82-71.5,242.57-71.5z"/>
	<path class="st0" d="M272.36-71.5h-3.38l-0.05-29.52h-15.7v-3.4h34.87l-1.99,3.4h-13.78L272.36-71.5z"/>
	<path class="st0" d="M312.65-71.5h-11.62c-1.84,0-3.56-0.34-5.18-1.03c-1.62-0.69-3.03-1.64-4.25-2.86
		c-1.22-1.22-2.17-2.63-2.87-4.24c-0.7-1.61-1.04-3.32-1.04-5.14v-6.36c0-1.84,0.35-3.55,1.04-5.15c0.7-1.6,1.65-3.01,2.87-4.22
		s2.63-2.17,4.25-2.87c1.61-0.7,3.34-1.04,5.18-1.04h11.62c1.82,0,3.54,0.35,5.15,1.04c1.61,0.7,3.03,1.65,4.25,2.87
		c1.22,1.22,2.17,2.62,2.87,4.22c0.7,1.6,1.04,3.32,1.04,5.15v6.36c0,1.82-0.35,3.54-1.04,5.14c-0.7,1.61-1.65,3.02-2.87,4.24
		c-1.22,1.22-2.63,2.17-4.25,2.86C316.19-71.85,314.47-71.5,312.65-71.5z M312.65-74.9c1.36,0,2.64-0.26,3.83-0.77
		c1.19-0.51,2.25-1.22,3.16-2.12c0.91-0.9,1.63-1.95,2.15-3.16c0.52-1.2,0.78-2.48,0.78-3.82v-6.36c0-1.36-0.26-2.64-0.78-3.83
		c-0.52-1.19-1.24-2.25-2.15-3.16c-0.91-0.91-1.96-1.62-3.16-2.13c-1.19-0.51-2.47-0.77-3.83-0.77h-11.62
		c-1.36,0-2.64,0.26-3.84,0.77c-1.2,0.51-2.26,1.22-3.17,2.13c-0.91,0.91-1.62,1.96-2.13,3.16c-0.51,1.19-0.77,2.47-0.77,3.83v6.36
		c0,1.35,0.26,2.62,0.77,3.82c0.51,1.2,1.22,2.25,2.13,3.16c0.91,0.9,1.97,1.61,3.17,2.12c1.2,0.51,2.48,0.77,3.84,0.77H312.65z"/>
	<path class="st0" d="M370.45-71.5h-4.18l-30.67-28.97v28.97h-3.42v-32.92h4.18l30.69,28.99v-28.99h3.4V-71.5z"/>
	<polygon class="st0" points="126.56,-86.33 144.15,-86.33 145.94,-89.73 126.56,-89.73 	"/>
	<g>
		<polygon class="st0" points="132.2,-101.02 134.41,-101.02 138.09,-101.02 163.36,-101.02 165.35,-104.42 128.78,-104.42 
			128.78,-101.02 		"/>
		<polygon class="st0" points="134.41,-74.9 132.2,-74.9 128.78,-74.9 128.78,-71.5 163.36,-71.5 165.35,-74.9 138.09,-74.9 		"/>
	</g>
	<polygon class="st0" points="376.86,-86.33 394.45,-86.33 396.24,-89.73 376.86,-89.73 	"/>
	<g>
		<polygon class="st0" points="382.5,-101.02 384.7,-101.02 388.39,-101.02 413.66,-101.02 415.65,-104.42 379.08,-104.42 
			379.08,-101.02 		"/>
		<polygon class="st0" points="384.7,-74.9 382.5,-74.9 379.08,-74.9 379.08,-71.5 413.66,-71.5 415.65,-74.9 388.39,-74.9 		"/>
	</g>
</g>
<g>
	<path class="st1" d="M29.15-21.6H9.11c-1.25,0-2.43-0.24-3.54-0.71s-2.07-1.13-2.9-1.95c-0.83-0.83-1.49-1.79-1.96-2.89
		C0.24-28.26,0-29.43,0-30.67h3.4c0,1.56,0.56,2.9,1.68,4.01C6.19-25.55,7.54-25,9.11-25h20.04c1.56,0,2.9-0.56,4.03-1.66
		c1.12-1.11,1.69-2.44,1.69-4.01c0-1.56-0.56-2.9-1.69-4.02c-1.12-1.12-2.47-1.68-4.03-1.68H9.11c-1.25,0-2.43-0.24-3.54-0.71
		s-2.07-1.12-2.9-1.95c-0.83-0.83-1.49-1.79-1.96-2.89C0.24-43.02,0-44.19,0-45.43c0-1.25,0.24-2.43,0.71-3.52
		c0.47-1.09,1.13-2.06,1.96-2.89s1.8-1.49,2.9-1.96s2.28-0.71,3.54-0.71h20.04c1.25,0,2.43,0.24,3.53,0.71
		c1.1,0.47,2.07,1.13,2.9,1.96c0.83,0.83,1.49,1.8,1.96,2.89c0.47,1.09,0.71,2.27,0.71,3.52h-3.4c0-1.56-0.56-2.9-1.69-4.02
		c-1.12-1.12-2.47-1.68-4.03-1.68H9.11c-1.58,0-2.92,0.56-4.04,1.68c-1.12,1.12-1.68,2.46-1.68,4.02c0,1.56,0.56,2.9,1.68,4.01
		c1.12,1.11,2.46,1.66,4.04,1.66h20.04c1.25,0,2.43,0.24,3.53,0.71c1.1,0.47,2.07,1.13,2.9,1.96c0.83,0.83,1.49,1.8,1.96,2.89
		c0.47,1.09,0.71,2.27,0.71,3.52c0,1.24-0.24,2.41-0.71,3.51c-0.47,1.1-1.13,2.06-1.96,2.89c-0.83,0.83-1.8,1.48-2.9,1.95
		C31.59-21.84,30.41-21.6,29.15-21.6z"/>
	<path class="st1" d="M48.14-21.6h-3.42v-32.92h3.42V-21.6z"/>
	<path class="st1" d="M93.17-21.6H58.56v-32.92h3.4V-25h33.17L93.17-21.6z"/>
	<path class="st1" d="M105-21.6h-1.93l-19.7-32.92h3.97l16.67,27.91l16.41-27.91h3.93L105-21.6z"/>
	<path class="st1" d="M203.25-21.6l-11.59-14.76h-19.03v14.76h-3.42v-32.92h29.15c1.25,0,2.43,0.24,3.53,0.71
		c1.1,0.47,2.07,1.13,2.89,1.97c0.84,0.83,1.5,1.79,1.97,2.88c0.47,1.09,0.71,2.27,0.71,3.52c0,1.24-0.24,2.41-0.71,3.51
		c-0.47,1.1-1.13,2.07-1.97,2.89c-0.83,0.83-1.79,1.48-2.89,1.95c-1.1,0.47-2.28,0.71-3.53,0.71h-2.39l11.59,14.76H203.25z
		 M172.63-51.12v11.36h25.73c1.58,0,2.92-0.55,4.04-1.65c1.12-1.12,1.68-2.46,1.68-4.02c0-1.56-0.56-2.9-1.68-4.02
		c-1.12-1.12-2.46-1.68-4.04-1.68H172.63z"/>
	<path class="st1" d="M242.57-21.6h-20.04c-1.25,0-2.43-0.24-3.53-0.71c-1.1-0.47-2.07-1.13-2.9-1.95
		c-0.83-0.83-1.49-1.79-1.96-2.89c-0.47-1.1-0.71-2.27-0.71-3.51h3.4c0,1.56,0.56,2.9,1.68,4.01c1.12,1.11,2.46,1.66,4.04,1.66
		h20.04c1.56,0,2.9-0.56,4.03-1.66c1.13-1.11,1.69-2.44,1.69-4.01c0-1.56-0.56-2.9-1.69-4.02c-1.12-1.12-2.47-1.68-4.03-1.68h-20.04
		c-1.25,0-2.43-0.24-3.53-0.71c-1.1-0.47-2.07-1.12-2.9-1.95c-0.83-0.83-1.49-1.79-1.96-2.89c-0.47-1.1-0.71-2.27-0.71-3.51
		c0-1.25,0.24-2.43,0.71-3.52c0.47-1.09,1.13-2.06,1.96-2.89c0.83-0.83,1.8-1.49,2.9-1.96c1.1-0.47,2.28-0.71,3.53-0.71h20.04
		c1.25,0,2.43,0.24,3.53,0.71c1.1,0.47,2.07,1.13,2.9,1.96c0.83,0.83,1.49,1.8,1.96,2.89c0.47,1.09,0.71,2.27,0.71,3.52h-3.4
		c0-1.56-0.56-2.9-1.69-4.02c-1.12-1.12-2.47-1.68-4.03-1.68h-20.04c-1.58,0-2.92,0.56-4.04,1.68c-1.12,1.12-1.68,2.46-1.68,4.02
		c0,1.56,0.56,2.9,1.68,4.01c1.12,1.11,2.46,1.66,4.04,1.66h20.04c1.25,0,2.43,0.24,3.53,0.71c1.1,0.47,2.07,1.13,2.9,1.96
		c0.83,0.83,1.49,1.8,1.96,2.89c0.47,1.09,0.71,2.27,0.71,3.52c0,1.24-0.24,2.41-0.71,3.51c-0.47,1.1-1.13,2.06-1.96,2.89
		c-0.83,0.83-1.8,1.48-2.9,1.95C245-21.84,243.82-21.6,242.57-21.6z"/>
	<path class="st1" d="M272.36-21.6h-3.38l-0.05-29.52h-15.7v-3.4h34.87l-1.99,3.4h-13.78L272.36-21.6z"/>
	<path class="st1" d="M312.65-21.6h-11.62c-1.84,0-3.56-0.34-5.18-1.03c-1.62-0.69-3.03-1.64-4.25-2.86s-2.17-2.63-2.87-4.24
		c-0.7-1.61-1.04-3.32-1.04-5.14v-6.36c0-1.84,0.35-3.55,1.04-5.15c0.7-1.6,1.65-3.01,2.87-4.22c1.22-1.22,2.63-2.17,4.25-2.87
		c1.61-0.7,3.34-1.04,5.18-1.04h11.62c1.82,0,3.54,0.35,5.15,1.04c1.61,0.7,3.03,1.65,4.25,2.87c1.22,1.22,2.17,2.62,2.87,4.22
		c0.7,1.6,1.04,3.32,1.04,5.15v6.36c0,1.82-0.35,3.54-1.04,5.14c-0.7,1.61-1.65,3.02-2.87,4.24c-1.22,1.22-2.63,2.17-4.25,2.86
		C316.19-21.95,314.47-21.6,312.65-21.6z M312.65-25c1.36,0,2.64-0.26,3.83-0.77c1.19-0.51,2.25-1.22,3.16-2.12
		c0.91-0.9,1.63-1.95,2.15-3.16c0.52-1.2,0.78-2.48,0.78-3.82v-6.36c0-1.36-0.26-2.64-0.78-3.83c-0.52-1.19-1.24-2.25-2.15-3.16
		c-0.91-0.91-1.96-1.62-3.16-2.13c-1.19-0.51-2.47-0.77-3.83-0.77h-11.62c-1.36,0-2.64,0.26-3.84,0.77
		c-1.2,0.51-2.26,1.22-3.17,2.13c-0.91,0.91-1.62,1.96-2.13,3.16c-0.51,1.19-0.77,2.47-0.77,3.83v6.36c0,1.35,0.26,2.62,0.77,3.82
		c0.51,1.2,1.22,2.25,2.13,3.16c0.91,0.9,1.97,1.61,3.17,2.12c1.2,0.51,2.48,0.77,3.84,0.77H312.65z"/>
	<path class="st1" d="M370.45-21.6h-4.18l-30.67-28.97v28.97h-3.42v-32.92h4.18l30.69,28.99v-28.99h3.4V-21.6z"/>
	<polygon class="st1" points="126.56,-36.43 144.15,-36.43 145.94,-39.83 126.56,-39.83 	"/>
	<g>
		<polygon class="st1" points="132.2,-51.12 134.41,-51.12 138.09,-51.12 163.36,-51.12 165.35,-54.52 128.78,-54.52 128.78,-51.12 
					"/>
		<polygon class="st1" points="134.41,-25 132.2,-25 128.78,-25 128.78,-21.6 163.36,-21.6 165.35,-25 138.09,-25 		"/>
	</g>
	<polygon class="st1" points="376.86,-36.43 394.45,-36.43 396.24,-39.83 376.86,-39.83 	"/>
	<g>
		<polygon class="st1" points="382.5,-51.12 384.7,-51.12 388.39,-51.12 413.66,-51.12 415.65,-54.52 379.08,-54.52 379.08,-51.12 
					"/>
		<polygon class="st1" points="384.7,-25 382.5,-25 379.08,-25 379.08,-21.6 413.66,-21.6 415.65,-25 388.39,-25 		"/>
	</g>
</g>
<g>
	<path class="st2" d="M29.15,32.92H9.11c-1.25,0-2.43-0.24-3.54-0.71c-1.1-0.47-2.07-1.13-2.9-1.95c-0.83-0.83-1.49-1.79-1.96-2.89
		C0.24,26.26,0,25.09,0,23.85h3.4c0,1.56,0.56,2.9,1.68,4.01c1.12,1.11,2.46,1.66,4.04,1.66h20.04c1.56,0,2.9-0.56,4.03-1.66
		c1.12-1.11,1.69-2.44,1.69-4.01c0-1.56-0.56-2.9-1.69-4.02s-2.47-1.68-4.03-1.68H9.11c-1.25,0-2.43-0.24-3.54-0.71
		s-2.07-1.12-2.9-1.95S1.19,13.7,0.71,12.6C0.24,11.5,0,10.33,0,9.09c0-1.25,0.24-2.43,0.71-3.52c0.47-1.09,1.13-2.06,1.96-2.89
		s1.8-1.49,2.9-1.96S7.86,0,9.11,0h20.04c1.25,0,2.43,0.24,3.53,0.71c1.1,0.47,2.07,1.13,2.9,1.96c0.83,0.83,1.49,1.8,1.96,2.89
		c0.47,1.09,0.71,2.27,0.71,3.52h-3.4c0-1.56-0.56-2.9-1.69-4.02c-1.12-1.12-2.47-1.68-4.03-1.68H9.11c-1.58,0-2.92,0.56-4.04,1.68
		C3.96,6.19,3.4,7.53,3.4,9.09c0,1.56,0.56,2.9,1.68,4.01s2.46,1.66,4.04,1.66h20.04c1.25,0,2.43,0.24,3.53,0.71
		c1.1,0.47,2.07,1.13,2.9,1.96c0.83,0.83,1.49,1.8,1.96,2.89c0.47,1.09,0.71,2.27,0.71,3.52c0,1.24-0.24,2.41-0.71,3.51
		c-0.47,1.1-1.13,2.06-1.96,2.89c-0.83,0.83-1.8,1.48-2.9,1.95C31.59,32.68,30.41,32.92,29.15,32.92z"/>
	<path class="st2" d="M48.14,32.92h-3.42V0h3.42V32.92z"/>
	<path class="st2" d="M93.17,32.92H58.56V0h3.4v29.52h33.17L93.17,32.92z"/>
	<path class="st2" d="M105,32.92h-1.93L83.38,0h3.97l16.67,27.91L120.43,0h3.93L105,32.92z"/>
	<path class="st2" d="M203.25,32.92l-11.59-14.76h-19.03v14.76h-3.42V0h29.15c1.25,0,2.43,0.24,3.53,0.71
		c1.1,0.47,2.07,1.13,2.89,1.97c0.84,0.83,1.5,1.79,1.97,2.88c0.47,1.09,0.71,2.27,0.71,3.52c0,1.24-0.24,2.41-0.71,3.51
		c-0.47,1.1-1.13,2.07-1.97,2.89c-0.83,0.83-1.79,1.48-2.89,1.95c-1.1,0.47-2.28,0.71-3.53,0.71h-2.39l11.59,14.76H203.25z
		 M172.63,3.4v11.36h25.73c1.58,0,2.92-0.55,4.04-1.65c1.12-1.12,1.68-2.46,1.68-4.02c0-1.56-0.56-2.9-1.68-4.02
		c-1.12-1.12-2.46-1.68-4.04-1.68H172.63z"/>
	<path class="st2" d="M242.57,32.92h-20.04c-1.25,0-2.43-0.24-3.53-0.71c-1.1-0.47-2.07-1.13-2.9-1.95
		c-0.83-0.83-1.49-1.79-1.96-2.89c-0.47-1.1-0.71-2.27-0.71-3.51h3.4c0,1.56,0.56,2.9,1.68,4.01c1.12,1.11,2.46,1.66,4.04,1.66
		h20.04c1.56,0,2.9-0.56,4.03-1.66c1.13-1.11,1.69-2.44,1.69-4.01c0-1.56-0.56-2.9-1.69-4.02c-1.12-1.12-2.47-1.68-4.03-1.68h-20.04
		c-1.25,0-2.43-0.24-3.53-0.71c-1.1-0.47-2.07-1.12-2.9-1.95c-0.83-0.83-1.49-1.79-1.96-2.89c-0.47-1.1-0.71-2.27-0.71-3.51
		c0-1.25,0.24-2.43,0.71-3.52c0.47-1.09,1.13-2.06,1.96-2.89c0.83-0.83,1.8-1.49,2.9-1.96c1.1-0.47,2.28-0.71,3.53-0.71h20.04
		c1.25,0,2.43,0.24,3.53,0.71c1.1,0.47,2.07,1.13,2.9,1.96c0.83,0.83,1.49,1.8,1.96,2.89c0.47,1.09,0.71,2.27,0.71,3.52h-3.4
		c0-1.56-0.56-2.9-1.69-4.02c-1.12-1.12-2.47-1.68-4.03-1.68h-20.04c-1.58,0-2.92,0.56-4.04,1.68c-1.12,1.12-1.68,2.46-1.68,4.02
		c0,1.56,0.56,2.9,1.68,4.01s2.46,1.66,4.04,1.66h20.04c1.25,0,2.43,0.24,3.53,0.71c1.1,0.47,2.07,1.13,2.9,1.96
		c0.83,0.83,1.49,1.8,1.96,2.89c0.47,1.09,0.71,2.27,0.71,3.52c0,1.24-0.24,2.41-0.71,3.51c-0.47,1.1-1.13,2.06-1.96,2.89
		c-0.83,0.83-1.8,1.48-2.9,1.95C245,32.68,243.82,32.92,242.57,32.92z"/>
	<path class="st2" d="M272.36,32.92h-3.38L268.94,3.4h-15.7V0h34.87l-1.99,3.4h-13.78L272.36,32.92z"/>
	<path class="st2" d="M312.65,32.92h-11.62c-1.84,0-3.56-0.34-5.18-1.03c-1.62-0.69-3.03-1.64-4.25-2.86s-2.17-2.63-2.87-4.24
		c-0.7-1.61-1.04-3.32-1.04-5.14v-6.36c0-1.84,0.35-3.55,1.04-5.15c0.7-1.6,1.65-3.01,2.87-4.22s2.63-2.17,4.25-2.87
		c1.61-0.7,3.34-1.04,5.18-1.04h11.62c1.82,0,3.54,0.35,5.15,1.04c1.61,0.7,3.03,1.65,4.25,2.87c1.22,1.22,2.17,2.62,2.87,4.22
		c0.7,1.6,1.04,3.32,1.04,5.15v6.36c0,1.82-0.35,3.54-1.04,5.14c-0.7,1.61-1.65,3.02-2.87,4.24c-1.22,1.22-2.63,2.17-4.25,2.86
		C316.19,32.57,314.47,32.92,312.65,32.92z M312.65,29.52c1.36,0,2.64-0.26,3.83-0.77c1.19-0.51,2.25-1.22,3.16-2.12
		c0.91-0.9,1.63-1.95,2.15-3.16c0.52-1.2,0.78-2.48,0.78-3.82v-6.36c0-1.36-0.26-2.64-0.78-3.83c-0.52-1.19-1.24-2.25-2.15-3.16
		c-0.91-0.91-1.96-1.62-3.16-2.13c-1.19-0.51-2.47-0.77-3.83-0.77h-11.62c-1.36,0-2.64,0.26-3.84,0.77
		c-1.2,0.51-2.26,1.22-3.17,2.13c-0.91,0.91-1.62,1.96-2.13,3.16c-0.51,1.19-0.77,2.47-0.77,3.83v6.36c0,1.35,0.26,2.62,0.77,3.82
		c0.51,1.2,1.22,2.25,2.13,3.16c0.91,0.9,1.97,1.61,3.17,2.12c1.2,0.51,2.48,0.77,3.84,0.77H312.65z"/>
	<path class="st2" d="M370.45,32.92h-4.18L335.61,3.95v28.97h-3.42V0h4.18l30.69,28.99V0h3.4V32.92z"/>
	<polygon class="st2" points="126.56,18.09 144.15,18.09 145.94,14.69 126.56,14.69 	"/>
	<g>
		<polygon class="st2" points="132.2,3.4 134.41,3.4 138.09,3.4 163.36,3.4 165.35,0 128.78,0 128.78,3.4 		"/>
		<polygon class="st2" points="134.41,29.52 132.2,29.52 128.78,29.52 128.78,32.92 163.36,32.92 165.35,29.52 138.09,29.52 		"/>
	</g>
	<polygon class="st2" points="376.86,18.09 394.45,18.09 396.24,14.69 376.86,14.69 	"/>
	<g>
		<polygon class="st2" points="382.5,3.4 384.7,3.4 388.39,3.4 413.66,3.4 415.65,0 379.08,0 379.08,3.4 		"/>
		<polygon class="st2" points="384.7,29.52 382.5,29.52 379.08,29.52 379.08,32.92 413.66,32.92 415.65,29.52 388.39,29.52 		"/>
	</g>
</g>
</svg>
