<svg width="53" height="53" viewBox="0 0 53 53" fill="none" xmlns="http://www.w3.org/2000/svg">
<rect x="0.531738" y="0.626465" width="52.1077" height="52.1077" fill="white"/>
<rect x="49.7446" y="0.626465" width="2.89487" height="2.89487" fill="#E5BB25"/>
<rect x="0.531738" y="0.626465" width="2.89487" height="2.89487" fill="#E5BB25"/>
<rect x="0.531738" y="49.8394" width="2.89487" height="2.89487" fill="#E5BB25"/>
<rect x="49.7446" y="49.8394" width="2.89487" height="2.89487" fill="#E5BB25"/>
<path d="M38.7644 14.6913L13.1013 24.5874C11.3499 25.2908 11.3601 26.2679 12.78 26.7035L19.3687 28.7589L34.6131 19.1407C35.334 18.7021 35.9925 18.938 35.4512 19.4186L23.1002 30.5653H23.0973L23.1002 30.5667L22.6457 37.3581C23.3115 37.3581 23.6054 37.0527 23.9788 36.6923L27.1791 33.5803L33.8359 38.4973C35.0633 39.1732 35.9448 38.8258 36.2502 37.361L40.62 16.7669C41.0673 14.9735 39.9354 14.1615 38.7644 14.6913Z" fill="#E9C03C"/>
</svg>
