<svg width="53" height="53" viewBox="0 0 53 53" fill="none" xmlns="http://www.w3.org/2000/svg">
<path fill-rule="evenodd" clip-rule="evenodd" d="M2.89487 0H49.2129V2.89487H52.1078V49.2129H49.2129V52.1078H2.89487V49.2129H0V2.89487H2.89487V0Z" fill="white"/>
<path d="M41.9759 16.6693C40.8314 17.1625 39.6021 17.4958 38.3096 17.6464C39.6432 16.8703 40.6409 15.6488 41.1165 14.2098C39.8636 14.9336 38.4924 15.4431 37.0624 15.7161C36.1008 14.7175 34.8271 14.0556 33.4391 13.8331C32.0511 13.6107 30.6264 13.8402 29.3862 14.486C28.1461 15.1319 27.1598 16.1578 26.5806 17.4047C26.0014 18.6516 25.8616 20.0496 26.1829 21.3816C23.6442 21.2577 21.1607 20.6159 18.8935 19.4979C16.6263 18.3799 14.6261 16.8108 13.0228 14.8923C12.4746 15.8121 12.1594 16.8786 12.1594 18.0143C12.1587 19.0368 12.4176 20.0436 12.913 20.9454C13.4084 21.8472 14.125 22.6161 14.9992 23.184C13.9853 23.1526 12.9939 22.8861 12.1073 22.4068V22.4868C12.1072 23.9208 12.6172 25.3107 13.5507 26.4206C14.4843 27.5306 15.7839 28.2922 17.2291 28.5762C16.2886 28.8238 15.3025 28.8602 14.3454 28.6829C14.7531 29.9168 15.5474 30.9958 16.6169 31.7688C17.6865 32.5418 18.9778 32.9702 20.3101 32.994C18.0484 34.7209 15.2553 35.6576 12.38 35.6535C11.8707 35.6536 11.3618 35.6247 10.856 35.5668C13.7745 37.392 17.172 38.3607 20.6417 38.3569C32.3874 38.3569 38.8085 28.8948 38.8085 20.6885C38.8085 20.4218 38.8016 20.1526 38.7893 19.8859C40.0383 19.0074 41.1164 17.9195 41.9731 16.6733L41.9759 16.6693Z" fill="#E9C03C"/>
</svg>
